<svg width="81" height="81" viewBox="0 0 81 81" fill="none" xmlns="http://www.w3.org/2000/svg">
<path d="M0 20C0 8.95431 8.95431 0 20 0H40.5H61C72.0457 0 81 8.95431 81 20V40.5V61C81 72.0457 72.0457 81 61 81H40.5H20C8.95431 81 0 72.0457 0 61V40.5V20Z" fill="#2DAE7A"/>
<path d="M61.9375 23.6562H32.8438V57.3438H61.9375C62.3436 57.3438 62.7331 57.1824 63.0203 56.8953C63.3074 56.6081 63.4688 56.2186 63.4688 55.8125V25.1875C63.4688 24.7814 63.3074 24.3919 63.0203 24.1047C62.7331 23.8176 62.3436 23.6562 61.9375 23.6562ZM47.605 29.3984C47.9064 29.4042 48.1995 29.4988 48.4473 29.6704C48.6952 29.842 48.8869 30.083 48.9984 30.3631L51.6169 36.8709C51.7684 37.2467 51.7648 37.6671 51.607 38.0402C51.4491 38.4133 51.1498 38.7087 50.7747 38.8616C50.5895 38.9348 50.3919 38.9712 50.1928 38.9688C49.8887 38.966 49.5924 38.8728 49.3415 38.701C49.0906 38.5292 48.8966 38.2866 48.7841 38.0041L47.5438 34.9416L46.2116 38.0041C46.0529 38.3775 45.7526 38.6727 45.3765 38.8248C45.0004 38.977 44.5793 38.9737 44.2056 38.8156C43.8322 38.657 43.537 38.3567 43.3848 37.9806C43.2327 37.6045 43.236 37.1833 43.3941 36.8097L46.1809 30.3019C46.3038 30.0284 46.5042 29.797 46.7574 29.6364C47.0105 29.4758 47.3053 29.3931 47.605 29.3984ZM37.6059 29.3984H42.8122C43.2183 29.3984 43.6078 29.5598 43.8949 29.8469C44.1821 30.1341 44.3434 30.5236 44.3434 30.9297C44.3434 31.3358 44.1821 31.7253 43.8949 32.0124C43.6078 32.2996 43.2183 32.4609 42.8122 32.4609H41.7403V37.6366C41.7403 38.0427 41.579 38.4322 41.2918 38.7193C41.0047 39.0065 40.6152 39.1678 40.2091 39.1678C39.8029 39.1678 39.4135 39.0065 39.1263 38.7193C38.8391 38.4322 38.6778 38.0427 38.6778 37.6366V32.4609H37.6059C37.1998 32.4609 36.8103 32.2996 36.5232 32.0124C36.236 31.7253 36.0747 31.3358 36.0747 30.9297C36.0747 30.5236 36.236 30.1341 36.5232 29.8469C36.8103 29.5598 37.1998 29.3984 37.6059 29.3984ZM37.6059 42.0312H46.7934C47.1996 42.0312 47.589 42.1926 47.8762 42.4797C48.1634 42.7669 48.3247 43.1564 48.3247 43.5625C48.3247 43.9686 48.1634 44.3581 47.8762 44.6453C47.589 44.9324 47.1996 45.0938 46.7934 45.0938H37.6059C37.1998 45.0938 36.8103 44.9324 36.5232 44.6453C36.236 44.3581 36.0747 43.9686 36.0747 43.5625C36.0747 43.1564 36.236 42.7669 36.5232 42.4797C36.8103 42.1926 37.1998 42.0312 37.6059 42.0312ZM55.9809 51.2188H37.6059C37.1998 51.2188 36.8103 51.0574 36.5232 50.7703C36.236 50.4831 36.0747 50.0936 36.0747 49.6875C36.0747 49.2814 36.236 48.8919 36.5232 48.6047C36.8103 48.3176 37.1998 48.1562 37.6059 48.1562H55.9809C56.3871 48.1562 56.7765 48.3176 57.0637 48.6047C57.3509 48.8919 57.5122 49.2814 57.5122 49.6875C57.5122 50.0936 57.3509 50.4831 57.0637 50.7703C56.7765 51.0574 56.3871 51.2188 55.9809 51.2188ZM59.9316 36.5341C60.0978 36.7616 60.1981 37.0306 60.2213 37.3114C60.2445 37.5922 60.1898 37.874 60.0631 38.1258C59.9365 38.3775 59.7428 38.5894 59.5035 38.7381C59.2641 38.8869 58.9883 38.9667 58.7066 38.9688C58.465 38.9694 58.2266 38.9128 58.0111 38.8037C57.7955 38.6946 57.6088 38.536 57.4663 38.3409L56.3178 36.8097L55.1847 38.3409C55.0421 38.536 54.8554 38.6946 54.6399 38.8037C54.4243 38.9128 54.186 38.9694 53.9444 38.9688C53.6652 38.9612 53.3934 38.8774 53.1584 38.7265C52.9234 38.5755 52.7342 38.3632 52.6112 38.1125C52.4882 37.8617 52.4361 37.5821 52.4606 37.3039C52.485 37.0257 52.5851 36.7595 52.75 36.5341L54.465 34.1912L52.75 31.8331C52.6314 31.6702 52.546 31.4856 52.4987 31.2897C52.4514 31.0938 52.4432 30.8905 52.4745 30.6915C52.5057 30.4924 52.5759 30.3015 52.681 30.1295C52.7861 29.9576 52.924 29.808 53.0869 29.6894C53.2498 29.5707 53.4344 29.4853 53.6303 29.4381C53.8262 29.3908 54.0295 29.3825 54.2285 29.4138C54.4276 29.4451 54.6185 29.5153 54.7905 29.6204C54.9624 29.7255 55.112 29.8634 55.2306 30.0262L56.3638 31.5575L57.5122 30.0262C57.6251 29.8502 57.7728 29.6992 57.9463 29.5824C58.1198 29.4657 58.3153 29.3857 58.5209 29.3474C58.7265 29.3091 58.9378 29.3134 59.1416 29.3599C59.3455 29.4064 59.5377 29.4941 59.7064 29.6178C59.875 29.7414 60.0166 29.8982 60.1223 30.0786C60.2281 30.2591 60.2957 30.4592 60.3211 30.6668C60.3465 30.8744 60.3291 31.0849 60.27 31.2855C60.2109 31.4861 60.1114 31.6725 59.9775 31.8331L58.2625 34.1912L59.9316 36.5341ZM17.5312 25.1875V55.8125C17.5312 56.2186 17.6926 56.6081 17.9797 56.8953C18.2669 57.1824 18.6564 57.3438 19.0625 57.3438H29.7812V23.6562H19.0625C18.6564 23.6562 18.2669 23.8176 17.9797 24.1047C17.6926 24.3919 17.5312 24.7814 17.5312 25.1875Z" fill="#F9F9FA"/>
</svg>
