<svg width="81" height="81" viewBox="0 0 81 81" fill="none" xmlns="http://www.w3.org/2000/svg">
<path d="M0 20C0 8.95431 8.95431 0 20 0H40.5H61C72.0457 0 81 8.95431 81 20V40.5V61C81 72.0457 72.0457 81 61 81H40.5H20C8.95431 81 0 72.0457 0 61V40.5V20Z" fill="#2DAE7A"/>
<path d="M61.8 41.1002C62.3 40.1002 62.6 39.0002 62.6 37.9002C62.6 35.4002 61.2 33.0002 59 31.8002C59 31.6002 59 31.5002 59 31.3002C59 28.3002 56.7 25.8002 53.7 25.5002V25.4002C53.7 22.0002 50.9 19.2002 47.5 19.2002C44.1 19.2002 41.3 22.0002 41.3 25.4002V54.9002C41.3 58.8002 44.4 61.9002 48.3 61.9002C50.9 61.9002 53.2 60.5002 54.4 58.3002C54.7 58.4002 55 58.4002 55.3 58.4002C57.5 58.4002 59.2 56.7002 59.3 54.5002C62.3 53.3002 64.4 50.4002 64.4 47.1002C64.5 44.8002 63.5 42.6002 61.8 41.1002ZM45.6 27.0002C45.6 25.9002 46.5 24.9002 47.7 24.9002C48.8 24.9002 49.8 25.8002 49.8 27.0002C49.8 27.9002 49.3 28.6002 48.5 28.9002V31.7002C49 31.9002 49.4 32.3002 49.7 32.8002H52.6C52.9 32.1002 53.6 31.5002 54.5 31.5002C55.6 31.5002 56.6 32.4002 56.6 33.6002C56.6 34.7002 55.7 35.7002 54.5 35.7002C53.6 35.7002 52.9 35.2002 52.6 34.4002H49.7C49.4 35.2002 48.7 35.7002 47.8 35.7002C46.7 35.7002 45.7 34.8002 45.7 33.6002C45.7 32.7002 46.2 32.0002 47 31.7002V28.9002C46.1 28.6002 45.6 27.8002 45.6 27.0002ZM48.9 56.5002C48.6 57.0002 48.1 57.3002 47.6 57.4002C47.5 57.4002 47.3 57.4002 47.2 57.4002C46.8 57.4002 46.4 57.3002 46 57.0002C45.5 56.7002 45.2 56.2002 45.1 55.7002C45 55.2002 45.1 54.6002 45.4 54.2002C45.6 54.0002 45.8 53.8002 46 53.6002L45.5 50.9002C45.2 50.8002 45 50.8002 44.7 50.6002C44.2 50.3002 43.9 49.8002 43.8 49.3002C43.7 48.8002 43.8 48.2002 44.1 47.8002C44.4 47.3002 44.9 47.0002 45.4 46.9002C45.9 46.8002 46.5 46.9002 46.9 47.2002C47.4 47.5002 47.7 48.0002 47.8 48.5002C48 49.3002 47.6 50.2002 46.9 50.6002L47.4 53.3002C47.7 53.4002 47.9 53.5002 48.2 53.6002C48.6 53.9002 49 54.4002 49.1 54.9002C49.3 55.5002 49.2 56.0002 48.9 56.5002ZM47.9 41.5002C47.7 41.6002 47.5 41.6002 47.3 41.6002C46.8 41.6002 46.2 41.4002 45.8 41.0002C45 40.2002 45 38.9002 45.8 38.1002C46.2 37.7002 46.7 37.5002 47.2 37.5002C47.7 37.5002 48.3 37.7002 48.6 38.1002C49.3 38.7002 49.4 39.7002 49 40.5002L51.2 44.3002C51.4 44.2002 51.5 44.2002 51.7 44.2002L52.4 42.0002C52.4 42.0002 52.3 42.0002 52.3 41.9002C51.9 41.5002 51.7 41.0002 51.7 40.4002C51.7 39.9002 51.9 39.3002 52.3 38.9002C53.1 38.1002 54.4 38.1002 55.2 38.9002C55.6 39.3002 55.8 39.8002 55.8 40.4002C55.8 41.0002 55.6 41.5002 55.2 41.9002C54.8 42.3002 54.3 42.5002 53.8 42.5002L53.1 44.6002C53.2 44.6002 53.2 44.7002 53.2 44.7002C54 45.5002 54 46.8002 53.2 47.6002C52.8 48.0002 52.3 48.2002 51.7 48.2002C51.2 48.2002 50.6 48.0002 50.2 47.6002C49.8 47.2002 49.6 46.7002 49.6 46.1002C49.6 45.8002 49.7 45.4002 49.8 45.2002L47.9 41.5002ZM60.2 50.4002C60 50.9002 59.6 51.3002 59 51.5002C58.8 51.6002 58.5 51.6002 58.3 51.6002C58 51.6002 57.7 51.5002 57.4 51.4002C57.1 51.3002 56.9 51.1002 56.7 50.9002L54.1 51.8002C54.1 52.6002 53.6 53.4002 52.8 53.7002C52.6 53.8002 52.3 53.8002 52.1 53.8002C51.8 53.8002 51.5 53.7002 51.2 53.6002C50.7 53.4002 50.3 53.0002 50.1 52.4002C49.7 51.3002 50.3 50.1002 51.3 49.8002C51.8 49.6002 52.4 49.6002 52.9 49.9002C53.2 50.0002 53.4 50.2002 53.6 50.4002L56.2 49.5002C56.2 48.7002 56.7 47.9002 57.5 47.6002C58 47.4002 58.6 47.4002 59.1 47.7002C59.6 47.9002 60 48.3002 60.2 48.9002C60.4 49.4002 60.4 49.9002 60.2 50.4002ZM33.4 19.2002C30 19.2002 27.2 22.0002 27.2 25.4002C27.2 25.5002 27.2 25.5002 27.2 25.6002C24.3 25.8002 22 28.3002 22 31.4002C22 31.6002 22 31.7002 22 31.9002C19.8 33.1002 18.4 35.4002 18.4 38.0002C18.4 39.1002 18.7 40.2002 19.2 41.2002C17.5 42.7002 16.5 44.9002 16.5 47.1002C16.5 50.4002 18.6 53.3002 21.6 54.5002C21.7 56.7002 23.4 58.4002 25.6 58.4002C25.9 58.4002 26.2 58.4002 26.5 58.3002C27.7 60.5002 30.1 61.9002 32.6 61.9002C36.5 61.9002 39.6 58.8002 39.6 54.9002V25.4002C39.6 21.9002 36.9 19.2002 33.4 19.2002ZM24.5 39.1002C24.5 38.7002 24.8 38.3002 25.3 38.3002C25.7 38.3002 26.1 38.6002 26.1 39.1002C26.1 41.2002 27.8 42.8002 29.8 42.8002C30.2 42.8002 30.6 43.1002 30.6 43.6002C30.6 44.0002 30.3 44.4002 29.8 44.4002C26.8 44.4002 24.5 42.0002 24.5 39.1002ZM34.8 56.4002C34.4 56.4002 34 56.1002 34 55.6002C34 53.5002 32.3 51.9002 30.3 51.9002C29.9 51.9002 29.5 51.6002 29.5 51.1002C29.5 50.7002 29.8 50.3002 30.3 50.3002C33.2 50.3002 35.6 52.7002 35.6 55.5002C35.5 56.0002 35.2 56.4002 34.8 56.4002ZM30.5 35.2002C30.1 35.2002 29.7 34.9002 29.7 34.4002C29.7 34.0002 30 33.6002 30.5 33.6002C32.6 33.6002 34.2 31.9002 34.2 29.9002C34.2 29.5002 34.5 29.1002 35 29.1002C35.4 29.1002 35.8 29.4002 35.8 29.9002C35.8 32.9002 33.4 35.2002 30.5 35.2002Z" fill="#F9F9FA"/>
</svg>
