<svg width="81" height="81" viewBox="0 0 81 81" fill="none" xmlns="http://www.w3.org/2000/svg">
<path d="M0 20C0 8.95431 8.95431 0 20 0H40.5H61C72.0457 0 81 8.95431 81 20V40.5V61C81 72.0457 72.0457 81 61 81H40.5H20C8.95431 81 0 72.0457 0 61V40.5V20Z" fill="#2DAE7A"/>
<path d="M27.4622 49.6875C26.1935 49.6875 25.1653 50.7157 25.1653 51.9844C25.1653 52.2102 25.2082 52.4238 25.2687 52.6298L22.8631 54.5385C22.3026 53.9153 21.4987 53.5156 20.5938 53.5156C18.9025 53.5156 17.5312 54.8869 17.5312 56.5781C17.5312 58.2694 18.9025 59.6406 20.5938 59.6406C21.3724 59.6406 22.0745 59.3413 22.615 58.8628L24.3476 60.4124C24.2557 60.6727 24.2044 60.9521 24.2144 61.2446C24.255 62.5125 25.3154 63.5078 26.5832 63.4672C27.8511 63.4266 28.8464 62.3662 28.8058 61.0984C28.7653 59.8305 27.7049 58.8352 26.437 58.8758C26.0228 58.8888 25.6438 59.0197 25.3138 59.2218L23.4748 57.5773C23.5843 57.2626 23.6562 56.9303 23.6562 56.5781C23.6562 56.353 23.6287 56.1348 23.5828 55.9235L26.1629 53.8762C26.5319 54.1304 26.9791 54.2812 27.4622 54.2812C28.7308 54.2812 29.759 53.253 29.759 51.9844C29.759 50.7157 28.7308 49.6875 27.4622 49.6875ZM40.5 49.6875C45.5738 49.6875 49.6875 45.5738 49.6875 40.5C49.6875 35.4262 45.5738 31.3125 40.5 31.3125C35.4262 31.3125 31.3125 35.4262 31.3125 40.5C31.3125 45.5738 35.4262 49.6875 40.5 49.6875ZM44.3281 35.9062H45.8594V45.0938H44.3281V35.9062ZM41.2656 37.4375H42.7969V45.0938H41.2656V37.4375ZM38.2031 39.7344H39.7344V45.0938H38.2031V39.7344ZM35.1406 42.0312H36.6719V45.0938H35.1406V42.0312ZM31.2421 23.0767C32.3568 21.9834 32.3568 20.2109 31.2421 19.1169C30.1273 18.0235 28.3204 18.0235 27.2057 19.1169L25.1875 21.0968L23.1693 19.1169C22.0546 18.0235 20.2477 18.0235 19.1329 19.1169C18.0182 20.2102 18.0182 21.9826 19.1329 23.0767L25.1875 29.0156L31.2421 23.0767ZM62.7031 51.2188H59.6406V52.75H61.9375V61.9375H52.75V52.75H55.0469V51.2188H51.9844C51.561 51.2188 51.2188 51.561 51.2188 51.9844V62.7031C51.2188 63.1265 51.561 63.4688 51.9844 63.4688H62.7031C63.1265 63.4688 63.4688 63.1265 63.4688 62.7031V51.9844C63.4688 51.561 63.1265 51.2188 62.7031 51.2188Z" fill="#F9F9FA"/>
<path d="M54.8226 50.2286L56.5782 48.473V56.5779H58.1094V48.473L59.865 50.2286L60.9476 49.146L57.8851 46.0835C57.5857 45.7841 57.1019 45.7841 56.8025 46.0835L53.74 49.146L54.8226 50.2286ZM58.3192 17.564C56.3125 17.7998 54.6496 19.3923 54.3387 21.389C54.1267 22.7549 54.5171 24.0281 55.285 24.9867C56.1785 26.1022 56.5782 27.5355 56.5782 28.9649V29.0154H61.1719V28.7582C61.1719 27.331 61.7247 25.9935 62.573 24.8466C63.1358 24.0848 63.4688 23.1446 63.4688 22.1248C63.4688 19.4045 61.1046 17.237 58.3192 17.564ZM60.4063 31.3123H57.3438C57.3438 32.1583 58.029 32.8435 58.8751 32.8435C59.7211 32.8435 60.4063 32.1583 60.4063 31.3123ZM52.4109 22.673C48.8821 20.311 44.7631 19.0623 40.5001 19.0623C38.3356 19.0623 36.1988 19.3846 34.1484 20.0193L34.6017 21.4817C36.5043 20.8929 38.4888 20.5935 40.5001 20.5935C44.4591 20.5935 48.2834 21.7527 51.558 23.9454L52.4109 22.673ZM61.2102 46.0575C61.6933 44.2544 61.9376 42.3848 61.9376 40.4998C61.9376 38.8935 61.7592 37.2918 61.407 35.7368L59.9132 36.0745C60.2402 37.5184 60.4063 39.0076 60.4063 40.4998C60.4063 42.2508 60.1789 43.988 59.731 45.6609L61.2102 46.0575Z" fill="#F9F9FA"/>
<path d="M61.1719 29.3984H56.5781V30.9297H61.1719V29.3984Z" fill="#F9F9FA"/>
<path d="M22.2383 29.2661C20.1612 32.6364 19.0625 36.5204 19.0625 40.5001C19.0625 44.1093 19.9767 47.6786 21.707 50.8223L23.0483 50.0835C21.4421 47.1657 20.5938 43.852 20.5938 40.5001C20.5938 36.8045 21.6136 33.1976 23.5429 30.0693L22.2383 29.2661ZM40.5 60.4064C37.3916 60.4064 34.4156 59.7104 31.6532 58.3377L30.971 59.7089C33.947 61.1881 37.1535 61.9376 40.5 61.9376C43.8465 61.9376 47.053 61.1881 50.0282 59.7089L49.346 58.3377C46.5844 59.7104 43.6084 60.4064 40.5 60.4064Z" fill="#F9F9FA"/>
</svg>
