<svg width="32" height="32" viewBox="0 0 32 32" fill="none" xmlns="http://www.w3.org/2000/svg">
<path d="M16 3C8.8 3 3 8.8 3 16C3 23.2 8.8 29 16 29C23.2 29 29 23.2 29 16C29 14.6 28.812 13.206 28.312 11.906L26.688 13.5C26.888 14.3 27.001 15.1 27.001 16C27.001 22.1 22.101 27 16.001 27C9.901 27 5 22.1 5 16C5 9.9 9.9 5 16 5C19 5 21.694 6.194 23.594 8.094L25 6.688C22.7 4.388 19.5 3 16 3ZM27.28 7.28L16 18.563L11.72 14.283L10.28 15.72L15.28 20.72L16 21.406L16.72 20.719L28.72 8.719L27.28 7.279V7.28Z" fill="#2DAE7A"/>
</svg>
