<svg width="40" height="40" viewBox="0 0 40 40" fill="none" xmlns="http://www.w3.org/2000/svg">
<circle cx="20" cy="20" r="20" fill="#9B51E0"/>
<g clip-path="url(#clip0)">
<path d="M17.8142 21.252H13.4392C12.6033 21.252 12.1853 22.2598 12.7751 22.8535L14.0603 24.0645L10.1853 27.9434C9.94312 28.1855 9.94312 28.584 10.1853 28.8262L11.1775 29.8184C11.4197 30.0605 11.8181 30.0605 12.0603 29.8184L15.9392 25.9395L17.1541 27.2285C17.7439 27.8184 18.7517 27.4004 18.7517 26.5645V22.1895C18.7517 21.6699 18.3337 21.252 17.8142 21.252ZM22.1892 18.752H26.5642C27.4001 18.752 27.8181 17.7402 27.2283 17.1504L25.9392 15.9395L29.8181 12.0605C30.0603 11.8184 30.0603 11.4199 29.8181 11.1777L28.8259 10.1855C28.5837 9.94336 28.1853 9.94336 27.9431 10.1855L24.0642 14.0645L22.8494 12.7754C22.2595 12.1855 21.2517 12.6035 21.2517 13.4395V17.8145C21.2517 18.334 21.6697 18.752 22.1892 18.752ZM25.9392 24.0645L27.2283 22.8496C27.8181 22.2598 27.4001 21.252 26.5642 21.252H22.1892C21.6697 21.252 21.2517 21.6699 21.2517 22.1895V26.5645C21.2517 27.4004 22.2634 27.8184 22.8533 27.2285L24.0642 25.9434L27.9431 29.8223C28.1853 30.0644 28.5837 30.0644 28.8259 29.8223L29.8181 28.8301C30.0603 28.5879 30.0603 28.1894 29.8181 27.9473L25.9392 24.0645ZM17.1501 12.7793L15.9392 14.0645L12.0603 10.1855C11.8181 9.94336 11.4197 9.94336 11.1775 10.1855L10.1853 11.1777C9.94312 11.4199 9.94312 11.8184 10.1853 12.0605L14.0642 15.9395L12.7751 17.1543C12.1853 17.7441 12.6033 18.752 13.4392 18.752H17.8142C18.3337 18.752 18.7517 18.334 18.7517 17.8145V13.4395C18.7517 12.6074 17.74 12.1895 17.1501 12.7793Z" fill="white"/>
</g>
<defs>
<clipPath id="clip0">
<rect width="20" height="20" fill="white" transform="translate(10 10)"/>
</clipPath>
</defs>
</svg>
