<svg width="81" height="81" viewBox="0 0 81 81" fill="none" xmlns="http://www.w3.org/2000/svg">
<path d="M0 20C0 8.95431 8.95431 0 20 0H40.5H61C72.0457 0 81 8.95431 81 20V40.5V61C81 72.0457 72.0457 81 61 81H40.5H20C8.95431 81 0 72.0457 0 61V40.5V20Z" fill="#2DAE7A"/>
<path d="M61.9374 24.4218H55.8124V19.0624C55.8248 18.9589 55.8134 18.854 55.7793 18.7555C55.7452 18.657 55.6892 18.5675 55.6154 18.4938C55.5417 18.4201 55.4523 18.3641 55.3538 18.33C55.2553 18.2958 55.1503 18.2845 55.0468 18.2968H40.4999C40.3964 18.2845 40.2915 18.2958 40.193 18.33C40.0945 18.3641 40.005 18.4201 39.9313 18.4938C39.8576 18.5675 39.8016 18.657 39.7675 18.7555C39.7333 18.854 39.722 18.9589 39.7343 19.0624V24.4218H19.0624C18.9589 24.4095 18.854 24.4208 18.7555 24.455C18.657 24.4891 18.5675 24.5451 18.4938 24.6188C18.4201 24.6925 18.3641 24.782 18.33 24.8805C18.2958 24.979 18.2845 25.0839 18.2968 25.1874V31.3124C18.2845 31.4159 18.2958 31.5209 18.33 31.6194C18.3641 31.7179 18.4201 31.8074 18.4938 31.8811C18.5675 31.9548 18.657 32.0108 18.7555 32.0449C18.854 32.079 18.9589 32.0904 19.0624 32.0781H25.9531V34.3749C25.6486 34.3642 25.3451 34.4163 25.0616 34.528C24.7781 34.6396 24.5206 34.8084 24.3051 35.0239C24.0897 35.2393 23.9209 35.4968 23.8092 35.7803C23.6976 36.0639 23.6455 36.3673 23.6562 36.6718V37.4374C23.6443 37.9363 23.8067 38.4237 24.1156 38.8156L18.6031 42.9499C18.4259 43.107 18.3162 43.3264 18.2968 43.5624V53.5156C18.2845 53.6191 18.2958 53.724 18.33 53.8225C18.3641 53.921 18.4201 54.0105 18.4938 54.0842C18.5675 54.1579 18.657 54.2139 18.7555 54.248C18.854 54.2822 18.9589 54.2935 19.0624 54.2812H33.6093C33.7128 54.2935 33.8178 54.2822 33.9163 54.248C34.0148 54.2139 34.1042 54.1579 34.1779 54.0842C34.2516 54.0105 34.3077 53.921 34.3418 53.8225C34.3759 53.724 34.3873 53.6191 34.3749 53.5156V43.5624C34.3556 43.3264 34.2459 43.107 34.0687 42.9499L28.5562 38.8156C28.865 38.4237 29.0275 37.9363 29.0156 37.4374V36.6718H27.4843V37.4374C27.4966 37.541 27.4853 37.6459 27.4512 37.7444C27.417 37.8429 27.361 37.9324 27.2873 38.0061C27.2136 38.0798 27.1241 38.1358 27.0256 38.1699C26.9272 38.204 26.8222 38.2154 26.7187 38.2031H25.9531C25.8496 38.2154 25.7446 38.204 25.6461 38.1699C25.5476 38.1358 25.4581 38.0798 25.3844 38.0061C25.3107 37.9324 25.2547 37.8429 25.2206 37.7444C25.1865 37.6459 25.1751 37.541 25.1874 37.4374V36.6718C25.1751 36.5683 25.1865 36.4634 25.2206 36.3649C25.2547 36.2664 25.3107 36.1769 25.3844 36.1032C25.4581 36.0295 25.5476 35.9735 25.6461 35.9393C25.7446 35.9052 25.8496 35.8939 25.9531 35.9062H26.7187C26.8222 35.9185 26.9272 35.9072 27.0256 35.873C27.1241 35.8389 27.2136 35.7829 27.2873 35.7092C27.361 35.6355 27.417 35.546 27.4512 35.4475C27.4853 35.349 27.4966 35.2441 27.4843 35.1406V32.0781H39.7343V58.1093H38.2031C38.0996 58.097 37.9946 58.1083 37.8961 58.1425C37.7976 58.1766 37.7081 58.2326 37.6344 58.3063C37.5607 58.38 37.5047 58.4695 37.4706 58.568C37.4365 58.6665 37.4251 58.7714 37.4374 58.8749V61.9374C37.4251 62.041 37.4365 62.1459 37.4706 62.2444C37.5047 62.3429 37.5607 62.4324 37.6344 62.5061C37.7081 62.5798 37.7976 62.6358 37.8961 62.6699C37.9946 62.704 38.0996 62.7154 38.2031 62.7031H57.3437C57.4472 62.7154 57.5522 62.704 57.6506 62.6699C57.7491 62.6358 57.8386 62.5798 57.9123 62.5061C57.986 62.4324 58.042 62.3429 58.0762 62.2444C58.1103 62.1459 58.1216 62.041 58.1093 61.9374V58.8749C58.1216 58.7714 58.1103 58.6665 58.0762 58.568C58.042 58.4695 57.986 58.38 57.9123 58.3063C57.8386 58.2326 57.7491 58.1766 57.6506 58.1425C57.5522 58.1083 57.4472 58.097 57.3437 58.1093H55.8124V32.0781H61.9374C62.041 32.0904 62.1459 32.079 62.2444 32.0449C62.3429 32.0108 62.4324 31.9548 62.5061 31.8811C62.5798 31.8074 62.6358 31.7179 62.6699 31.6194C62.704 31.5209 62.7154 31.4159 62.7031 31.3124V25.1874C62.7154 25.0839 62.704 24.979 62.6699 24.8805C62.6358 24.782 62.5798 24.6925 62.5061 24.6188C62.4324 24.5451 62.3429 24.4891 62.2444 24.455C62.1459 24.4208 62.041 24.4095 61.9374 24.4218ZM26.7187 39.7343H27.1781L31.3124 42.7968H21.3593L25.4937 39.6578H26.7187V39.7343ZM41.2656 26.7953L45.5531 30.5468H41.2656V26.7953ZM42.5671 25.9531H52.7499L47.6203 30.3171L42.5671 25.9531ZM54.2812 26.6421V30.5468H49.6874L54.2812 26.6421ZM54.2812 19.8281V23.7328L44.4812 19.8281H54.2812ZM41.2656 20.2109L51.8312 24.4218H41.2656V20.2109ZM19.8281 25.9531H24.1921L19.8281 29.6281V25.9531ZM21.1296 30.5468L26.2593 26.1828L31.3124 30.5468H21.1296ZM28.3265 25.9531H38.4328L33.3796 30.3171L28.3265 25.9531ZM35.4468 30.5468L39.7343 26.8718V30.5468H35.4468ZM54.2812 48.8453V57.5734L42.7203 53.2093L54.2812 48.8453ZM41.2656 52.1374V43.4093L52.9031 47.7734L41.2656 52.1374ZM42.6437 42.2609L54.2812 37.8968V46.6249L42.6437 42.2609ZM41.2656 41.189V32.3843L52.9031 36.8249L41.2656 41.189ZM41.2656 58.1093V54.3578L51.2953 58.1093H41.2656ZM54.2812 35.6765L44.7109 32.0781H54.2812V35.6765ZM55.8124 30.5468V27.0249L59.8703 30.5468H55.8124ZM61.1718 29.6281L56.8843 25.9531H61.1718V29.6281Z" fill="#F9F9FA"/>
</svg>
