<svg width="298" height="280" viewBox="0 0 298 280" fill="none" xmlns="http://www.w3.org/2000/svg">
<path d="M209.898 88.0084C232.3 110.898 257.599 134.143 277.823 158.518C283.838 165.767 283.57 166.396 274.041 164.117C257.278 160.107 230.158 149.848 215.419 144.423C180.477 131.562 144.796 115.682 109.688 105.947C90.2369 100.553 118.606 118.6 121.579 120.866C124.77 123.298 183.481 167.211 176.942 170.234C171.325 172.831 161.9 167.848 154.295 165.502C138.858 160.742 123.47 154.404 108.05 148.988C87.3751 141.726 43.7466 125.301 20.6292 121.952C-16.2198 116.614 54.8802 167.351 58.1402 169.898C92.6171 196.834 127.953 222.564 163.15 248.529" stroke="#F9F9FA" stroke-width="6" stroke-linecap="round" stroke-linejoin="round"/>
</svg>
