<svg width="40" height="40" viewBox="0 0 40 40" fill="none" xmlns="http://www.w3.org/2000/svg">
<circle cx="20" cy="20" r="20" fill="#EB5757"/>
<path d="M16.875 16.875C17.0408 16.875 17.1997 16.9408 17.3169 17.0581C17.4342 17.1753 17.5 17.3342 17.5 17.5V25C17.5 25.1658 17.4342 25.3247 17.3169 25.4419C17.1997 25.5592 17.0408 25.625 16.875 25.625C16.7092 25.625 16.5503 25.5592 16.4331 25.4419C16.3158 25.3247 16.25 25.1658 16.25 25V17.5C16.25 17.3342 16.3158 17.1753 16.4331 17.0581C16.5503 16.9408 16.7092 16.875 16.875 16.875ZM20 16.875C20.1658 16.875 20.3247 16.9408 20.4419 17.0581C20.5592 17.1753 20.625 17.3342 20.625 17.5V25C20.625 25.1658 20.5592 25.3247 20.4419 25.4419C20.3247 25.5592 20.1658 25.625 20 25.625C19.8342 25.625 19.6753 25.5592 19.5581 25.4419C19.4408 25.3247 19.375 25.1658 19.375 25V17.5C19.375 17.3342 19.4408 17.1753 19.5581 17.0581C19.6753 16.9408 19.8342 16.875 20 16.875ZM23.75 17.5C23.75 17.3342 23.6842 17.1753 23.5669 17.0581C23.4497 16.9408 23.2908 16.875 23.125 16.875C22.9592 16.875 22.8003 16.9408 22.6831 17.0581C22.5658 17.1753 22.5 17.3342 22.5 17.5V25C22.5 25.1658 22.5658 25.3247 22.6831 25.4419C22.8003 25.5592 22.9592 25.625 23.125 25.625C23.2908 25.625 23.4497 25.5592 23.5669 25.4419C23.6842 25.3247 23.75 25.1658 23.75 25V17.5Z" fill="white"/>
<path fill-rule="evenodd" clip-rule="evenodd" d="M28.125 13.75C28.125 14.0815 27.9933 14.3995 27.7589 14.6339C27.5245 14.8683 27.2065 15 26.875 15H26.25V26.25C26.25 26.913 25.9866 27.5489 25.5178 28.0178C25.0489 28.4866 24.413 28.75 23.75 28.75H16.25C15.587 28.75 14.9511 28.4866 14.4822 28.0178C14.0134 27.5489 13.75 26.913 13.75 26.25V15H13.125C12.7935 15 12.4755 14.8683 12.2411 14.6339C12.0067 14.3995 11.875 14.0815 11.875 13.75V12.5C11.875 12.1685 12.0067 11.8505 12.2411 11.6161C12.4755 11.3817 12.7935 11.25 13.125 11.25H17.5C17.5 10.9185 17.6317 10.6005 17.8661 10.3661C18.1005 10.1317 18.4185 10 18.75 10H21.25C21.5815 10 21.8995 10.1317 22.1339 10.3661C22.3683 10.6005 22.5 10.9185 22.5 11.25H26.875C27.2065 11.25 27.5245 11.3817 27.7589 11.6161C27.9933 11.8505 28.125 12.1685 28.125 12.5V13.75ZM15.1475 15L15 15.0738V26.25C15 26.5815 15.1317 26.8995 15.3661 27.1339C15.6005 27.3683 15.9185 27.5 16.25 27.5H23.75C24.0815 27.5 24.3995 27.3683 24.6339 27.1339C24.8683 26.8995 25 26.5815 25 26.25V15.0738L24.8525 15H15.1475ZM13.125 13.75V12.5H26.875V13.75H13.125Z" fill="white"/>
</svg>
