<svg width="40" height="40" viewBox="0 0 40 40" fill="none" xmlns="http://www.w3.org/2000/svg">
<circle cx="20" cy="20" r="20" fill="#56CCF2"/>
<path d="M13.0769 10C11.3846 10 10 11.3846 10 13.0769V26.1538C10 27.8462 11.3846 29.2308 13.0769 29.2308H19.3754V29.0862L19.76 27.6923H13.0769C12.2308 27.6923 11.5385 27 11.5385 26.1538V13.0769C11.5385 12.2308 12.2308 11.5385 13.0769 11.5385H17.9331C18.4715 11.6923 18.4615 12.3846 18.4615 13.0769V15.3846C18.4615 15.8462 18.7692 16.1538 19.2308 16.1538H21.5385C22.3077 16.1538 23.0769 16.1538 23.0769 16.9231V23.0769L24.6154 21.5385V16.1538C24.6154 15.3077 23.8554 14.5292 22.5477 13.2208C22.3169 13.0669 22.1538 12.8462 21.9231 12.6923C21.7692 12.4615 21.5477 12.2977 21.3938 12.0669C20.0869 10.76 19.3077 10 18.4615 10H13.0769ZM27.9569 20.8415C27.7454 20.8415 27.5338 20.9277 27.38 21.0815L26.4662 21.9954L28.7738 24.3031L29.6877 23.3892C29.9954 23.0815 29.9954 22.62 29.6877 22.2354L28.5338 21.0815C28.3806 20.9288 28.1733 20.8426 27.9569 20.8415ZM25.6246 22.7646L21.9954 26.6108C21.9185 26.6108 21.8508 26.7015 21.8508 26.7785L21.0092 29.5431C20.9323 29.62 21.0046 29.7785 21.0815 29.8562C21.1585 29.9331 21.2208 29.9277 21.2977 29.9277H21.3946L24.1585 29.0869C24.2354 29.0869 24.2262 29.0677 24.3031 28.9908L28.0769 25.2408L25.6246 22.7638V22.7646ZM22.3077 26.9954L23.4615 27.2354L23.7023 28.4615L22.1638 28.8462L21.8508 28.5338L22.3077 26.9954Z" fill="white"/>
</svg>
