<svg width="81" height="81" viewBox="0 0 81 81" fill="none" xmlns="http://www.w3.org/2000/svg">
<path d="M0 20C0 8.95431 8.95431 0 20 0H40.5H61C72.0457 0 81 8.95431 81 20V40.5V61C81 72.0457 72.0457 81 61 81H40.5H20C8.95431 81 0 72.0457 0 61V40.5V20Z" fill="#2DAE7A"/>
<g clip-path="url(#clip0)">
<path d="M27.1166 48.4974L37.162 51.9637L27.1166 48.4974ZM62.4876 42.2316C62.4878 42.3213 62.4595 42.4088 62.4068 42.4814C62.3542 42.554 62.2799 42.6081 62.1946 42.6359L56.9799 44.4449C56.8975 44.3851 56.8051 44.3406 56.707 44.3135L39.5268 39.2605C39.2668 39.1854 38.9877 39.2167 38.7507 39.3475C38.5138 39.4783 38.3386 39.6978 38.2635 39.9578C38.1885 40.2178 38.2198 40.4969 38.3506 40.7338C38.4813 40.9707 38.7009 41.146 38.9609 41.221L53.7763 45.5767L52.0481 46.1831L40.7092 50.0739C39.7764 50.3973 38.7618 50.3973 37.829 50.0739L26.4395 46.1326L16.3335 42.6258C16.2431 42.6044 16.1619 42.5545 16.1019 42.4836C16.0418 42.4127 16.0061 42.3244 16 42.2316C16 42.1421 16.027 42.0547 16.0775 41.9807C16.1279 41.9068 16.1996 41.8499 16.283 41.8173L37.5763 33.4697C38.1061 33.2542 38.6719 33.1411 39.2438 33.1362C39.8074 33.1395 40.3657 33.2457 40.8911 33.4495L48.9759 36.6127L49.077 36.7946C49.9177 38.3154 51.0391 39.663 52.3816 40.7663C53.7897 41.9086 55.4164 42.7511 57.1618 43.2422C57.3397 43.2962 57.5296 43.2962 57.7075 43.2422C58.0088 43.1598 58.3056 43.062 58.5968 42.9492L58.8394 42.8683C59.092 42.7774 59.3346 42.6763 59.5771 42.5651C59.8197 42.454 60.1532 42.2923 60.4361 42.1407C60.5473 42.1407 60.6585 42.0194 60.7696 41.9588C60.8808 41.8981 61.2244 41.6859 61.4467 41.5444L62.2047 41.8375C62.285 41.8687 62.3544 41.9226 62.4047 41.9926C62.4549 42.0625 62.4837 42.1456 62.4876 42.2316Z" fill="#F9F9FA"/>
<path d="M51.3714 48.5091V56.5939L39.2442 60.424L27.1169 56.6444V48.5596L37.1623 52.0259C38.5295 52.5059 40.0194 52.5059 41.3866 52.0259L51.3714 48.5091ZM59.4562 43.3752V55.371C59.4562 55.6391 59.3497 55.8961 59.1602 56.0856C58.9707 56.2752 58.7136 56.3816 58.4456 56.3816C58.1776 56.3816 57.9205 56.2752 57.731 56.0856C57.5415 55.8961 57.435 55.6391 57.435 55.371V44.0826L59.4562 43.3752ZM57.435 20L49.3502 22.2941V30.2071C49.3511 31.061 49.4494 31.912 49.6432 32.7437C49.7152 33.0864 49.8097 33.424 49.9262 33.7543C50.1 34.2847 50.3128 34.8015 50.5629 35.3005C50.6437 35.4723 50.7246 35.6037 50.7953 35.7452C51.0565 36.2013 51.3468 36.6401 51.6644 37.0589C53.0969 39.0245 55.1181 40.4828 57.435 41.2226C58.6129 40.8626 59.7229 40.3094 60.7194 39.5854C61.9837 38.6813 63.0512 37.5299 63.8572 36.201C64.6632 34.8721 65.1911 33.3933 65.4086 31.8544C65.4838 31.3221 65.5209 30.7851 65.5198 30.2475V22.3446L57.435 20ZM62.1949 28.7619L57.1419 33.8149C57.048 33.9096 56.9362 33.9848 56.813 34.0361C56.6899 34.0874 56.5578 34.1139 56.4244 34.1139C56.291 34.1139 56.1589 34.0874 56.0357 34.0361C55.9126 33.9848 55.8008 33.9096 55.7069 33.8149L53.1804 31.2884C52.9901 31.0981 52.8831 30.84 52.8831 30.5709C52.8831 30.3018 52.9901 30.0437 53.1804 29.8534C53.3707 29.6631 53.6288 29.5562 53.8979 29.5562C54.167 29.5562 54.4251 29.6631 54.6154 29.8534L56.4244 31.7129L60.7599 27.3673C60.9502 27.177 61.2083 27.0701 61.4774 27.0701C61.7465 27.0701 62.0046 27.177 62.1949 27.3673C62.3852 27.5576 62.4921 27.8157 62.4921 28.0848C62.4921 28.3539 62.3852 28.612 62.1949 28.8023V28.7619Z" fill="#F9F9FA"/>
</g>
<defs>
<clipPath id="clip0">
<rect width="49.52" height="40.424" fill="white" transform="translate(16 20)"/>
</clipPath>
</defs>
</svg>
