<svg width="40" height="40" viewBox="0 0 40 40" fill="none" xmlns="http://www.w3.org/2000/svg">
<circle cx="20" cy="20" r="20" fill="#187A47"/>
<path d="M28.0297 14.7641L22.9859 9.72031C22.8453 9.57969 22.6555 9.5 22.4562 9.5H12.5C12.0852 9.5 11.75 9.83516 11.75 10.25V29.75C11.75 30.1648 12.0852 30.5 12.5 30.5H27.5C27.9148 30.5 28.25 30.1648 28.25 29.75V15.2961C28.25 15.0969 28.1703 14.9047 28.0297 14.7641ZM26.5203 15.6406H22.1094V11.2297L26.5203 15.6406ZM26.5625 28.8125H13.4375V11.1875H20.5156V16.25C20.5156 16.5111 20.6193 16.7615 20.8039 16.9461C20.9885 17.1307 21.2389 17.2344 21.5 17.2344H26.5625V28.8125ZM20.0492 21.5961L18.6008 19.1961C18.5492 19.1117 18.4578 19.0602 18.3594 19.0602H17.4594C17.4055 19.0602 17.3539 19.0742 17.3094 19.1047C17.1781 19.1867 17.1383 19.3602 17.2227 19.4937L19.1516 22.55L17.1969 25.6625C17.1703 25.7052 17.1556 25.7542 17.1544 25.8045C17.1531 25.8547 17.1653 25.9044 17.1897 25.9484C17.2141 25.9923 17.2497 26.029 17.293 26.0546C17.3363 26.0801 17.3857 26.0937 17.4359 26.0938H18.2445C18.343 26.0938 18.432 26.0422 18.4836 25.9602L19.9531 23.5812L21.4133 25.9578C21.4648 26.0422 21.5562 26.0914 21.6523 26.0914H22.5312C22.5852 26.0914 22.6367 26.075 22.6836 26.0469C22.8148 25.9625 22.8523 25.7891 22.768 25.6578L20.7992 22.6016L22.7984 19.4961C22.8255 19.4535 22.8407 19.4045 22.8423 19.3541C22.844 19.3037 22.8322 19.2537 22.808 19.2095C22.7838 19.1652 22.7482 19.1282 22.7049 19.1024C22.6616 19.0765 22.6122 19.0628 22.5617 19.0625H21.725C21.6266 19.0625 21.5352 19.1141 21.4836 19.1984L20.0492 21.5961Z" fill="white"/>
</svg>
