<svg width="81" height="81" viewBox="0 0 81 81" fill="none" xmlns="http://www.w3.org/2000/svg">
<path d="M0 20C0 8.95431 8.95431 0 20 0H40.5H61C72.0457 0 81 8.95431 81 20V40.5V61C81 72.0457 72.0457 81 61 81H40.5H20C8.95431 81 0 72.0457 0 61V40.5V20Z" fill="#2DAE7A"/>
<path d="M43.6706 30.311C42.2821 30.311 40.9249 30.7228 39.7705 31.4944C38.6162 32.2659 37.7166 33.3625 37.1856 34.6454C36.6546 35.9282 36.516 37.3398 36.7874 38.7015C37.0588 40.0631 37.728 41.3137 38.7103 42.295C39.6925 43.2762 40.9438 43.9441 42.3057 44.2141C43.6677 44.4841 45.0791 44.3441 46.3614 43.8118C47.6438 43.2794 48.7394 42.3787 49.5098 41.2236C50.2801 40.0685 50.6905 38.7108 50.6891 37.3224C50.6853 35.4628 49.9444 33.6805 48.6288 32.3663C47.3131 31.052 45.5302 30.3129 43.6706 30.311ZM43.6706 36.6018C44.1606 36.6027 44.6347 36.7759 45.01 37.091C45.3853 37.406 45.6379 37.8429 45.7238 38.3254C45.8096 38.8078 45.7232 39.3051 45.4796 39.7303C45.236 40.1555 44.8508 40.4815 44.3911 40.6515V41.1343C44.3911 41.3254 44.3152 41.5087 44.1801 41.6438C44.045 41.7789 43.8617 41.8549 43.6706 41.8549C43.4794 41.8549 43.2962 41.7789 43.161 41.6438C43.0259 41.5087 42.95 41.3254 42.95 41.1343V40.6515C42.5479 40.5044 42.2005 40.2377 41.9545 39.8873C41.7084 39.5369 41.5755 39.1196 41.5736 38.6915C41.5736 38.5004 41.6496 38.3171 41.7847 38.1819C41.9198 38.0468 42.1031 37.9709 42.2942 37.9709C42.4853 37.9709 42.6686 38.0468 42.8038 38.1819C42.9389 38.3171 43.0148 38.5004 43.0148 38.6915C43.0052 38.7829 43.0149 38.8753 43.0433 38.9627C43.0717 39.0501 43.1181 39.1306 43.1796 39.1989C43.2411 39.2672 43.3163 39.3218 43.4002 39.3592C43.4842 39.3965 43.5751 39.4159 43.667 39.4159C43.7589 39.4159 43.8497 39.3965 43.9337 39.3592C44.0176 39.3218 44.0928 39.2672 44.1543 39.1989C44.2158 39.1306 44.2622 39.0501 44.2906 38.9627C44.319 38.8753 44.3287 38.7829 44.3191 38.6915C44.3191 38.5195 44.2508 38.3545 44.1291 38.2329C44.0075 38.1113 43.8426 38.0429 43.6706 38.0429C43.1787 38.047 42.7013 37.8768 42.3229 37.5625C41.9445 37.2483 41.6896 36.8102 41.6033 36.326C41.517 35.8417 41.6049 35.3426 41.8513 34.9169C42.0978 34.4913 42.487 34.1666 42.95 34.0004V33.5177C42.95 33.3265 43.0259 33.1433 43.161 33.0081C43.2962 32.873 43.4794 32.7971 43.6706 32.7971C43.8617 32.7971 44.045 32.873 44.1801 33.0081C44.3152 33.1433 44.3911 33.3265 44.3911 33.5177V34.0149C44.7913 34.1619 45.1369 34.4277 45.3816 34.7768C45.6264 35.1258 45.7585 35.5414 45.7603 35.9677C45.7603 36.1588 45.6843 36.342 45.5492 36.4772C45.4141 36.6123 45.2308 36.6882 45.0397 36.6882C44.8486 36.6882 44.6653 36.6123 44.5301 36.4772C44.395 36.342 44.3191 36.1588 44.3191 35.9677C44.3201 35.8822 44.3039 35.7975 44.2717 35.7183C44.2394 35.6392 44.1917 35.5673 44.1313 35.5069C44.0709 35.4465 43.999 35.3988 43.9199 35.3665C43.8408 35.3343 43.756 35.3182 43.6706 35.3191C43.4986 35.3191 43.3336 35.3875 43.212 35.5091C43.0904 35.6307 43.022 35.7957 43.022 35.9677C43.022 36.1397 43.0904 36.3046 43.212 36.4262C43.3336 36.5479 43.4986 36.6162 43.6706 36.6162V36.6018ZM34.0147 36.6018H31.8529C31.6618 36.6018 31.4785 36.6777 31.3434 36.8128C31.2082 36.948 31.1323 37.1312 31.1323 37.3224C31.1323 37.5135 31.2082 37.6968 31.3434 37.8319C31.4785 37.967 31.6618 38.0429 31.8529 38.0429H34.0147C34.2058 38.0429 34.3891 37.967 34.5242 37.8319C34.6593 37.6968 34.7353 37.5135 34.7353 37.3224C34.7353 37.1312 34.6593 36.948 34.5242 36.8128C34.3891 36.6777 34.2058 36.6018 34.0147 36.6018ZM55.4738 36.6018H53.312C53.1209 36.6018 52.9376 36.6777 52.8025 36.8128C52.6674 36.948 52.5914 37.1312 52.5914 37.3224C52.5914 37.5135 52.6674 37.6968 52.8025 37.8319C52.9376 37.967 53.1209 38.0429 53.312 38.0429H55.4738C55.6649 38.0429 55.8482 37.967 55.9833 37.8319C56.1185 37.6968 56.1944 37.5135 56.1944 37.3224C56.1944 37.1312 56.1185 36.948 55.9833 36.8128C55.8482 36.6777 55.6649 36.6018 55.4738 36.6018Z" fill="#F9F9FA"/>
<path d="M61.0729 23.9839H26.2757C25.4308 23.9857 24.6206 24.3202 24.0205 24.9149C23.4203 25.5097 23.0786 26.3168 23.0691 27.1617C22.2311 27.171 21.4301 27.5081 20.8375 28.1007C20.2449 28.6933 19.9079 29.4943 19.8985 30.3323C19.0536 30.3417 18.2465 30.6835 17.6518 31.2837C17.057 31.8838 16.7225 32.694 16.7207 33.5389V53.8018C16.7207 54.6529 17.0583 55.4693 17.6595 56.0718C18.2606 56.6743 19.0762 57.0137 19.9273 57.0156H54.7317C55.5754 57.0119 56.3837 56.6766 56.9823 56.0821C57.5809 55.4875 57.9217 54.6815 57.9311 53.8379C58.7704 53.8285 59.5725 53.4904 60.1652 52.8963C60.758 52.3022 61.0942 51.4993 61.1017 50.6601C61.9472 50.6525 62.7554 50.3113 63.3505 49.7107C63.9457 49.1102 64.2796 48.2989 64.2795 47.4534V27.1905C64.2776 26.3406 63.9392 25.5261 63.3382 24.9252C62.7373 24.3242 61.9228 23.9858 61.0729 23.9839ZM57.9023 52.3967H23.0979C22.6297 52.3967 22.1806 52.2107 21.8496 51.8796C21.5185 51.5485 21.3325 51.0995 21.3325 50.6312V30.3683C21.3324 29.905 21.5144 29.4603 21.8393 29.13C22.1642 28.7998 22.6059 28.6104 23.0691 28.6029V47.4534C23.0691 48.3039 23.4069 49.1195 24.0083 49.7209C24.306 50.0186 24.6595 50.2548 25.0486 50.416C25.4376 50.5771 25.8546 50.6601 26.2757 50.6601H59.6606C59.6549 51.1226 59.4671 51.5643 59.138 51.8894C58.8089 52.2144 58.3649 52.3967 57.9023 52.3967ZM61.1738 42.8921C61.1738 43.0832 61.0979 43.2665 60.9627 43.4017C60.8276 43.5368 60.6443 43.6127 60.4532 43.6127C59.5989 43.6127 58.7796 43.9521 58.1756 44.5561C57.5715 45.1602 57.2322 45.9795 57.2322 46.8337C57.2322 47.0248 57.1563 47.2081 57.0211 47.3433C56.886 47.4784 56.7027 47.5543 56.5116 47.5543H30.837C30.6459 47.5543 30.4626 47.4784 30.3275 47.3433C30.1924 47.2081 30.1164 47.0248 30.1164 46.8337C30.1164 45.9795 29.7771 45.1602 29.173 44.5561C28.569 43.9521 27.7497 43.6127 26.8954 43.6127C26.7043 43.6127 26.521 43.5368 26.3859 43.4017C26.2507 43.2665 26.1748 43.0832 26.1748 42.8921V31.759C26.1748 31.5679 26.2507 31.3846 26.3859 31.2495C26.521 31.1144 26.7043 31.0384 26.8954 31.0384C27.7497 31.0384 28.569 30.6991 29.173 30.095C29.7771 29.491 30.1164 28.6717 30.1164 27.8174C30.1164 27.6263 30.1924 27.443 30.3275 27.3079C30.4626 27.1727 30.6459 27.0968 30.837 27.0968H56.5116C56.7027 27.0968 56.886 27.1727 57.0211 27.3079C57.1563 27.443 57.2322 27.6263 57.2322 27.8174C57.2322 28.6717 57.5715 29.491 58.1756 30.095C58.7796 30.6991 59.5989 31.0384 60.4532 31.0384C60.6443 31.0384 60.8276 31.1144 60.9627 31.2495C61.0979 31.3846 61.1738 31.5679 61.1738 31.759V42.8921Z" fill="#F9F9FA"/>
</svg>
