<svg width="959" height="470" viewBox="0 0 959 470" fill="none" xmlns="http://www.w3.org/2000/svg">
<path d="M385.653 176.621L390.679 174.688L396.478 166.183V160.384L402.277 156.904L410.009 151.492L418.128 154.971L430.113 147.626L438.232 146.466L447.511 147.626L455.63 144.146L459.109 151.492L455.63 154.971L464.522 160.384H469.548L475.347 166.183L483.079 168.889L486.945 166.183V160.384H495.451L505.503 166.183H515.555H524.833L529.859 176.621L532.179 182.421L536.432 190.54L539.525 198.272V204.458L544.937 209.097L548.03 218.376L554.216 222.628L559.629 229.201L561.948 235.387L566.201 238.093L573.16 239.639L586.305 235.387V245.052L580.506 254.717L575.093 263.223L567.747 270.182L559.629 279.46L552.67 287.193L548.03 295.698L550.35 306.137L554.216 311.163V319.668V327.4L550.35 333.973L543.004 335.906L539.525 340.932L534.499 346.731L536.432 356.396L534.499 360.649L529.086 364.515L526.38 367.995V371.861L525.22 376.5L515.941 387.712L507.436 393.511L500.09 396.991L496.224 393.511L491.198 396.991H484.626L481.919 393.511V387.712L478.827 380.753L472.641 373.407V367.995L470.321 356.396L466.842 346.731L461.816 338.999V332.04L464.522 325.467L466.842 317.735V311.163V306.137L464.522 300.337L461.816 291.832L459.109 288.739L455.63 283.327V277.141V267.862V263.223L450.217 258.97H442.872L439.779 254.717L434.753 252.011L428.18 254.717L420.061 257.037H410.009L399.958 258.97L393.385 257.037L383.72 249.305L381.014 245.052L377.534 239.639L374.441 235.387L372.508 232.68V227.654L369.802 223.788L372.508 219.149V211.03V207.164V202.524V197.112L377.534 190.54L381.014 182.421L385.653 176.621Z" stroke="#B2F2C5" stroke-opacity="0.48" stroke-width="3" stroke-dasharray="2 2"/>
<path d="M578.96 322.374L571.614 330.493L564.269 334.746V344.798L560.789 352.144V359.876L564.269 364.129H571.614L575.867 359.876V352.144L580.893 339.772L583.213 330.493V322.374L580.893 318.508L578.96 322.374Z" stroke="#B2F2C5" stroke-opacity="0.48" stroke-width="3" stroke-dasharray="2 2"/>
<path d="M852.295 425.987L855.001 419.414H861.187L864.28 421.734L861.187 425.987L855.001 428.306L852.295 425.987Z" stroke="#B2F2C5" stroke-opacity="0.48" stroke-width="3" stroke-dasharray="2 2"/>
<path d="M814.793 388.872L805.127 393.125H792.369L786.957 396.218L781.157 399.31L778.451 396.218V393.125L781.157 384.619V373.021V361.036L785.024 354.077L798.942 345.958H805.127L814.793 336.293L817.499 332.813L822.525 327.401L830.644 324.694L836.056 327.401L838.763 323.534L843.789 320.055L853.067 317.349C861.418 316.111 860.671 319.668 859.253 321.601L855 327.401L859.253 330.493L869.305 336.293L876.264 327.401V321.601L880.517 315.416L882.45 321.601L887.476 327.401V337.839L890.955 342.478L896.755 354.077L902.554 361.036V367.995L899.461 380.753L893.662 388.872L887.476 393.125L882.45 402.79L876.264 407.816H870.465L867.759 410.522L863.893 412.842L859.253 410.522H853.067L848.428 407.816V402.79L846.495 399.31L842.629 393.125L838.763 396.218L834.123 388.872L829.097 386.939H824.845L814.793 388.872Z" stroke="#B2F2C5" stroke-opacity="0.48" stroke-width="3" stroke-dasharray="2 2"/>
<path d="M916.086 438.745H907.58C907.58 435.961 910.673 432.43 912.219 431.013L921.885 425.987L930.39 423.28L937.736 418.254V423.28L933.097 425.987L930.39 431.013H926.524L921.885 435.652L916.086 438.745Z" stroke="#B2F2C5" stroke-opacity="0.48" stroke-width="3" stroke-dasharray="2 2"/>
<path d="M948.561 420.961H943.535L945.468 415.548V411.295L950.881 408.976L953.2 400.857L955.52 406.656L959 411.295L953.2 415.548L948.561 420.961Z" stroke="#B2F2C5" stroke-opacity="0.48" stroke-width="3" stroke-dasharray="2 2"/>
<path d="M253.045 465.808L242.606 460.009H235.261L225.209 455.756L220.183 447.637L213.61 438.358L216.317 434.879V429.853L213.61 424.827L208.198 417.868V410.909L206.265 392.351L203.559 375.727V360.263V345.958L195.826 337.066L186.161 330.88L179.975 322.375L173.789 312.323L168.377 299.564L164.124 297.631V288.739L168.377 285.26L164.124 280.234L168.377 272.115L173.789 263.609L176.496 259.743V254.331L173.789 245.052V242.346L176.496 245.052L179.975 242.346L183.841 237.706H188.094L191.96 232.68H195.826L197.759 239.639L195.826 245.052L191.96 239.639L200.466 234.613H206.265L209.744 237.706L215.93 239.639L223.276 237.706L227.915 239.639L236.807 250.465L240.673 254.331H246.859L255.751 257.037L259.617 263.609L262.324 269.409V274.048L266.963 276.754L271.216 280.234H276.628L279.335 282.167L284.747 285.26H292.866L299.438 288.739L306.784 292.992L311.037 294.925V299.564V306.137L304.851 316.189L299.438 322.375V330.88V342.865L292.866 354.077L287.453 356.01L279.335 360.263L273.535 365.675V371.088L271.216 381.526L264.643 392.351L259.617 396.991H254.978H250.725L253.045 401.244V407.429L248.019 410.909H242.606V417.868H235.261V422.121L238.354 424.827L235.261 431.786V434.879V438.358L238.354 442.998V447.637L235.261 452.276L238.354 455.756L235.261 465.808H240.673L245.313 467.741L253.045 465.808Z" stroke="#B2F2C5" stroke-opacity="0.48" stroke-width="3" stroke-dasharray="2 2"/>
<path d="M899.848 304.59L908.353 312.709L905.647 315.415L899.848 312.709L893.275 306.91L889.409 304.59H885.156L882.45 308.843L874.718 306.91L870.465 304.59H866.599L870.465 298.791L866.599 295.312L855.774 291.059L849.975 289.126V285.26L846.108 278.687H855.774V281.78L860.026 289.126L863.893 285.26L870.465 281.78L877.424 285.26L889.409 289.126L897.528 295.312L899.848 304.59Z" stroke="#B2F2C5" stroke-opacity="0.48" stroke-width="3" stroke-dasharray="2 2"/>
<path d="M790.436 260.903L782.704 266.702L774.972 270.568L776.518 279.461L780.384 285.646L790.436 289.512H798.168V285.646L803.968 277.527L806.287 274.435V269.022L803.968 264.383L806.287 257.81L803.968 253.944H798.168L790.436 260.903Z" stroke="#B2F2C5" stroke-opacity="0.48" stroke-width="3" stroke-dasharray="2 2"/>
<path d="M784.637 298.791L793.142 303.817L788.89 306.137L780.384 303.817H773.812H766.08L764.146 298.791H770.719H777.291H784.637Z" stroke="#B2F2C5" stroke-opacity="0.48" stroke-width="3" stroke-dasharray="2 2"/>
<path d="M764.534 286.806V292.605C764.534 297.245 759.121 296.6 756.415 295.698L751.003 289.899L745.977 279.074L738.244 267.862L731.672 261.676V256.264L744.43 261.676L748.296 267.862L756.415 273.661V277.527L764.534 286.806Z" stroke="#B2F2C5" stroke-opacity="0.48" stroke-width="3" stroke-dasharray="2 2"/>
<path d="M806.288 221.082L808.221 213.35C808.994 210.257 811.378 212.061 812.474 213.35V221.082L816.727 224.562L821.366 231.907L827.938 239.639L830.645 246.985V255.491H825.232L821.366 251.238L816.727 241.573L812.474 231.907L806.288 221.082Z" stroke="#B2F2C5" stroke-opacity="0.48" stroke-width="3" stroke-dasharray="2 2"/>
<path d="M749.456 264.769L745.977 254.331L739.404 244.279V232.294L744.044 236.933V241.959L745.977 246.212L749.456 250.464L756.029 254.331L758.735 260.903V270.182H756.029L749.456 264.769Z" stroke="#B2F2C5" stroke-opacity="0.48"/>
<path d="M716.207 203.684L712.728 197.112L700.743 199.045L698.036 206.777L691.85 211.03L680.252 221.855L678.319 228.041V240.026C677.391 247.449 672.262 246.212 669.814 244.665L662.855 230.747L654.349 211.03V201.365H649.323H643.911V195.179H638.111L631.539 185.9L627.286 189.38L616.461 185.9H606.796L600.997 181.261L587.465 179.714L581.279 172.369L577.027 168.889L574.32 172.369L578.96 177.781L581.279 185.9H587.465L591.718 191.313L598.677 185.9L602.543 189.38L610.662 195.179V201.365L604.476 211.03L596.357 214.896L587.465 219.922L578.96 224.562L572.387 230.747H564.268L560.402 224.562V217.602L556.149 211.03L548.804 203.684V197.112L537.205 183.581L533.726 174.302L529.473 177.781L524.834 165.023H531.793L533.726 155.744V147.239L527.154 149.559L518.648 147.239H509.369L504.343 137.187V133.708H499.704L495.065 137.187L497.384 142.6L495.065 147.239L489.652 144.533L491.585 140.667L485.013 137.187L482.306 127.135L475.347 122.882L465.296 115.923C460.965 111.903 462.203 116.31 463.362 119.016L468.388 124.815C472.383 127.78 479.755 133.708 477.281 133.708C474.806 133.708 474.961 139.636 475.347 142.6L468.388 133.708L457.563 124.815L452.151 120.949L442.485 124.815H437.073L433.593 131.001L425.474 137.187V144.533L415.809 147.239H406.917L399.958 142.6L402.664 124.815H418.515L421.995 120.949V112.83L415.809 105.871L425.474 103.938L433.593 99.2991L444.418 90.7936H448.671L452.151 87.3141V79.9684L456.403 76.4889V81.5149L461.429 79.9684V74.5559L457.563 71.8496L452.151 74.5559L446.352 71.8496V61.7976L463.362 49.0394L475.347 40.1473L485.013 34.7348H501.637L511.689 40.1473L527.154 42.0804C532.102 46.1012 529.215 48.3951 527.154 49.0394H520.968L511.689 45.9465L520.968 53.6788H527.154L531.793 49.0394L537.205 45.9465L539.525 42.0804L546.098 45.9465L556.149 42.0804H569.294L582.826 40.1473H591.331L586.692 34.7348L588.625 30.8686H596.744L602.156 34.7348L610.275 30.8686L616.461 27.0025H624.967V22.7498L637.725 19.6569H645.844L650.096 16.564H657.442L664.788 19.6569H675.613L678.319 22.7498L675.613 27.0025L689.917 28.9356H693.01H699.969H706.542H718.913L732.831 34.7348H740.95H747.523L749.456 28.9356L762.214 30.8686L777.292 34.7348H790.437H799.329L809.381 40.1473H828.325L831.804 37.8277H841.083L855.388 40.1473L868.146 44.0135L876.265 47.1064H885.157L890.569 52.9055H879.358L873.558 49.0394L868.146 52.9055L876.265 56.7717V61.0244L868.146 66.8236H860.027C851.985 68.9886 853.583 72.6228 855.388 74.1692L861.96 76.8755L863.893 86.9275V97.366H860.027L849.975 86.9275L843.403 76.8755L846.496 64.1173L843.403 61.0244L838.763 64.1173H833.737H828.325V70.6897H819.046H805.128L799.329 74.1692L795.463 83.4479L801.648 86.9275H807.834L816.34 90.407H820.979L828.325 97.366L833.737 102.779V107.031L836.057 114.764L831.804 112.444L828.325 107.031L822.912 99.2991H820.979L822.912 107.031V114.764L819.046 124.042H812.86L809.381 127.135L807.834 131.775V135.254L809.381 139.12L816.34 144.146L819.046 149.559L816.34 153.811H809.381L807.834 146.852L799.329 141.053L795.463 135.254C790.514 138.038 788.761 136.414 788.504 135.254L783.864 131.775L777.292 139.12L783.864 144.146H788.504L795.463 146.852L786.571 152.652L795.463 160.77L799.329 166.57L801.648 174.689L799.329 185.127L795.463 192.859L786.571 197.112L777.292 199.045L772.266 203.684L767.24 199.045L762.214 202.525L759.894 208.71L767.24 217.602L772.266 226.108V235.773L767.24 240.026L763.76 244.665H759.894V240.026L753.322 235.773L745.59 230.747H742.883V235.773L739.017 230.747L735.924 221.855L732.831 217.602L728.965 219.922H725.099V214.896L722.393 208.71L716.207 203.684Z" stroke="#B2F2C5" stroke-opacity="0.48" stroke-width="3" stroke-dasharray="2 2"/>
<path d="M825.619 163.477L823.686 158.064L824.845 154.585L828.325 151.105H832.964L838.377 147.626L843.789 141.44L841.47 136.414L837.217 128.295V123.269V117.47L842.243 120.949L849.202 123.269L847.269 127.135H842.243V132.934H845.722L849.202 138.347V142.6L850.748 147.626V153.811H843.789L839.537 158.064L834.897 157.291H831.418L828.325 155.744L826.392 157.291L829.485 160.77L828.325 165.41L825.619 163.477Z" stroke="#B2F2C5" stroke-opacity="0.48" stroke-width="3" stroke-dasharray="2 2"/>
<path d="M582.826 149.172L573.547 142.986V133.708L563.882 124.042V118.63L573.547 109.738L580.893 115.537L577.8 118.63H573.547V124.042L580.893 127.522H585.919L588.625 131.774L582.826 133.708L585.919 139.12L588.625 144.919L582.826 149.172Z" stroke="#B2F2C5" stroke-opacity="0.48" stroke-width="3" stroke-dasharray="2 2"/>
<path d="M522.9 129.841L514.008 132.934L508.596 125.202L510.915 118.243L518.648 112.057L522.9 118.243H529.086V112.057H536.432V118.243L543.004 122.496L549.19 129.841L543.004 132.934L533.339 129.841H522.9Z" stroke="#B2F2C5" stroke-opacity="0.48" stroke-width="3" stroke-dasharray="2 2"/>
<path d="M424.315 82.288L430.887 91.9533L433.593 94.273L430.887 97.7525L421.608 100.459H414.263L416.582 94.273V91.9533L421.608 86.5408L416.582 82.288V78.8085V74.9424H421.608L424.315 82.288Z" stroke="#B2F2C5" stroke-opacity="0.48" stroke-width="3" stroke-dasharray="2 2"/>
<path d="M403.051 87.7007L409.237 84.9944C414.185 82.8294 413.103 85.8965 411.943 87.7007L409.237 93.4999L403.051 96.5928V87.7007Z" stroke="#B2F2C5" stroke-opacity="0.48" stroke-width="3" stroke-dasharray="2 2"/>
<path d="M375.988 52.9055L384.494 50.1992H394.159L398.412 52.9055L389.906 57.9315H380.628L375.988 52.9055Z" stroke="#B2F2C5" stroke-opacity="0.48" stroke-width="3" stroke-dasharray="2 2"/>
<path d="M305.238 49.8127L309.104 43.6269C314.362 41.4618 314.388 37.0545 313.744 35.1214L309.104 26.6159L300.599 19.6569H294.027L287.454 16.9506V12.6979H300.599L309.104 8.44512L321.089 6.12545L340.033 8.44512L351.632 4.19238H374.055H389.906L399.185 8.44512L393.386 16.9506L389.906 23.523L382.561 26.6159L376.762 30.0954L382.561 35.1214L376.762 38.2143L365.936 41.6938L358.204 43.6269L351.632 46.3332L340.033 49.8127L329.208 55.6119L321.089 66.8236H313.744L305.238 60.6378V49.8127Z" stroke="#B2F2C5" stroke-opacity="0.48" stroke-width="3" stroke-dasharray="2 2"/>
<path d="M263.483 10.3781L256.138 16.9506L265.416 20.4301L272.762 16.9506L282.041 13.8577L299.052 10.3781L310.263 2.25928L290.16 4.57895H276.628V10.3781H272.762H263.483Z" stroke="#B2F2C5" stroke-opacity="0.48" stroke-width="3" stroke-dasharray="2 2"/>
<path d="M245.313 27.3892H237.581L229.849 31.6419L237.581 36.2812H245.313H254.205L261.164 44.7867V47.493H254.205L249.566 52.9056L254.205 58.7048L263.484 61.4111L269.283 55.9985V50.1993H272.376C281.036 52.3643 280.881 49.2972 279.722 47.493L275.082 41.3072L269.283 34.3482L263.484 31.6419H258.845L254.205 29.3222L245.313 27.3892Z" stroke="#B2F2C5" stroke-opacity="0.48" stroke-width="3" stroke-dasharray="3 3"/>
<path d="M162.964 24.6829L157.165 27.3891L150.206 30.0954L152.526 34.3482L157.165 30.0954H164.897L167.99 34.3482L162.964 40.534H169.923H174.563H180.748L187.707 38.9875L195.826 37.8277V34.3482V30.0954H193.12H189.641L186.161 27.3891L182.295 30.0954L177.269 27.3891L169.923 24.6829H162.964Z" stroke="#B2F2C5" stroke-opacity="0.48" stroke-width="3" stroke-dasharray="2 2"/>
<path d="M272.376 102.392L279.722 107.031L272.376 109.351H265.03L261.551 107.031L265.03 104.325L272.376 97.7527V102.392Z" stroke="#B2F2C5" stroke-opacity="0.48" stroke-width="3" stroke-dasharray="3 3"/>
<path d="M197.76 141.826L211.291 131.388L219.796 128.682L225.209 122.109L234.488 117.083H237.967V122.109H243.766L252.658 117.083L243.766 113.217L246.859 105.098H240.287L243.766 98.9124H254.592H263.097L271.603 94.6597L277.402 89.2471L271.603 87.314L267.35 81.1282L265.03 67.9834L254.592 73.7826L250.725 67.9834V63.7307L237.967 59.8645L231.395 63.7307L227.529 71.8495V77.2621L219.796 84.2211L213.224 87.314V92.34L207.425 96.9793L203.559 92.34L205.878 83.0613L197.76 81.1282L192.734 77.2621L185.001 71.8495L190.027 63.7307L200.466 59.8645L207.425 55.9984L216.317 53.2921L221.729 50.1992L231.395 53.2921L229.075 58.3181L219.796 55.9984L225.209 47.1063H234.488L240.287 42.8536V38.6008H234.488L225.209 42.8536L221.729 38.6008L219.796 32.415L213.224 35.1213V38.6008L207.425 42.8536V38.6008H203.559V42.8536H197.76L190.027 44.7866L185.001 42.8536L175.723 44.7866V47.1063L165.284 44.7866L154.459 38.6008H142.087H132.035L116.184 42.8536L105.359 38.6008L78.6829 35.1213H67.4711L52.3932 38.6008L47.3672 40.9205C44.9187 40.9205 40.4855 42.1577 42.3413 47.1063L36.1555 50.1992H28.4232C27.65 51.3591 27.1087 54.1427 31.1295 55.9984L25.3303 59.8645H18.3713L14.8918 66.0503L9.86583 67.9834L14.8918 71.8495L1.36035 83.0613L25.3303 73.7826L38.4752 67.9834H42.3413L54.7129 63.7307L65.538 67.9834L73.6569 73.7826L77.523 78.8086C76.2343 83.4479 73.6569 93.9638 73.6569 98.9124C80.6159 98.9124 85.2553 106.258 81.3891 107.804C78.2962 109.042 70.8217 117.856 67.4711 122.109L58.579 134.094L61.2853 154.198L67.4711 162.703V170.049L70.1774 180.874L73.6569 188.993L77.523 193.632V180.874L73.6569 173.529V167.729H77.523V176.622L83.7088 186.287L91.0545 197.885V206.777L108.065 217.602H123.53L129.329 224.561L139.381 228.428H143.247L146.727 235L153.686 243.892L163.351 248.918L170.697 243.892H163.351L155.619 235V220.309H146.727L143.247 217.602L146.727 204.844C148.144 202.782 149.046 199.277 141.314 201.751L135.902 209.097L127.009 212.19L120.824 206.777L116.571 197.885L120.824 183.581L123.53 176.622L135.902 170.049L146.727 173.529L155.619 167.729L161.418 170.049L168.377 173.529V183.581L170.697 186.287L175.723 183.581V176.622L172.63 167.729L179.975 162.703L186.161 157.678L195.826 154.198V145.693L197.76 141.826Z" stroke="#B2F2C5" stroke-opacity="0.48" stroke-width="3" stroke-dasharray="2 2"/>
<path d="M200.466 211.803H189.641L192.734 205.617H196.6L207.425 207.937L200.466 211.803Z" stroke="#B2F2C5" stroke-opacity="0.48" stroke-width="3" stroke-dasharray="2 2"/>
<path d="M173.789 194.406H161.031L164.511 197.112L171.083 200.592L176.882 204.844L188.867 202.911L185.001 200.592L173.789 194.406Z" stroke="#B2F2C5" stroke-opacity="0.48" stroke-width="3" stroke-dasharray="2 2"/>
<path d="M168.377 113.217H179.202L172.243 119.016L168.377 127.522L170.31 131.001L174.949 127.522L179.202 117.083H186.161V123.269L194.28 119.016V113.217H190.027L186.161 110.898L182.295 106.645H172.243L168.377 113.217Z" stroke="#B2F2C5" stroke-opacity="0.48" stroke-width="3" stroke-dasharray="2 2"/>
<path d="M236.034 21.9766L254.978 25.4561L259.231 21.9766H248.019L241.06 18.4971L236.034 21.9766Z" stroke="#B2F2C5" stroke-opacity="0.48" stroke-width="3" stroke-dasharray="2 2"/>
<path d="M256.911 6.89868L254.205 12.3113H248.792L243.38 10.3782L248.792 6.89868H256.911Z" stroke="#B2F2C5" stroke-opacity="0.48" stroke-width="3" stroke-dasharray="2 2"/>
<path d="M470.321 82.6747L473.8 76.1023L476.12 71.463L478.053 67.9835L473.8 63.3441V59.0914L481.919 56.3851L486.945 48.6528L492.358 52.9056L485.012 59.0914L486.945 66.0504H500.09L505.116 67.9835L500.09 71.463H492.358V76.1023H486.945V82.6747L481.919 86.1543H478.053L470.321 88.8605L466.455 86.1543H458.336L463.362 82.6747H470.321Z" stroke="#B2F2C5" stroke-opacity="0.48" stroke-width="3" stroke-dasharray="2 2"/>
<path d="M806.288 286.42L809.768 277.527C807.912 274.744 810.541 271.986 812.087 270.955C812.087 269.099 822.139 270.182 827.165 270.955C827.165 277.141 819.948 275.079 816.34 273.275L813.634 275.981L814.794 279.847H820.593L816.34 283.327L818.66 288.739L816.34 291.446L813.634 286.42L812.087 288.739V295.698L806.288 294.538V286.42Z" stroke="#B2F2C5" stroke-opacity="0.48" stroke-width="3" stroke-dasharray="2 2"/>
</svg>
