<svg width="81" height="81" viewBox="0 0 81 81" fill="none" xmlns="http://www.w3.org/2000/svg">
<path d="M0 20C0 8.95431 8.95431 0 20 0H40.5H61C72.0457 0 81 8.95431 81 20V40.5V61C81 72.0457 72.0457 81 61 81H40.5H20C8.95431 81 0 72.0457 0 61V40.5V20Z" fill="#2DAE7A"/>
<path d="M62.7031 61.9375H59.6406V44.3281C59.6406 44.1251 59.56 43.9303 59.4164 43.7867C59.2728 43.6432 59.0781 43.5625 58.875 43.5625H54.2812V32.0781C54.2812 31.8751 54.2006 31.6803 54.057 31.5367C53.9134 31.3932 53.7187 31.3125 53.5156 31.3125H51.2188C51.2188 31.2359 51.2188 31.1594 51.2188 31.0828C51.2188 31.0063 51.2188 30.8991 51.2188 30.8072C51.2188 30.7153 51.2188 30.5392 51.1728 30.4014C51.1728 30.4014 51.1728 30.4014 51.1728 30.3402C51.0102 29.597 50.769 28.8732 50.4531 28.1811C50.4531 28.1811 50.4531 28.1352 50.4531 28.1198C50.4334 28.0674 50.4103 28.0163 50.3842 27.9667C50.3645 27.9118 50.3415 27.8581 50.3153 27.8059C50.2005 27.538 50.078 27.2777 49.9402 27.0403L49.8942 26.9561C49.1585 25.5931 48.1339 24.4073 46.8921 23.4816C45.6503 22.5559 44.2213 21.9126 42.705 21.5967H42.5442C42.2762 21.5508 42.0083 21.5048 41.7786 21.4742H41.5259H41.2963V18.2969C41.2963 18.0938 41.2156 17.8991 41.072 17.7555C40.9284 17.6119 40.7337 17.5312 40.5306 17.5312C40.3276 17.5312 40.1328 17.6119 39.9892 17.7555C39.8457 17.8991 39.765 18.0938 39.765 18.2969V21.3977H39.5353H39.2827C39.0147 21.3977 38.7467 21.4742 38.4788 21.5202H38.318C36.8022 21.8375 35.3739 22.4814 34.1323 23.4069C32.8907 24.3325 31.8657 25.5175 31.1287 26.8795C31.126 26.905 31.126 26.9306 31.1287 26.9561C30.9833 27.2164 30.8608 27.4844 30.7383 27.7217C30.7383 27.7753 30.6923 27.8212 30.677 27.8672C30.6508 27.9193 30.6278 27.973 30.6081 28.028C30.6081 28.028 30.6081 28.0662 30.6081 28.0892C30.3368 28.7864 30.1392 29.51 30.0186 30.2483C30.0186 30.2483 30.0186 30.2866 30.0186 30.3095C30.0186 30.3325 30.0186 30.5698 29.9727 30.7C29.9267 30.8302 29.9727 30.8991 29.9727 30.9986C29.9727 31.0981 29.9727 31.1441 29.9727 31.2206H27.4844C27.2813 31.2206 27.0866 31.3013 26.943 31.4449C26.7994 31.5885 26.7188 31.7832 26.7188 31.9862V43.5625H22.8906C22.6876 43.5625 22.4928 43.6432 22.3492 43.7867C22.2057 43.9303 22.125 44.1251 22.125 44.3281V61.9375H18.8711C18.668 61.9375 18.4733 62.0182 18.3297 62.1617C18.1861 62.3053 18.1055 62.5001 18.1055 62.7031C18.1055 62.9062 18.1861 63.1009 18.3297 63.2445C18.4733 63.3881 18.668 63.4688 18.8711 63.4688H62.7031C62.9062 63.4688 63.1009 63.3881 63.2445 63.2445C63.3881 63.1009 63.4688 62.9062 63.4688 62.7031C63.4688 62.5001 63.3881 62.3053 63.2445 62.1617C63.1009 62.0182 62.9062 61.9375 62.7031 61.9375ZM42.0312 25.1186C42.0586 25.0214 42.1049 24.9305 42.1675 24.8513C42.2301 24.7721 42.3078 24.706 42.396 24.6569C42.4842 24.6078 42.5813 24.5766 42.6817 24.5652C42.782 24.5538 42.8836 24.5623 42.9806 24.5903C44.2848 24.9638 45.4322 25.7511 46.2498 26.8336C46.3725 26.9951 46.4261 27.1987 46.3988 27.3996C46.3715 27.6006 46.2656 27.7825 46.1044 27.9055C45.9718 28.0049 45.8107 28.0586 45.645 28.0586C45.5268 28.0595 45.41 28.033 45.3037 27.9812C45.1974 27.9294 45.1046 27.8537 45.0325 27.76C44.4121 26.9442 43.5447 26.3507 42.5595 26.068C42.4623 26.0406 42.3715 25.9943 42.2922 25.9317C42.213 25.8691 42.1469 25.7915 42.0978 25.7032C42.0487 25.615 42.0176 25.5179 42.0061 25.4176C41.9947 25.3172 42.0032 25.2156 42.0312 25.1186ZM38.2031 48.1562V61.9375H34.375V48.1562H38.2031ZM42.0312 35.1406V43.5625H38.9688V35.1406H42.0312ZM42.7969 48.1562H46.625V61.9375H42.7969V48.1562ZM46.625 43.5625V35.1406H49.6875V43.5625H46.625ZM31.3125 35.1406H34.375V43.5625H31.3125V35.1406ZM26.7188 48.1562H29.7812V61.9375H26.7188V48.1562ZM54.2277 61.9375H51.2188V48.1562H55.0469V61.9375H54.2277Z" fill="#F9F9FA"/>
</svg>
