<svg width="40" height="40" viewBox="0 0 40 40" fill="none" xmlns="http://www.w3.org/2000/svg">
<circle cx="20" cy="20" r="20" fill="#E34C26"/>
<g clip-path="url(#clip0)">
<path d="M10.6666 10.6667V10C10.5744 10 10.4831 10.0192 10.3987 10.0563C10.3142 10.0935 10.2384 10.1477 10.176 10.2156C10.1136 10.2835 10.066 10.3637 10.0361 10.4509C10.0063 10.5382 9.99485 10.6308 10.0026 10.7227L10.6666 10.6667ZM29.3333 10.6667L29.9973 10.7227C30.005 10.6308 29.9936 10.5382 29.9638 10.4509C29.9339 10.3637 29.8863 10.2835 29.8239 10.2156C29.7615 10.1477 29.6856 10.0935 29.6012 10.0563C29.5167 10.0192 29.4255 10 29.3333 10V10.6667ZM27.9999 26.6667L28.2106 27.2987C28.3344 27.2574 28.4433 27.1806 28.5239 27.078C28.6045 26.9754 28.6532 26.8514 28.6639 26.7213L27.9999 26.6667ZM19.9999 29.3333L19.7893 29.9653C19.926 30.011 20.0739 30.011 20.2106 29.9653L19.9999 29.3333ZM11.9999 26.6667L11.3359 26.7213C11.3467 26.8514 11.3954 26.9754 11.476 27.078C11.5566 27.1806 11.6655 27.2574 11.7893 27.2987L11.9999 26.6667ZM15.9999 14.6667V14H15.3333V14.6667H15.9999ZM15.9999 18.6667H15.3333V19.3333H15.9999V18.6667ZM23.9999 18.6667H24.6666V18H23.9999V18.6667ZM23.9999 22.6667L24.2106 23.2987L24.6666 23.1467V22.6667H23.9999ZM19.9999 24L19.7893 24.632L19.9999 24.7027L20.2106 24.632L19.9999 24ZM15.9999 22.6667H15.3333V23.1467L15.7893 23.2987L15.9999 22.6667ZM10.6666 11.3333H29.3333V10H10.6666V11.3333ZM28.6693 10.6107L27.3359 26.6107L28.6639 26.7213L29.9973 10.7213L28.6693 10.6107ZM27.7893 26.0347L19.7893 28.7013L20.2106 29.9653L28.2106 27.2987L27.7893 26.0347ZM20.2106 28.7013L12.2106 26.0347L11.7893 27.2987L19.7893 29.9653L20.2106 28.7013ZM12.6639 26.612L11.3306 10.612L10.0026 10.7227L11.3359 26.7227L12.6639 26.612ZM24.6666 14H15.9999V15.3333H24.6666V14ZM15.3333 14.6667V18.6667H16.6666V14.6667H15.3333ZM15.9999 19.3333H23.9999V18H15.9999V19.3333ZM23.3333 18.6667V22.6667H24.6666V18.6667H23.3333ZM23.7893 22.0347L19.7893 23.368L20.2106 24.632L24.2106 23.2987L23.7893 22.0347ZM20.2106 23.368L16.2106 22.0347L15.7893 23.2987L19.7893 24.632L20.2106 23.368ZM16.6666 22.6667V20.6667H15.3333V22.6667H16.6666Z" fill="white"/>
</g>
<defs>
<clipPath id="clip0">
<rect width="20" height="20" fill="white" transform="translate(10 10)"/>
</clipPath>
</defs>
</svg>
