<svg width="40" height="40" viewBox="0 0 40 40" fill="none" xmlns="http://www.w3.org/2000/svg">
<circle cx="20" cy="20" r="20" fill="#AE527E"/>
<path d="M20.9633 19.932L19.1398 22.257L18.1766 21.0289C18.159 21.0065 18.1366 20.9884 18.111 20.9759C18.0854 20.9634 18.0574 20.957 18.0289 20.957C18.0004 20.957 17.9724 20.9634 17.9468 20.9759C17.9212 20.9884 17.8988 21.0065 17.8813 21.0289L15.5422 24.0102C15.5205 24.0378 15.5071 24.071 15.5034 24.1059C15.4998 24.1408 15.506 24.176 15.5214 24.2075C15.5368 24.2391 15.5608 24.2657 15.5905 24.2842C15.6203 24.3028 15.6547 24.3126 15.6898 24.3125H24.3125C24.4695 24.3125 24.5562 24.132 24.4602 24.0102L21.2609 19.932C21.2432 19.9096 21.2205 19.8915 21.1948 19.879C21.169 19.8665 21.1407 19.86 21.1121 19.86C21.0835 19.86 21.0552 19.8665 21.0294 19.879C21.0037 19.8915 20.9811 19.9096 20.9633 19.932ZM16.4375 18.3594C16.4375 18.608 16.5363 18.8465 16.7121 19.0223C16.8879 19.1981 17.1264 19.2969 17.375 19.2969C17.6236 19.2969 17.8621 19.1981 18.0379 19.0223C18.2137 18.8465 18.3125 18.608 18.3125 18.3594C18.3125 18.1107 18.2137 17.8723 18.0379 17.6965C17.8621 17.5206 17.6236 17.4219 17.375 17.4219C17.1264 17.4219 16.8879 17.5206 16.7121 17.6965C16.5363 17.8723 16.4375 18.1107 16.4375 18.3594ZM28.0297 14.7641L22.9859 9.72031C22.8453 9.57969 22.6555 9.5 22.4562 9.5H12.5C12.0852 9.5 11.75 9.83516 11.75 10.25V29.75C11.75 30.1648 12.0852 30.5 12.5 30.5H27.5C27.9148 30.5 28.25 30.1648 28.25 29.75V15.2961C28.25 15.0969 28.1703 14.9047 28.0297 14.7641ZM26.5203 15.6406H22.1094V11.2297L26.5203 15.6406ZM26.5625 28.8125H13.4375V11.1875H20.5156V16.25C20.5156 16.5111 20.6193 16.7615 20.8039 16.9461C20.9885 17.1307 21.2389 17.2344 21.5 17.2344H26.5625V28.8125Z" fill="white"/>
</svg>
