<svg width="81" height="81" viewBox="0 0 81 81" fill="none" xmlns="http://www.w3.org/2000/svg">
<path d="M0 20C0 8.95431 8.95431 0 20 0H40.5H61C72.0457 0 81 8.95431 81 20V40.5V61C81 72.0457 72.0457 81 61 81H40.5H20C8.95431 81 0 72.0457 0 61V40.5V20Z" fill="#2DAE7A"/>
<path d="M56.964 27.1555C56.915 26.7472 56.5638 26.4451 56.1555 26.4451C54.9713 26.4451 53.8525 25.9305 53.0767 25.0485C52.309 24.1666 51.9497 22.9906 52.1048 21.8227C52.1375 21.594 52.064 21.3572 51.9088 21.1775C51.7536 20.9979 51.5332 20.8999 51.2963 20.8999H29.4913C29.2545 20.8999 29.034 20.9979 28.8788 21.1775C28.7237 21.3572 28.6502 21.594 28.6828 21.8227C28.838 22.9906 28.4786 24.1666 27.711 25.0485C26.9352 25.9305 25.8163 26.4451 24.6322 26.4451C24.2075 26.4451 23.8563 26.7717 23.8237 27.1882C22.4353 43.6686 29.0013 56.8822 40.1733 60.0672C40.2468 60.0917 40.3203 60.0999 40.3938 60.0999C40.4673 60.0999 40.5408 60.0917 40.6143 60.0672C52.6602 56.6291 59.071 43.7094 56.964 27.1555ZM40.708 54.8729C40.6131 54.9104 40.5119 54.9287 40.4114 54.9287C40.3061 54.9287 40.2016 54.9088 40.1027 54.8681C32.807 51.8862 28.3759 42.7162 28.5386 30.9368C28.5426 30.6425 28.7045 30.3737 28.9621 30.2326C29.8824 29.7261 30.7007 29.069 31.3937 28.2778C31.9265 27.6693 32.3755 26.9914 32.728 26.2617C32.8644 25.9793 33.1499 25.7999 33.4633 25.7999H47.3243C47.6378 25.7999 47.9233 25.9793 48.0596 26.2617C48.4121 26.9914 48.8612 27.6693 49.3939 28.2778C50.1212 29.108 50.985 29.7907 51.9619 30.3051C52.2155 30.4391 52.3806 30.6967 52.3958 30.983C53.0458 42.8311 48.6769 51.7618 40.708 54.8729Z" fill="#F9F9FA"/>
<path d="M48.1657 29.3543C47.6497 28.765 47.1999 28.1206 46.8259 27.4331H33.9618C33.5878 28.1206 33.138 28.765 32.622 29.3543C31.9098 30.167 31.0859 30.8601 30.168 31.4207C30.1321 42.1227 34.0304 50.4138 40.4194 53.2283C47.4073 50.3157 51.2601 42.2503 50.7872 31.5204C49.8015 30.9438 48.921 30.2165 48.1657 29.3543ZM40.3939 37.2331C42.1955 37.2331 43.6605 38.6982 43.6605 40.4998C43.6605 42.0177 42.6156 43.2854 41.2105 43.6505V44.5831H39.5772V43.6505C38.1721 43.2854 37.1272 42.0177 37.1272 40.4998H38.7605C38.7605 41.4002 39.4934 42.1331 40.3939 42.1331C41.2943 42.1331 42.0272 41.4002 42.0272 40.4998C42.0272 39.5994 41.2943 38.8664 40.3939 38.8664C38.5922 38.8664 37.1272 37.4014 37.1272 35.5998C37.1272 34.0818 38.1721 32.8142 39.5772 32.449V31.5164H41.2105V32.449C42.6156 32.8142 43.6605 34.0818 43.6605 35.5998H42.0272C42.0272 34.6994 41.2943 33.9664 40.3939 33.9664C39.4934 33.9664 38.7605 34.6994 38.7605 35.5998C38.7605 36.5002 39.4934 37.2331 40.3939 37.2331Z" fill="#F9F9FA"/>
</svg>
