<svg width="40" height="40" viewBox="0 0 40 40" fill="none" xmlns="http://www.w3.org/2000/svg">
<circle cx="20" cy="20" r="20" fill="#4F4F4F"/>
<path d="M18.6666 18.6667V18H17.9999V18.6667H18.6666ZM23.9999 24H23.3333V24.6667H23.9999V24ZM26.6666 24V24.6667H27.3333V24H26.6666ZM27.9999 14.6667H28.6666V14.3907L28.4719 14.1947L27.9999 14.6667ZM23.9999 10.6667L24.4719 10.1947L24.2759 10H23.9999V10.6667ZM15.9999 18.6667H16.6666V18H15.9999V18.6667ZM15.9999 24V24.6667H16.6666V24H15.9999ZM13.3333 24H12.6666V24.6667H13.3333V24ZM18.6666 19.3333H19.9999V18H18.6666V19.3333ZM19.3333 24.6667V21.3333H17.9999V24.6667H19.3333ZM19.3333 21.3333V18.6667H17.9999V21.3333H19.3333ZM19.9999 20.6667H18.6666V22H19.9999V20.6667ZM20.6666 20C20.6666 20.1768 20.5963 20.3464 20.4713 20.4714C20.3463 20.5964 20.1767 20.6667 19.9999 20.6667V22C20.5304 22 21.0391 21.7893 21.4141 21.4142C21.7892 21.0391 21.9999 20.5304 21.9999 20H20.6666ZM19.9999 19.3333C20.1767 19.3333 20.3463 19.4036 20.4713 19.5286C20.5963 19.6536 20.6666 19.8232 20.6666 20H21.9999C21.9999 19.4696 21.7892 18.9609 21.4141 18.5858C21.0391 18.2107 20.5304 18 19.9999 18V19.3333ZM23.3333 18V24H24.6666V18H23.3333ZM23.9999 24.6667H26.6666V23.3333H23.9999V24.6667ZM27.3333 24V21.3333H25.9999V24H27.3333ZM23.9999 19.3333H27.3333V18H23.9999V19.3333ZM12.6666 16.6667V12H11.3333V16.6667H12.6666ZM27.3333 14.6667V16.6667H28.6666V14.6667H27.3333ZM13.3333 11.3333H23.9999V10H13.3333V11.3333ZM23.5279 11.1387L27.5279 15.1387L28.4719 14.1947L24.4719 10.1947L23.5279 11.1387ZM12.6666 12C12.6666 11.8232 12.7368 11.6536 12.8618 11.5286C12.9869 11.4036 13.1564 11.3333 13.3333 11.3333V10C12.8028 10 12.2941 10.2107 11.919 10.5858C11.544 10.9609 11.3333 11.4696 11.3333 12H12.6666ZM11.3333 26V28H12.6666V26H11.3333ZM13.3333 30H26.6666V28.6667H13.3333V30ZM28.6666 28V26H27.3333V28H28.6666ZM26.6666 30C27.197 30 27.7057 29.7893 28.0808 29.4142C28.4559 29.0391 28.6666 28.5304 28.6666 28H27.3333C27.3333 28.1768 27.263 28.3464 27.138 28.4714C27.013 28.5964 26.8434 28.6667 26.6666 28.6667V30ZM11.3333 28C11.3333 28.5304 11.544 29.0391 11.919 29.4142C12.2941 29.7893 12.8028 30 13.3333 30V28.6667C13.1564 28.6667 12.9869 28.5964 12.8618 28.4714C12.7368 28.3464 12.6666 28.1768 12.6666 28H11.3333ZM12.6666 19.3333H15.9999V18H12.6666V19.3333ZM15.3333 18.6667V24H16.6666V18.6667H15.3333ZM15.9999 23.3333H13.3333V24.6667H15.9999V23.3333ZM13.9999 24V22H12.6666V24H13.9999Z" fill="white"/>
</svg>
