<svg width="81" height="81" viewBox="0 0 81 81" fill="none" xmlns="http://www.w3.org/2000/svg">
<path d="M0 20C0 8.95431 8.95431 0 20 0H40.5H61C72.0457 0 81 8.95431 81 20V40.5V61C81 72.0457 72.0457 81 61 81H40.5H20C8.95431 81 0 72.0457 0 61V40.5V20Z" fill="#2DAE7A"/>
<path d="M30.1717 36.7482C29.8869 36.4638 29.661 36.126 29.5069 35.7543C29.3528 35.3825 29.2735 34.984 29.2735 34.5815C29.2735 34.179 29.3528 33.7805 29.5069 33.4087C29.661 33.037 29.8869 32.6992 30.1717 32.4148L39.9181 22.676C40.3459 22.2477 40.8911 21.9558 41.4848 21.8372C42.0785 21.7186 42.694 21.7786 43.2535 22.0096C43.8131 22.2407 44.2917 22.6324 44.6287 23.1353C44.9658 23.6382 45.1462 24.2297 45.1473 24.8351C45.1465 25.1383 45.1026 25.4399 45.0171 25.7309C45.0171 25.8074 44.9635 25.884 44.9329 25.9682C44.7781 26.3467 44.549 26.6903 44.2592 26.9788L34.5051 36.7482C34.2207 37.033 33.8829 37.2588 33.5111 37.413C33.1394 37.5671 32.7408 37.6464 32.3384 37.6464C31.9359 37.6464 31.5374 37.5671 31.1656 37.413C30.7938 37.2588 30.4561 37.033 30.1717 36.7482ZM40.1324 43.0263L22.1249 61.0109C21.9108 61.2237 21.6386 61.3685 21.3424 61.4271C21.0462 61.4856 20.7393 61.4553 20.4603 61.34C20.1813 61.2246 19.9426 61.0293 19.7743 60.7787C19.6059 60.5281 19.5154 60.2333 19.5142 59.9313C19.5279 59.5306 19.6984 59.1512 19.9888 58.8748L37.9887 40.852C38.818 41.4539 39.5423 42.1886 40.1324 43.0263ZM43.172 45.4074L43.0648 45.5223C42.5267 43.7289 41.5528 42.0967 40.2302 40.7715C38.9076 39.4462 37.2774 38.469 35.4851 37.9273L35.5923 37.8277L45.331 28.089C45.4076 28.0124 45.4842 27.9282 45.5531 27.844C46.0687 29.6534 47.0375 31.3014 48.3679 32.6318C49.6983 33.9622 51.3463 34.931 53.1557 35.4467L52.9107 35.6687L43.172 45.4074ZM59.2271 38.9149C59.2264 39.3178 59.1463 39.7165 58.9913 40.0883C58.8362 40.4601 58.6094 40.7977 58.3237 41.0817L48.5849 50.8281C48.3005 51.1128 47.9628 51.3387 47.591 51.4928C47.2192 51.6469 46.8207 51.7263 46.4182 51.7263C46.0158 51.7263 45.6172 51.6469 45.2455 51.4928C44.8737 51.3387 44.5359 51.1128 44.2515 50.8281C43.9672 50.5434 43.7418 50.2056 43.5881 49.8338C43.4344 49.462 43.3554 49.0636 43.3557 48.6613C43.3556 48.3362 43.4073 48.0132 43.5088 47.7043C43.5258 47.6445 43.5463 47.5857 43.5701 47.5282C43.7191 47.1381 43.9517 46.7853 44.2515 46.4946L53.9979 36.7482C54.2958 36.4518 54.6534 36.2221 55.0468 36.0745C55.1133 36.0447 55.1825 36.0216 55.2535 36.0056C55.555 35.907 55.8704 35.8579 56.1876 35.8601C56.9998 35.8601 57.7788 36.1827 58.3531 36.7571C58.9274 37.3314 59.2501 38.1104 59.2501 38.9226L59.2271 38.9149ZM60.4062 58.1092H42.0312C41.422 58.1092 40.8378 58.3511 40.4071 58.7819C39.9763 59.2126 39.7343 59.7969 39.7343 60.406C39.7343 61.0152 39.9763 61.5994 40.4071 62.0302C40.8378 62.4609 41.422 62.7029 42.0312 62.7029H60.4062C61.0154 62.7029 61.5996 62.4609 62.0303 62.0302C62.4611 61.5994 62.7031 61.0152 62.7031 60.406C62.7031 59.7969 62.4611 59.2126 62.0303 58.7819C61.5996 58.3511 61.0154 58.1092 60.4062 58.1092Z" fill="#F9F9FA"/>
</svg>
