<svg width="40" height="40" viewBox="0 0 40 40" fill="none" xmlns="http://www.w3.org/2000/svg">
<circle cx="20" cy="20" r="20" fill="#5E1D21"/>
<path d="M25.8333 18.333H14.1667C13.2462 18.333 12.5 19.0792 12.5 19.9997V26.6663C12.5 27.5868 13.2462 28.333 14.1667 28.333H25.8333C26.7538 28.333 27.5 27.5868 27.5 26.6663V19.9997C27.5 19.0792 26.7538 18.333 25.8333 18.333Z" stroke="white" stroke-width="2" stroke-linecap="round" stroke-linejoin="round"/>
<path d="M15 15C15 14.337 15.2634 13.7011 15.7322 13.2322C16.2011 12.7634 16.837 12.5 17.5 12.5H22.5C23.163 12.5 23.7989 12.7634 24.2678 13.2322C24.7366 13.7011 25 14.337 25 15V18.3333H15V15Z" stroke="white" stroke-width="2" stroke-linecap="round" stroke-linejoin="round"/>
</svg>
