<svg width="81" height="81" viewBox="0 0 81 81" fill="none" xmlns="http://www.w3.org/2000/svg">
<path d="M0 20C0 8.95431 8.95431 0 20 0H40.5H61C72.0457 0 81 8.95431 81 20V40.5V61C81 72.0457 72.0457 81 61 81H40.5H20C8.95431 81 0 72.0457 0 61V40.5V20Z" fill="#2DAE7A"/>
<path d="M58.8751 55.8125H50.637C54.3117 53.3749 56.9873 49.6971 58.1754 45.4505C59.3634 41.2038 58.9846 36.6715 57.1082 32.681C55.2318 28.6904 51.9828 25.5078 47.9544 23.714C43.926 21.9202 39.3869 21.6349 35.1656 22.9102C30.9444 24.1855 27.3225 26.9364 24.9612 30.6606C22.5999 34.3848 21.6566 38.834 22.3036 43.196C22.9506 47.558 25.1447 51.5418 28.4853 54.4203C31.826 57.2988 36.0904 58.8799 40.5001 58.875H58.8751C59.2812 58.875 59.6707 58.7137 59.9579 58.4265C60.245 58.1393 60.4063 57.7499 60.4063 57.3437C60.4063 56.9376 60.245 56.5482 59.9579 56.261C59.6707 55.9738 59.2812 55.8125 58.8751 55.8125ZM49.6876 35.9062C50.5962 35.9062 51.4843 36.1757 52.2397 36.6804C52.9952 37.1852 53.584 37.9026 53.9317 38.742C54.2794 39.5814 54.3703 40.5051 54.1931 41.3962C54.0158 42.2873 53.5783 43.1058 52.9359 43.7483C52.2934 44.3907 51.4749 44.8282 50.5838 45.0055C49.6927 45.1827 48.769 45.0918 47.9296 44.7441C47.0902 44.3964 46.3728 43.8076 45.868 43.0521C45.3633 42.2967 45.0938 41.4086 45.0938 40.5C45.0938 39.2817 45.5778 38.1132 46.4393 37.2517C47.3008 36.3902 48.4693 35.9062 49.6876 35.9062ZM40.5001 26.7187C41.4086 26.7187 42.2968 26.9882 43.0522 27.4929C43.8077 27.9977 44.3965 28.7151 44.7442 29.5545C45.0919 30.3939 45.1828 31.3176 45.0056 32.2087C44.8283 33.0998 44.3908 33.9183 43.7484 34.5608C43.1059 35.2032 42.2874 35.6407 41.3963 35.818C40.5052 35.9952 39.5815 35.9043 38.7421 35.5566C37.9027 35.2089 37.1853 34.6201 36.6805 33.8646C36.1758 33.1092 35.9063 32.2211 35.9063 31.3125C35.9063 30.0942 36.3903 28.9257 37.2518 28.0642C38.1133 27.2027 39.2818 26.7187 40.5001 26.7187ZM43.5626 40.5C43.5626 41.1057 43.383 41.6978 43.0465 42.2014C42.71 42.7051 42.2317 43.0976 41.6721 43.3294C41.1125 43.5612 40.4967 43.6218 39.9026 43.5037C39.3086 43.3855 38.7629 43.0938 38.3346 42.6655C37.9063 42.2372 37.6146 41.6915 37.4964 41.0975C37.3783 40.5034 37.4389 39.8876 37.6707 39.328C37.9025 38.7684 38.295 38.2901 38.7987 37.9536C39.3023 37.6171 39.8944 37.4375 40.5001 37.4375C41.3123 37.4375 42.0913 37.7602 42.6656 38.3345C43.2399 38.9088 43.5626 39.6878 43.5626 40.5ZM31.3126 45.0937C30.404 45.0937 29.5159 44.8243 28.7604 44.3196C28.005 43.8148 27.4162 43.0973 27.0685 42.2579C26.7208 41.4186 26.6299 40.4949 26.8071 39.6038C26.9844 38.7127 27.4219 37.8942 28.0643 37.2517C28.7068 36.6093 29.5253 36.1718 30.4164 35.9945C31.3075 35.8173 32.2311 35.9082 33.0705 36.2559C33.9099 36.6036 34.6274 37.1924 35.1322 37.9478C35.6369 38.7033 35.9063 39.5914 35.9063 40.5C35.9063 41.7183 35.4224 42.8868 34.5609 43.7483C33.6994 44.6098 32.5309 45.0937 31.3126 45.0937ZM35.9063 49.6875C35.9063 48.7789 36.1758 47.8908 36.6805 47.1353C37.1853 46.3799 37.9027 45.7911 38.7421 45.4434C39.5815 45.0957 40.5052 45.0048 41.3963 45.182C42.2874 45.3593 43.1059 45.7968 43.7484 46.4392C44.3908 47.0817 44.8283 47.9002 45.0056 48.7913C45.1828 49.6824 45.0919 50.6061 44.7442 51.4454C44.3965 52.2848 43.8077 53.0023 43.0522 53.5071C42.2968 54.0118 41.4086 54.2812 40.5001 54.2812C39.2818 54.2812 38.1133 53.7973 37.2518 52.9358C36.3903 52.0743 35.9063 50.9058 35.9063 49.6875Z" fill="#F9F9FA"/>
</svg>
