<svg width="40" height="40" viewBox="0 0 40 40" fill="none" xmlns="http://www.w3.org/2000/svg">
<circle cx="20" cy="20" r="20" fill="#F2994A"/>
<path d="M19.3016 19.9156L15.7648 17.1172C15.6945 17.0609 15.5938 17.1125 15.5938 17.2016V19.2031H12.3125V12.3125H17.0938V15.3125C17.0938 15.3641 17.1359 15.4062 17.1875 15.4062H18.5938C18.6453 15.4062 18.6875 15.3641 18.6875 15.3125V11.375C18.6875 11.0117 18.3945 10.7188 18.0312 10.7188H11.375C11.0117 10.7188 10.7188 11.0117 10.7188 11.375V28.625C10.7188 28.9883 11.0117 29.2812 11.375 29.2812H18.0312C18.3945 29.2812 18.6875 28.9883 18.6875 28.625V24.6875C18.6875 24.6359 18.6453 24.5938 18.5938 24.5938H17.1875C17.1359 24.5938 17.0938 24.6359 17.0938 24.6875V27.6875H12.3125V20.7969H15.5938V22.7984C15.5938 22.8875 15.6969 22.9391 15.7648 22.8828L19.3016 20.0844C19.3578 20.0422 19.3578 19.9578 19.3016 19.9156ZM28.625 10.7188H21.9688C21.6055 10.7188 21.3125 11.0117 21.3125 11.375V15.3125C21.3125 15.3641 21.3547 15.4062 21.4062 15.4062H22.8125C22.8641 15.4062 22.9062 15.3641 22.9062 15.3125V12.3125H27.6875V19.2031H24.4062V17.2016C24.4062 17.1125 24.3055 17.0609 24.2352 17.1172L20.6961 19.9156C20.6422 19.9578 20.6422 20.0398 20.6961 20.082L24.2352 22.8828C24.3031 22.9367 24.4062 22.8875 24.4062 22.7984V20.7969H27.6875V27.6875H22.9062V24.6875C22.9062 24.6359 22.8641 24.5938 22.8125 24.5938H21.4062C21.3547 24.5938 21.3125 24.6359 21.3125 24.6875V28.625C21.3125 28.9883 21.6055 29.2812 21.9688 29.2812H28.625C28.9883 29.2812 29.2812 28.9883 29.2812 28.625V11.375C29.2812 11.0117 28.9883 10.7188 28.625 10.7188Z" fill="white"/>
</svg>
