<svg width="40" height="40" viewBox="0 0 40 40" fill="none" xmlns="http://www.w3.org/2000/svg">
<circle cx="20" cy="20" r="20" fill="#9B0070"/>
<path d="M24.5 27.5H20V23H23V21.5H20V20H24.5V24.5H21.5V26H24.5V27.5Z" fill="white"/>
<path d="M27.275 14.9753L22.025 9.72526C21.959 9.65198 21.8779 9.59391 21.7872 9.55506C21.6966 9.51621 21.5986 9.49752 21.5 9.50026H14C13.6025 9.50145 13.2217 9.65987 12.9407 9.94092C12.6596 10.222 12.5012 10.6028 12.5 11.0003V29.0003C12.5012 29.3977 12.6596 29.7786 12.9407 30.0596C13.2217 30.3407 13.6025 30.4991 14 30.5003H26C26.3975 30.4991 26.7783 30.3407 27.0594 30.0596C27.3404 29.7786 27.4988 29.3977 27.5 29.0003V15.5003C27.5027 15.4017 27.4841 15.3037 27.4452 15.213C27.4064 15.1224 27.3483 15.0413 27.275 14.9753ZM21.5 11.3003L25.7 15.5003H21.5V11.3003ZM26 29.0003H14V11.0003H20V15.5003C20.0012 15.8977 20.1596 16.2786 20.4407 16.5596C20.7217 16.8407 21.1025 16.9991 21.5 17.0003H26V29.0003Z" fill="white"/>
</svg>
