<svg width="40" height="40" viewBox="0 0 40 40" fill="none" xmlns="http://www.w3.org/2000/svg">
<circle cx="20" cy="20" r="20" fill="#6FBFCE"/>
<path d="M14.25 11C13.6533 11 13.081 11.2371 12.659 11.659C12.2371 12.081 12 12.6533 12 13.25V15.75C12 16.0455 12.0582 16.3381 12.1713 16.611C12.2843 16.884 12.4501 17.1321 12.659 17.341C13.081 17.7629 13.6533 18 14.25 18H23.75C24.0455 18 24.3381 17.9418 24.611 17.8287C24.884 17.7157 25.1321 17.5499 25.341 17.341C25.5499 17.1321 25.7157 16.884 25.8287 16.611C25.9418 16.3381 26 16.0455 26 15.75V13.25C26 12.6533 25.7629 12.081 25.341 11.659C24.919 11.2371 24.3467 11 23.75 11H14.25ZM13.5 13.25C13.5 13.0511 13.579 12.8603 13.7197 12.7197C13.8603 12.579 14.0511 12.5 14.25 12.5H23.75C23.9489 12.5 24.1397 12.579 24.2803 12.7197C24.421 12.8603 24.5 13.0511 24.5 13.25V15.75C24.5 15.9489 24.421 16.1397 24.2803 16.2803C24.1397 16.421 23.9489 16.5 23.75 16.5H14.25C14.0511 16.5 13.8603 16.421 13.7197 16.2803C13.579 16.1397 13.5 15.9489 13.5 15.75V13.25Z" fill="white"/>
<path d="M16.7 24C16.313 24 16 24.336 16 24.75C16 25.164 16.313 25.5 16.7 25.5H21.3C21.687 25.5 22 25.164 22 24.75C22 24.336 21.687 24 21.3 24H16.7Z" fill="white"/>
<path d="M25.353 24.4448L25.28 24.5288C25.153 24.6558 24.9846 24.733 24.8055 24.7464C24.6264 24.7598 24.4484 24.7085 24.304 24.6018L24.22 24.5288L22.22 22.5288C22.093 22.4018 22.0157 22.2334 22.0023 22.0543C21.9889 21.8752 22.0403 21.6972 22.147 21.5528L22.22 21.4688L24.22 19.4688C24.354 19.3358 24.5332 19.2583 24.7218 19.2516C24.9105 19.245 25.0947 19.3097 25.2377 19.4329C25.3807 19.5561 25.4721 19.7287 25.4934 19.9163C25.5148 20.1038 25.4646 20.2926 25.353 20.4448L25.28 20.5288L24.561 21.2498H26.061C26.3703 21.2497 26.6685 21.1349 26.8981 20.9277C27.1277 20.7204 27.2723 20.4354 27.304 20.1278L27.311 19.9998V17.7498C27.311 17.5597 27.3832 17.3768 27.5129 17.238C27.6427 17.0991 27.8203 17.0147 28.0099 17.0017C28.1994 16.9888 28.3869 17.0483 28.5343 17.1682C28.6817 17.2881 28.7781 17.4595 28.804 17.6478L28.811 17.7498V19.9998C28.811 20.7002 28.5437 21.3743 28.0637 21.8844C27.5837 22.3945 26.9271 22.7022 26.228 22.7448L26.061 22.7498H24.562L25.28 23.4688C25.407 23.5958 25.4842 23.7641 25.4976 23.9432C25.511 24.1223 25.4597 24.3003 25.353 24.4448Z" fill="white"/>
<path d="M26 27.25V25.224L25.987 25.236C25.582 25.642 25.027 25.806 24.5 25.731V27.25C24.5 27.4489 24.421 27.6397 24.2803 27.7803C24.1397 27.921 23.9489 28 23.75 28H14.25C14.0511 28 13.8603 27.921 13.7197 27.7803C13.579 27.6397 13.5 27.4489 13.5 27.25V22.25C13.5 22.0511 13.579 21.8603 13.7197 21.7197C13.8603 21.579 14.0511 21.5 14.25 21.5H21.072C21.13 21.308 21.22 21.124 21.344 20.957L21.366 20.927L21.486 20.787L22.274 20H14.25C13.6533 20 13.081 20.2371 12.659 20.659C12.2371 21.081 12 21.6533 12 22.25V27.25C12 27.8467 12.2371 28.419 12.659 28.841C13.081 29.2629 13.6533 29.5 14.25 29.5H23.75C24.3467 29.5 24.919 29.2629 25.341 28.841C25.7629 28.419 26 27.8467 26 27.25Z" fill="white"/>
</svg>
