<svg width="639" height="967" viewBox="0 0 639 967" fill="none" xmlns="http://www.w3.org/2000/svg">
<mask id="path-1-inside-1" fill="white">
<path d="M601.489 130.787C663.43 156.585 717.302 198.552 757.472 252.297C797.642 306.043 822.635 369.594 829.837 436.305C837.038 503.016 826.184 570.437 798.41 631.518C770.636 692.598 726.961 745.095 671.953 783.518C616.945 821.941 552.624 844.88 485.716 849.935C418.808 854.991 351.77 841.977 291.613 812.256C231.456 782.534 180.389 737.196 143.753 680.982C107.116 624.768 86.2547 559.744 83.3507 492.708L457.5 476.5L601.489 130.787Z"/>
</mask>
<path d="M601.489 130.787C663.43 156.585 717.302 198.552 757.472 252.297C797.642 306.043 822.635 369.594 829.837 436.305C837.038 503.016 826.184 570.437 798.41 631.518C770.636 692.598 726.961 745.095 671.953 783.518C616.945 821.941 552.624 844.88 485.716 849.935C418.808 854.991 351.77 841.977 291.613 812.256C231.456 782.534 180.389 737.196 143.753 680.982C107.116 624.768 86.2547 559.744 83.3507 492.708L457.5 476.5L601.489 130.787Z" stroke="#2DAE7A" stroke-width="60" mask="url(#path-1-inside-1)"/>
</svg>
