<svg width="40" height="40" viewBox="0 0 40 40" fill="none" xmlns="http://www.w3.org/2000/svg">
<circle cx="20" cy="20" r="20" fill="#124E86"/>
<path d="M12.3333 18.6667V18H11.6666V18.6667H12.3333ZM22.9999 24H22.3333V24.6667H22.9999V24ZM25.6666 24V24.6667H26.3333V24H25.6666ZM26.9999 14.6667H27.6666V14.3907L27.4719 14.1947L26.9999 14.6667ZM22.9999 10.6667L23.4719 10.1947L23.2759 10H22.9999V10.6667ZM17.6666 18.6667L18.2626 18.368L16.9999 18.6667H17.6666ZM16.9999 24V24.6667H18.3333V24H16.9999ZM20.3333 24L19.7373 24.2987C19.8045 24.4329 19.9151 24.5405 20.0511 24.604C20.1871 24.6675 20.3406 24.6833 20.4867 24.6487C20.6328 24.6142 20.7629 24.5313 20.8561 24.4136C20.9492 24.2958 20.9999 24.1501 20.9999 24H20.3333ZM20.9999 18.6667V18H19.6666V18.6667H20.9999ZM12.3333 19.3333H13.6666V18H12.3333V19.3333ZM12.9999 24.6667V21.3333H11.6666V24.6667H12.9999ZM12.9999 21.3333V18.6667H11.6666V21.3333H12.9999ZM13.6666 20.6667H12.3333V22H13.6666V20.6667ZM14.3333 20C14.3333 20.1768 14.263 20.3464 14.138 20.4714C14.013 20.5964 13.8434 20.6667 13.6666 20.6667V22C14.197 22 14.7057 21.7893 15.0808 21.4142C15.4559 21.0391 15.6666 20.5304 15.6666 20H14.3333ZM13.6666 19.3333C13.8434 19.3333 14.013 19.4036 14.138 19.5286C14.263 19.6536 14.3333 19.8232 14.3333 20H15.6666C15.6666 19.4696 15.4559 18.9609 15.0808 18.5858C14.7057 18.2107 14.197 18 13.6666 18V19.3333ZM22.3333 18V24H23.6666V18H22.3333ZM22.9999 24.6667H25.6666V23.3333H22.9999V24.6667ZM26.3333 24V21.3333H24.9999V24H26.3333ZM22.9999 19.3333H26.3333V18H22.9999V19.3333ZM11.6666 16.6667V12H10.3333V16.6667H11.6666ZM26.3333 14.6667V16.6667H27.6666V14.6667H26.3333ZM12.3333 11.3333H22.9999V10H12.3333V11.3333ZM22.5279 11.1387L26.5279 15.1387L27.4719 14.1947L23.4719 10.1947L22.5279 11.1387ZM11.6666 12C11.6666 11.8232 11.7368 11.6536 11.8618 11.5286C11.9869 11.4036 12.1564 11.3333 12.3333 11.3333V10C11.8028 10 11.2941 10.2107 10.919 10.5858C10.544 10.9609 10.3333 11.4696 10.3333 12H11.6666ZM10.3333 26V28H11.6666V26H10.3333ZM12.3333 30H25.6666V28.6667H12.3333V30ZM27.6666 28V26H26.3333V28H27.6666ZM25.6666 30C26.197 30 26.7057 29.7893 27.0808 29.4142C27.4559 29.0391 27.6666 28.5304 27.6666 28H26.3333C26.3333 28.1768 26.263 28.3464 26.138 28.4714C26.013 28.5964 25.8434 28.6667 25.6666 28.6667V30ZM10.3333 28C10.3333 28.5304 10.544 29.0391 10.919 29.4142C11.2941 29.7893 11.8028 30 12.3333 30V28.6667C12.1564 28.6667 11.9869 28.5964 11.8618 28.4714C11.7368 28.3464 11.6666 28.1768 11.6666 28H10.3333ZM16.9999 18.6667V24H18.3333V18.6667H16.9999ZM17.0706 18.9653L19.7373 24.2987L20.9293 23.7013L18.2626 18.368L17.0706 18.9653ZM19.6666 18.6667V24H20.9999V18.6667H19.6666Z" fill="white"/>
</svg>
