<svg width="40" height="40" viewBox="0 0 40 40" fill="none" xmlns="http://www.w3.org/2000/svg">
<circle cx="20" cy="20" r="20" fill="#CC4C33"/>
<g clip-path="url(#clip0)">
<path d="M29.1146 12.9479C29.3576 13.191 29.566 13.5208 29.7396 13.9375C29.9132 14.3542 30 14.7361 30 15.0833V30.0833C30 30.4306 29.8785 30.7257 29.6354 30.9688C29.3924 31.2118 29.0972 31.3333 28.75 31.3333H11.25C10.9028 31.3333 10.6076 31.2118 10.3646 30.9688C10.1215 30.7257 10 30.4306 10 30.0833V9.25C10 8.90278 10.1215 8.60764 10.3646 8.36458C10.6076 8.12153 10.9028 8 11.25 8H22.9167C23.2639 8 23.6458 8.08681 24.0625 8.26042C24.4792 8.43403 24.809 8.64236 25.0521 8.88542L29.1146 12.9479ZM23.3333 9.77083V14.6667H28.2292C28.1424 14.4149 28.0469 14.237 27.9427 14.1328L23.8672 10.0573C23.763 9.95313 23.5851 9.85764 23.3333 9.77083ZM28.3333 29.6667V16.3333H22.9167C22.5694 16.3333 22.2743 16.2118 22.0312 15.9688C21.7882 15.7257 21.6667 15.4306 21.6667 15.0833V9.66667H11.6667V29.6667H28.3333ZM15.4167 26.6198V28H19.6745V26.6198H18.4635V24.4453H20.2474C20.9071 24.4453 21.4193 24.3802 21.7839 24.25C22.3655 24.0503 22.8277 23.6727 23.1706 23.1172C23.5135 22.5616 23.6849 21.928 23.6849 21.2161C23.6849 20.513 23.5243 19.901 23.2031 19.3802C22.8819 18.8594 22.4479 18.4818 21.901 18.2474C21.4844 18.0825 20.9201 18 20.2083 18H15.4167V19.3932H16.6146V26.6198H15.4167ZM20.013 22.974H18.4635V19.4844H20.026C20.4774 19.4844 20.8377 19.5625 21.1068 19.7188C21.5929 20.0052 21.8359 20.5043 21.8359 21.2161C21.8359 21.9887 21.5668 22.5096 21.0286 22.7786C20.7595 22.9089 20.421 22.974 20.013 22.974Z" fill="white"/>
</g>
<defs>
<clipPath id="clip0">
<rect width="20" height="23.3333" fill="white" transform="translate(10 8)"/>
</clipPath>
</defs>
</svg>
