<svg width="81" height="81" viewBox="0 0 81 81" fill="none" xmlns="http://www.w3.org/2000/svg">
<path d="M0 20C0 8.95431 8.95431 0 20 0H40.5H61C72.0457 0 81 8.95431 81 20V40.5V61C81 72.0457 72.0457 81 61 81H40.5H20C8.95431 81 0 72.0457 0 61V40.5V20Z" fill="#2DAE7A"/>
<path d="M58.875 57.3438H55.8125V22.125C55.8125 21.7189 55.6512 21.3294 55.364 21.0422C55.0768 20.7551 54.6874 20.5938 54.2812 20.5938H26.7188C26.3126 20.5938 25.9232 20.7551 25.636 21.0422C25.3488 21.3294 25.1875 21.7189 25.1875 22.125V57.3438H22.125C21.7189 57.3438 21.3294 57.5051 21.0422 57.7922C20.7551 58.0794 20.5938 58.4689 20.5938 58.875C20.5938 59.2811 20.7551 59.6706 21.0422 59.9578C21.3294 60.2449 21.7189 60.4062 22.125 60.4062H58.875C59.2811 60.4062 59.6706 60.2449 59.9578 59.9578C60.2449 59.6706 60.4062 59.2811 60.4062 58.875C60.4062 58.4689 60.2449 58.0794 59.9578 57.7922C59.6706 57.5051 59.2811 57.3438 58.875 57.3438ZM37.4375 52.75H31.3125C30.9064 52.75 30.5169 52.5887 30.2297 52.3015C29.9426 52.0143 29.7812 51.6249 29.7812 51.2188C29.7812 50.8126 29.9426 50.4232 30.2297 50.136C30.5169 49.8488 30.9064 49.6875 31.3125 49.6875H37.4375C37.8436 49.6875 38.2331 49.8488 38.5203 50.136C38.8074 50.4232 38.9688 50.8126 38.9688 51.2188C38.9688 51.6249 38.8074 52.0143 38.5203 52.3015C38.2331 52.5887 37.8436 52.75 37.4375 52.75ZM37.4375 45.0938H31.3125C30.9064 45.0938 30.5169 44.9324 30.2297 44.6453C29.9426 44.3581 29.7812 43.9686 29.7812 43.5625C29.7812 43.1564 29.9426 42.7669 30.2297 42.4797C30.5169 42.1926 30.9064 42.0312 31.3125 42.0312H37.4375C37.8436 42.0312 38.2331 42.1926 38.5203 42.4797C38.8074 42.7669 38.9688 43.1564 38.9688 43.5625C38.9688 43.9686 38.8074 44.3581 38.5203 44.6453C38.2331 44.9324 37.8436 45.0938 37.4375 45.0938ZM37.4375 37.4375H31.3125C30.9064 37.4375 30.5169 37.2762 30.2297 36.989C29.9426 36.7018 29.7812 36.3124 29.7812 35.9062C29.7812 35.5001 29.9426 35.1107 30.2297 34.8235C30.5169 34.5363 30.9064 34.375 31.3125 34.375H37.4375C37.8436 34.375 38.2331 34.5363 38.5203 34.8235C38.8074 35.1107 38.9688 35.5001 38.9688 35.9062C38.9688 36.3124 38.8074 36.7018 38.5203 36.989C38.2331 37.2762 37.8436 37.4375 37.4375 37.4375ZM37.4375 29.7812H31.3125C30.9064 29.7812 30.5169 29.6199 30.2297 29.3328C29.9426 29.0456 29.7812 28.6561 29.7812 28.25C29.7812 27.8439 29.9426 27.4544 30.2297 27.1672C30.5169 26.8801 30.9064 26.7188 31.3125 26.7188H37.4375C37.8436 26.7188 38.2331 26.8801 38.5203 27.1672C38.8074 27.4544 38.9688 27.8439 38.9688 28.25C38.9688 28.6561 38.8074 29.0456 38.5203 29.3328C38.2331 29.6199 37.8436 29.7812 37.4375 29.7812ZM48.1562 52.75H45.0938C44.6876 52.75 44.2982 52.5887 44.011 52.3015C43.7238 52.0143 43.5625 51.6249 43.5625 51.2188C43.5625 50.8126 43.7238 50.4232 44.011 50.136C44.2982 49.8488 44.6876 49.6875 45.0938 49.6875H48.1562C48.5624 49.6875 48.9518 49.8488 49.239 50.136C49.5262 50.4232 49.6875 50.8126 49.6875 51.2188C49.6875 51.6249 49.5262 52.0143 49.239 52.3015C48.9518 52.5887 48.5624 52.75 48.1562 52.75ZM48.1562 45.0938H45.0938C44.6876 45.0938 44.2982 44.9324 44.011 44.6453C43.7238 44.3581 43.5625 43.9686 43.5625 43.5625C43.5625 43.1564 43.7238 42.7669 44.011 42.4797C44.2982 42.1926 44.6876 42.0312 45.0938 42.0312H48.1562C48.5624 42.0312 48.9518 42.1926 49.239 42.4797C49.5262 42.7669 49.6875 43.1564 49.6875 43.5625C49.6875 43.9686 49.5262 44.3581 49.239 44.6453C48.9518 44.9324 48.5624 45.0938 48.1562 45.0938ZM48.1562 37.4375H45.0938C44.6876 37.4375 44.2982 37.2762 44.011 36.989C43.7238 36.7018 43.5625 36.3124 43.5625 35.9062C43.5625 35.5001 43.7238 35.1107 44.011 34.8235C44.2982 34.5363 44.6876 34.375 45.0938 34.375H48.1562C48.5624 34.375 48.9518 34.5363 49.239 34.8235C49.5262 35.1107 49.6875 35.5001 49.6875 35.9062C49.6875 36.3124 49.5262 36.7018 49.239 36.989C48.9518 37.2762 48.5624 37.4375 48.1562 37.4375ZM48.1562 29.7812H45.0938C44.6876 29.7812 44.2982 29.6199 44.011 29.3328C43.7238 29.0456 43.5625 28.6561 43.5625 28.25C43.5625 27.8439 43.7238 27.4544 44.011 27.1672C44.2982 26.8801 44.6876 26.7188 45.0938 26.7188H48.1562C48.5624 26.7188 48.9518 26.8801 49.239 27.1672C49.5262 27.4544 49.6875 27.8439 49.6875 28.25C49.6875 28.6561 49.5262 29.0456 49.239 29.3328C48.9518 29.6199 48.5624 29.7812 48.1562 29.7812Z" fill="#F9F9FA"/>
</svg>
