<svg width="81" height="81" viewBox="0 0 81 81" fill="none" xmlns="http://www.w3.org/2000/svg">
<path d="M0 20C0 8.95431 8.95431 0 20 0H40.5H61C72.0457 0 81 8.95431 81 20V40.5V61C81 72.0457 72.0457 81 61 81H40.5H20C8.95431 81 0 72.0457 0 61V40.5V20Z" fill="#2DAE7A"/>
<path d="M24.0869 19.0625H58.4922L63.4688 32.2217V32.8438C63.4688 33.7054 62.7991 34.375 61.9375 34.375C61.2913 34.375 60.7785 34.0177 60.5498 33.4658C60.4736 33.2819 60.4062 33.0592 60.4062 32.8438V32.7959C60.4067 32.78 60.4067 32.764 60.4062 32.748C60.4067 32.7321 60.4067 32.7161 60.4062 32.7002C60.4082 32.6683 60.4082 32.6364 60.4062 32.6045C60.3911 32.5878 60.375 32.5719 60.3584 32.5566C60.3604 32.5248 60.3604 32.4928 60.3584 32.4609C60.3432 32.4443 60.3272 32.4283 60.3105 32.4131C60.2499 32.3169 60.1675 32.2345 60.0713 32.1738C60.0553 32.1733 60.0394 32.1733 60.0234 32.1738C59.9927 32.1557 59.9607 32.1397 59.9277 32.126C59.6924 32.0374 59.4138 32.0746 59.21 32.2217C59.1933 32.2368 59.1773 32.2529 59.1621 32.2695C59.1455 32.2847 59.1295 32.3007 59.1143 32.3174C59.0796 32.3464 59.0475 32.3784 59.0186 32.4131C59.0004 32.4438 58.9844 32.4758 58.9707 32.5088C58.9541 32.5239 58.9381 32.54 58.9229 32.5566C58.9209 32.5885 58.9209 32.6205 58.9229 32.6523C58.9224 32.6683 58.9224 32.6843 58.9229 32.7002C58.9047 32.7309 58.8887 32.7629 58.875 32.7959V32.8438C58.875 33.49 58.5176 34.0506 57.9658 34.2793C57.7819 34.3555 57.5591 34.375 57.3438 34.375C56.6976 34.375 56.1848 34.0177 55.9561 33.4658C55.8798 33.2819 55.8125 33.0592 55.8125 32.8438C55.8145 32.8119 55.8145 32.7799 55.8125 32.748C55.813 32.7321 55.813 32.7161 55.8125 32.7002C55.8145 32.6683 55.8145 32.6364 55.8125 32.6045C55.7973 32.5878 55.7813 32.5719 55.7646 32.5566C55.7666 32.5248 55.7666 32.4928 55.7646 32.4609C55.7495 32.4443 55.7334 32.4283 55.7168 32.4131C55.6561 32.3169 55.5737 32.2345 55.4775 32.1738C55.4616 32.1733 55.4456 32.1733 55.4297 32.1738C55.399 32.1557 55.367 32.1397 55.334 32.126C55.2425 32.0919 55.1445 32.0756 55.0469 32.0781C54.8933 32.0813 54.741 32.1321 54.6162 32.2217C54.5996 32.2368 54.5836 32.2529 54.5684 32.2695C54.5517 32.2847 54.5357 32.3007 54.5205 32.3174C54.4859 32.3464 54.4538 32.3784 54.4248 32.4131C54.4066 32.4438 54.3906 32.4758 54.377 32.5088C54.3603 32.5239 54.3443 32.54 54.3291 32.5566C54.3271 32.5885 54.3271 32.6205 54.3291 32.6523C54.3286 32.6683 54.3286 32.6843 54.3291 32.7002C54.3109 32.7309 54.2949 32.7629 54.2812 32.7959C54.2808 32.8118 54.2808 32.8278 54.2812 32.8438C54.2812 33.49 53.9239 34.0506 53.3721 34.2793C53.1881 34.3555 52.9654 34.375 52.75 34.375C52.1038 34.375 51.591 34.0177 51.3623 33.4658C51.2861 33.2819 51.2188 33.0592 51.2188 32.8438C51.2207 32.8119 51.2207 32.7799 51.2188 32.748C51.2192 32.7321 51.2192 32.7161 51.2188 32.7002C51.2207 32.6683 51.2207 32.6364 51.2188 32.6045C51.2036 32.5878 51.1875 32.5719 51.1709 32.5566C51.1729 32.5248 51.1729 32.4928 51.1709 32.4609C51.1557 32.4443 51.1397 32.4283 51.123 32.4131C51.0624 32.3169 50.98 32.2345 50.8838 32.1738C50.8678 32.1733 50.8519 32.1733 50.8359 32.1738C50.8052 32.1557 50.7732 32.1397 50.7402 32.126C50.6488 32.0919 50.5507 32.0756 50.4531 32.0781C50.2995 32.0813 50.1473 32.1321 50.0225 32.2217C50.0058 32.2368 49.9898 32.2529 49.9746 32.2695C49.958 32.2847 49.942 32.3007 49.9268 32.3174C49.8921 32.3464 49.86 32.3784 49.8311 32.4131C49.8129 32.4438 49.7969 32.4758 49.7832 32.5088C49.7666 32.5239 49.7506 32.54 49.7354 32.5566C49.7334 32.5885 49.7334 32.6205 49.7354 32.6523C49.7349 32.6683 49.7349 32.6843 49.7354 32.7002C49.7172 32.7309 49.7012 32.7629 49.6875 32.7959C49.687 32.8118 49.687 32.8278 49.6875 32.8438C49.6875 33.49 49.3301 34.0506 48.7783 34.2793C48.5944 34.3555 48.3716 34.375 48.1562 34.375C47.5101 34.375 46.9973 34.0177 46.7686 33.4658C46.6923 33.2819 46.625 33.0592 46.625 32.8438C46.627 32.8119 46.627 32.7799 46.625 32.748C46.6255 32.7321 46.6255 32.7161 46.625 32.7002C46.627 32.6683 46.627 32.6364 46.625 32.6045C46.6098 32.5878 46.5938 32.5719 46.5771 32.5566C46.5791 32.5248 46.5791 32.4928 46.5771 32.4609C46.562 32.4443 46.5459 32.4283 46.5293 32.4131C46.4686 32.3169 46.3862 32.2345 46.29 32.1738C46.2741 32.1733 46.2581 32.1733 46.2422 32.1738C46.2115 32.1557 46.1795 32.1397 46.1465 32.126C46.055 32.0919 45.957 32.0756 45.8594 32.0781C45.7058 32.0813 45.5535 32.1321 45.4287 32.2217C45.4121 32.2368 45.3961 32.2529 45.3809 32.2695C45.3642 32.2847 45.3482 32.3007 45.333 32.3174C45.2984 32.3464 45.2663 32.3784 45.2373 32.4131C45.2191 32.4438 45.2031 32.4758 45.1895 32.5088C45.1728 32.5239 45.1568 32.54 45.1416 32.5566C45.1396 32.5885 45.1396 32.6205 45.1416 32.6523C45.1411 32.6683 45.1411 32.6843 45.1416 32.7002C45.1234 32.7309 45.1074 32.7629 45.0938 32.7959C45.0933 32.8118 45.0933 32.8278 45.0938 32.8438C45.0938 33.49 44.7364 34.0506 44.1846 34.2793C44.1353 34.2905 44.0871 34.3065 44.041 34.3271C43.894 34.3726 43.7268 34.375 43.5625 34.375C42.9163 34.375 42.4035 34.0177 42.1748 33.4658C42.0986 33.2819 42.0312 33.0592 42.0312 32.8438C42.0332 32.8119 42.0332 32.7799 42.0312 32.748C42.0317 32.7321 42.0317 32.7161 42.0312 32.7002C42.0332 32.6683 42.0332 32.6364 42.0312 32.6045C42.0161 32.5878 42 32.5719 41.9834 32.5566C41.9854 32.5248 41.9854 32.4928 41.9834 32.4609C41.9682 32.4443 41.9522 32.4283 41.9355 32.4131C41.8749 32.3169 41.7925 32.2345 41.6963 32.1738C41.6803 32.1733 41.6644 32.1733 41.6484 32.1738C41.6177 32.1557 41.5857 32.1397 41.5527 32.126C41.4613 32.0919 41.3632 32.0756 41.2656 32.0781C41.112 32.0813 40.9598 32.1321 40.835 32.2217C40.8183 32.2368 40.8023 32.2529 40.7871 32.2695C40.7705 32.2847 40.7545 32.3007 40.7393 32.3174C40.7046 32.3464 40.6725 32.3784 40.6436 32.4131C40.6254 32.4438 40.6094 32.4758 40.5957 32.5088C40.5791 32.5239 40.5631 32.54 40.5479 32.5566C40.5459 32.5885 40.5459 32.6205 40.5479 32.6523C40.5474 32.6683 40.5474 32.6843 40.5479 32.7002C40.5297 32.7309 40.5137 32.7629 40.5 32.7959C40.4995 32.8118 40.4995 32.8278 40.5 32.8438C40.5 33.49 40.1426 34.0506 39.5908 34.2793C39.4069 34.3555 39.1841 34.375 38.9688 34.375C38.3226 34.375 37.8098 34.0177 37.5811 33.4658C37.5048 33.2819 37.4375 33.0592 37.4375 32.8438C37.4395 32.8119 37.4395 32.7799 37.4375 32.748C37.438 32.7321 37.438 32.7161 37.4375 32.7002C37.4395 32.6683 37.4395 32.6364 37.4375 32.6045C37.4223 32.5878 37.4063 32.5719 37.3896 32.5566C37.3916 32.5248 37.3916 32.4928 37.3896 32.4609C37.3745 32.4443 37.3584 32.4283 37.3418 32.4131C37.2811 32.3169 37.1987 32.2345 37.1025 32.1738C37.0866 32.1733 37.0706 32.1733 37.0547 32.1738C37.024 32.1557 36.992 32.1397 36.959 32.126C36.8675 32.0919 36.7695 32.0756 36.6719 32.0781C36.5183 32.0813 36.366 32.1321 36.2412 32.2217C36.2246 32.2368 36.2086 32.2529 36.1934 32.2695C36.1767 32.2847 36.1607 32.3007 36.1455 32.3174C36.1109 32.3464 36.0788 32.3784 36.0498 32.4131C36.0316 32.4438 36.0156 32.4758 36.002 32.5088C35.9853 32.5239 35.9693 32.54 35.9541 32.5566C35.9521 32.5885 35.9521 32.6205 35.9541 32.6523C35.9536 32.6683 35.9536 32.6843 35.9541 32.7002C35.9359 32.7309 35.9199 32.7629 35.9062 32.7959C35.9058 32.8118 35.9058 32.8278 35.9062 32.8438C35.9062 33.49 35.5489 34.0506 34.9971 34.2793C34.8131 34.3555 34.5904 34.375 34.375 34.375C33.7288 34.375 33.216 34.0177 32.9873 33.4658C32.9111 33.2819 32.8438 33.0592 32.8438 32.8438C32.8457 32.8119 32.8457 32.7799 32.8438 32.748C32.8442 32.7321 32.8442 32.7161 32.8438 32.7002C32.8457 32.6683 32.8457 32.6364 32.8438 32.6045C32.8286 32.5878 32.8125 32.5719 32.7959 32.5566C32.7979 32.5248 32.7979 32.4928 32.7959 32.4609C32.7807 32.4443 32.7647 32.4283 32.748 32.4131C32.6874 32.3169 32.605 32.2345 32.5088 32.1738C32.4928 32.1733 32.4769 32.1733 32.4609 32.1738C32.4302 32.1557 32.3982 32.1397 32.3652 32.126C32.2738 32.0919 32.1757 32.0756 32.0781 32.0781C31.9245 32.0813 31.7723 32.1321 31.6475 32.2217C31.6308 32.2368 31.6148 32.2529 31.5996 32.2695C31.583 32.2847 31.567 32.3007 31.5518 32.3174C31.5171 32.3464 31.4851 32.3784 31.4561 32.4131C31.4379 32.4438 31.4219 32.4758 31.4082 32.5088C31.3916 32.5239 31.3756 32.54 31.3604 32.5566C31.3584 32.5885 31.3584 32.6205 31.3604 32.6523C31.3599 32.6683 31.3599 32.6843 31.3604 32.7002C31.3422 32.7309 31.3262 32.7629 31.3125 32.7959C31.312 32.8118 31.312 32.8278 31.3125 32.8438C31.3125 33.49 30.9551 34.0506 30.4033 34.2793C30.2194 34.3555 29.9966 34.375 29.7812 34.375C29.1351 34.375 28.6223 34.0177 28.3936 33.4658C28.3173 33.2819 28.25 33.0592 28.25 32.8438C28.252 32.8119 28.252 32.7799 28.25 32.748C28.2505 32.7321 28.2505 32.7161 28.25 32.7002C28.252 32.6683 28.252 32.6364 28.25 32.6045C28.2348 32.5878 28.2188 32.5719 28.2021 32.5566C28.2041 32.5248 28.2041 32.4928 28.2021 32.4609C28.1869 32.4443 28.1709 32.4283 28.1543 32.4131C28.0936 32.3169 28.0112 32.2345 27.915 32.1738C27.8991 32.1733 27.8831 32.1733 27.8672 32.1738C27.8365 32.1557 27.8044 32.1397 27.7715 32.126C27.68 32.0919 27.582 32.0756 27.4844 32.0781C27.3308 32.0813 27.1785 32.1321 27.0537 32.2217C27.0371 32.2368 27.0211 32.2529 27.0059 32.2695C26.9892 32.2847 26.9732 32.3007 26.958 32.3174C26.9234 32.3464 26.8913 32.3784 26.8623 32.4131C26.8441 32.4438 26.8281 32.4758 26.8145 32.5088C26.7978 32.5239 26.7818 32.54 26.7666 32.5566C26.7646 32.5885 26.7646 32.6205 26.7666 32.6523C26.7661 32.6683 26.7661 32.6843 26.7666 32.7002C26.7484 32.7309 26.7324 32.7629 26.7188 32.7959C26.7183 32.8118 26.7183 32.8278 26.7188 32.8438C26.7188 33.49 26.3614 34.0506 25.8096 34.2793C25.6256 34.3555 25.4029 34.375 25.1875 34.375C24.5413 34.375 24.0285 34.0177 23.7998 33.4658C23.7236 33.2819 23.6562 33.0592 23.6562 32.8438V32.7959C23.6567 32.78 23.6567 32.764 23.6562 32.748C23.6567 32.7321 23.6567 32.7161 23.6562 32.7002C23.6395 32.5414 23.5715 32.3884 23.4648 32.2695C23.4489 32.269 23.4329 32.269 23.417 32.2695C23.4175 32.2536 23.4175 32.2376 23.417 32.2217C23.401 32.2212 23.3851 32.2212 23.3691 32.2217C23.299 32.1598 23.2175 32.1108 23.1299 32.0781C23.098 32.0761 23.066 32.0761 23.0342 32.0781C22.9881 32.0575 22.9399 32.0414 22.8906 32.0303C22.6459 32.0338 22.4062 32.1628 22.2686 32.3652C22.2681 32.3812 22.2681 32.3971 22.2686 32.4131C22.2519 32.4282 22.2359 32.4443 22.2207 32.4609C22.2025 32.4917 22.1865 32.5237 22.1729 32.5566C22.1724 32.5726 22.1724 32.5886 22.1729 32.6045C22.1724 32.6204 22.1724 32.6364 22.1729 32.6523C22.1547 32.6831 22.1387 32.7151 22.125 32.748C22.1245 32.764 22.1245 32.78 22.125 32.7959C22.1245 32.8118 22.1245 32.8278 22.125 32.8438C22.125 33.49 21.7676 34.0506 21.2158 34.2793C21.0319 34.3555 20.8091 34.375 20.5938 34.375C19.9476 34.375 19.4348 34.0177 19.2061 33.4658C19.1298 33.2819 19.0625 33.0592 19.0625 32.8438V32.2217L24.0869 19.0625ZM27.4844 34.8535C27.5299 34.9055 27.5791 34.9483 27.6279 34.9971C28.1831 35.5523 28.9396 35.9062 29.7812 35.9062C30.6893 35.9062 31.5158 35.4874 32.0781 34.8535C32.1236 34.9055 32.1729 34.9483 32.2217 34.9971C32.7769 35.5523 33.5333 35.9062 34.375 35.9062C35.2831 35.9062 36.1096 35.4874 36.6719 34.8535C36.7174 34.9055 36.7666 34.9483 36.8154 34.9971C37.3706 35.5523 38.1271 35.9062 38.9688 35.9062C39.8768 35.9062 40.7033 35.4874 41.2656 34.8535C41.3111 34.9055 41.3604 34.9483 41.4092 34.9971C41.9644 35.5523 42.7208 35.9062 43.5625 35.9062C43.5786 35.9062 43.5943 35.9065 43.6104 35.9062V57.3438H23.6562V35.4756C24.1153 35.7509 24.6165 35.9062 25.1875 35.9062C26.0956 35.9062 26.9221 35.4874 27.4844 34.8535ZM45.8594 34.8535C45.9049 34.9055 45.9541 34.9483 46.0029 34.9971C46.5581 35.5523 47.3146 35.9062 48.1562 35.9062C49.0643 35.9062 49.8908 35.4874 50.4531 34.8535C50.4986 34.9055 50.5479 34.9483 50.5967 34.9971C51.1519 35.5523 51.9083 35.9062 52.75 35.9062C53.6581 35.9062 54.4846 35.4874 55.0469 34.8535C55.0924 34.9055 55.1416 34.9483 55.1904 34.9971C55.7456 35.5523 56.5021 35.9062 57.3438 35.9062C57.9 35.9062 58.424 35.7379 58.875 35.4756V58.0615C58.8745 58.0775 58.8745 58.0934 58.875 58.1094V58.875H57.3438V43.5146L56.5781 43.5625H47.3906C46.9678 43.5625 46.625 43.9053 46.625 44.3281V58.875H45.1416V35.4756C45.4126 35.313 45.6506 35.0888 45.8594 34.8535ZM29.1113 38.6338L26.0488 44.7588L27.4365 45.4287L30.499 39.3037L29.1113 38.6338ZM32.1738 41.6963L28.3457 49.3525L29.7334 50.0225L33.5615 42.3662L32.1738 41.6963ZM48.1562 45.0938H55.8125V58.875H48.1562V45.0938ZM49.6875 49.6875V52.75H51.2188V49.6875H49.6875ZM19.0625 58.875H43.5625V61.9375H19.0625V59.5449V58.875ZM60.4062 58.875H63.4688V61.9375H60.4062V59.832C60.4142 59.7686 60.4142 59.7041 60.4062 59.6406V58.875ZM45.1416 60.4062H58.875V61.9375H45.1416V60.4062Z" fill="#F9F9FA"/>
</svg>
