<svg width="40" height="40" viewBox="0 0 40 40" fill="none" xmlns="http://www.w3.org/2000/svg">
<circle cx="20" cy="20" r="20" fill="#4F4F4F"/>
<path d="M21.4326 28.1151L21.6951 29.6151C22.8147 29.4199 23.8912 29.0289 24.8751 28.4601L24.1251 27.1626C23.2906 27.6359 22.3791 27.9584 21.4326 28.1151Z" fill="white"/>
<path d="M26.3149 25.3023L27.4999 26.2623C28.2264 25.3901 28.7949 24.3977 29.1799 23.3298L27.7774 22.8198C27.4393 23.7267 26.9443 24.567 26.3149 25.3023Z" fill="white"/>
<path d="M15.125 28.4377C16.1089 29.0065 17.1854 29.3974 18.305 29.5927L18.5675 28.0927C17.6195 27.9289 16.708 27.5988 15.875 27.1177L15.125 28.4377Z" fill="white"/>
<path d="M12.2526 22.8198L10.8501 23.3298C11.226 24.3956 11.7843 25.3878 12.5001 26.2623L12.7401 26.0673L13.6551 25.3173C13.0364 24.5797 12.5516 23.7396 12.2226 22.8348L12.2526 22.8198Z" fill="white"/>
<path d="M29.7501 19.9999C29.748 18.8632 29.5449 17.7359 29.1501 16.6699L27.7476 17.1799C28.0756 18.0841 28.2455 19.0381 28.2501 19.9999H29.7501Z" fill="white"/>
<path d="M27.5 13.7373C26.5851 12.6358 25.4387 11.7494 24.1425 11.1411C22.8462 10.5327 21.4319 10.2173 20 10.2173C18.5681 10.2173 17.1538 10.5327 15.8575 11.1411C14.5613 11.7494 13.4149 12.6358 12.5 13.7373V10.9998H11V16.9998H17V15.4998H13.1075C13.8114 14.4245 14.7568 13.5284 15.8684 12.8832C16.98 12.2379 18.2269 11.8613 19.5098 11.7834C20.7927 11.7054 22.0761 11.9283 23.2576 12.4342C24.4391 12.9401 25.4861 13.7151 26.315 14.6973L27.5 13.7373Z" fill="white"/>
</svg>
