<svg width="40" height="40" viewBox="0 0 40 40" fill="none" xmlns="http://www.w3.org/2000/svg">
<circle cx="20" cy="20" r="20" fill="#2F80ED"/>
<path d="M20 10.25C20 10.0511 19.921 9.86032 19.7803 9.71967C19.6397 9.57902 19.4489 9.5 19.25 9.5C19.0511 9.5 18.8603 9.57902 18.7197 9.71967C18.579 9.86032 18.5 10.0511 18.5 10.25V29.75C18.5 29.9489 18.579 30.1397 18.7197 30.2803C18.8603 30.421 19.0511 30.5 19.25 30.5C19.4489 30.5 19.6397 30.421 19.7803 30.2803C19.921 30.1397 20 29.9489 20 29.75V10.25ZM17 27.5V26H12.5C12.1022 26 11.7206 25.842 11.4393 25.5607C11.158 25.2794 11 24.8978 11 24.5V15.5C11 15.1022 11.158 14.7206 11.4393 14.4393C11.7206 14.158 12.1022 14 12.5 14H17V12.5H12.5C11.7044 12.5 10.9413 12.8161 10.3787 13.3787C9.81607 13.9413 9.5 14.7044 9.5 15.5V24.5C9.5 25.2956 9.81607 26.0587 10.3787 26.6213C10.9413 27.1839 11.7044 27.5 12.5 27.5H17ZM26 27.5H21.5V26H26C26.3978 26 26.7794 25.842 27.0607 25.5607C27.342 25.2794 27.5 24.8978 27.5 24.5V15.5C27.5 15.1022 27.342 14.7206 27.0607 14.4393C26.7794 14.158 26.3978 14 26 14H21.5V12.5H26C26.7956 12.5 27.5587 12.8161 28.1213 13.3787C28.6839 13.9413 29 14.7044 29 15.5V24.5C29 25.2956 28.6839 26.0587 28.1213 26.6213C27.5587 27.1839 26.7956 27.5 26 27.5Z" fill="white"/>
</svg>
