<svg width="81" height="81" viewBox="0 0 81 81" fill="none" xmlns="http://www.w3.org/2000/svg">
<path d="M0 20C0 8.95431 8.95431 0 20 0H40.5H61C72.0457 0 81 8.95431 81 20V40.5V61C81 72.0457 72.0457 81 61 81H40.5H20C8.95431 81 0 72.0457 0 61V40.5V20Z" fill="#2DAE7A"/>
<path d="M63.8515 51.9776C63.6983 51.1162 63.1241 50.3298 62.3202 49.9553C59.6405 48.6446 53.7835 46.7347 53.7835 46.7347V44.8248L53.9366 44.7124C55.0468 43.8886 55.8507 42.6153 56.0804 41.2297L56.1187 41.0424H56.2718C57.1905 41.0424 57.9562 40.4807 58.2624 39.7317C58.4538 39.3947 58.5687 39.0202 58.5687 38.6083C58.5687 38.3461 58.5304 38.084 58.4155 37.8218C58.3773 37.5597 58.1858 37.2975 57.9944 37.1477L57.4585 36.8107L57.5733 36.249C58.5687 32.0921 55.2382 28.3098 50.7976 28.2349C50.6827 28.2349 50.5679 28.2349 50.4913 28.2349C50.3765 28.2349 50.2616 28.2349 50.1851 28.2349C45.7062 28.2723 42.414 32.0547 43.371 36.2115L43.5241 36.7732L42.9882 37.1103C42.7585 37.2601 42.6054 37.5222 42.5671 37.7844C42.4522 38.0465 42.414 38.3087 42.414 38.5708C42.414 38.9827 42.5288 39.3572 42.7202 39.6943C43.0265 40.4807 43.8304 41.005 44.7108 41.005H44.864L44.9022 41.1922C45.1319 42.5778 45.8976 43.8511 47.046 44.675L47.1991 44.7873V46.6972C47.1991 46.6972 41.3421 48.6071 38.6624 49.9179C37.8585 50.3298 37.2843 51.0788 37.1312 51.9401C36.6718 54.5615 36.5952 58.9805 36.5952 58.9805H64.4257C64.3874 59.018 64.3108 54.599 63.8515 51.9776Z" fill="#F9F9FA"/>
<path d="M37.7821 48.2698C39.3134 47.5208 41.7251 46.6221 43.6392 45.948C43.3712 45.4237 42.9118 44.9743 42.3759 44.7122C39.6962 43.4014 33.8392 41.4915 33.8392 41.4915V39.5816L33.9923 39.4693C35.1024 38.6454 35.9063 37.3721 36.136 35.9865L36.1743 35.7993H36.3274C37.2462 35.7993 38.0118 35.2375 38.3181 34.4886C38.5095 34.1515 38.6243 33.777 38.6243 33.3651C38.6243 33.1029 38.586 32.8408 38.4712 32.5787C38.4329 32.3165 38.2415 32.0544 38.0501 31.9046L37.5142 31.5675L37.629 31.0058C38.6243 26.849 35.2938 23.0666 30.8532 22.9917C30.7384 22.9917 30.6235 22.9917 30.547 22.9917C30.4321 22.9917 30.3173 22.9917 30.2407 22.9917C25.8001 23.104 22.5079 26.849 23.4649 31.0058L23.6181 31.5675L23.0821 31.9046C22.8524 32.0544 22.6993 32.3165 22.661 32.5787C22.5462 32.8408 22.5079 33.1029 22.5079 33.3651C22.5079 33.777 22.6228 34.1515 22.8142 34.4886C23.1204 35.275 23.9243 35.7993 24.8048 35.7993H24.9579L24.9962 35.9865C25.1876 37.3721 25.9532 38.608 27.1017 39.4693L27.2548 39.5816V41.4915C27.2548 41.4915 21.3978 43.4014 18.7181 44.7122C17.9142 45.1241 17.3399 45.8731 17.1868 46.7344C16.7274 49.3558 16.6509 53.7748 16.6509 53.7748H34.9493C35.0259 53.0258 35.1024 52.3143 35.2173 51.6777C35.4853 50.1797 36.4423 48.9439 37.7821 48.2698Z" fill="#F9F9FA"/>
</svg>
