<svg width="571" height="566" viewBox="0 0 571 566" fill="none" xmlns="http://www.w3.org/2000/svg">
<path d="M527.561 483.05L541.276 467.358" stroke="#FFCD52" stroke-linecap="round" stroke-linejoin="round"/>
<path d="M527.559 483.073L513.844 467.393" stroke="#FFCD52" stroke-linecap="round" stroke-linejoin="round"/>
<path d="M556.286 433.58L567.433 420.824" stroke="#008EF8" stroke-linecap="round" stroke-linejoin="round"/>
<path d="M556.285 433.603L545.103 420.824" stroke="#008EF8" stroke-linecap="round" stroke-linejoin="round"/>
<path d="M492.545 420.258V479.396V493.631" stroke="#FF5061" stroke-linecap="round" stroke-linejoin="round"/>
<path d="M492.545 443.421L503.704 430.666" stroke="#FF5061" stroke-linecap="round" stroke-linejoin="round"/>
<path d="M492.545 456.002L506.26 440.322" stroke="#FF5061" stroke-linecap="round" stroke-linejoin="round"/>
<path d="M492.545 468.965L506.26 453.285" stroke="#FF5061" stroke-linecap="round" stroke-linejoin="round"/>
<path d="M492.543 443.444L481.372 430.666" stroke="#FF5061" stroke-linecap="round" stroke-linejoin="round"/>
<path d="M492.544 456.025L478.829 440.344" stroke="#FF5061" stroke-linecap="round" stroke-linejoin="round"/>
<path d="M492.544 468.989L478.829 453.308" stroke="#FF5061" stroke-linecap="round" stroke-linejoin="round"/>
<path d="M29.2112 493.631H570" stroke="#545454" stroke-linecap="round" stroke-linejoin="round"/>
<path d="M174.639 333.259L116.534 275.153C110.663 269.282 101.145 269.282 95.2738 275.153L36.3179 334.109C30.447 339.98 30.447 349.498 36.3179 355.369L94.4234 413.475C100.294 419.346 109.813 419.346 115.683 413.475L174.639 354.519C180.51 348.648 180.51 339.13 174.639 333.259Z" fill="#C1E3F7" fill-opacity="0.22"/>
<path d="M188.328 333.684L116.109 261.465C110.238 255.594 100.72 255.594 94.8492 261.465L22.6302 333.684C16.7594 339.555 16.7594 349.073 22.6302 354.944L94.8492 427.163C100.72 433.034 110.238 433.034 116.109 427.163L188.328 354.944C194.199 349.073 194.199 339.555 188.328 333.684Z" stroke="#008EF8" stroke-linecap="round" stroke-linejoin="round"/>
<path d="M36.2417 438.622C36.862 441.637 37.329 444.683 37.6409 447.746C37.9878 450.787 38.196 453.84 38.381 456.893C38.566 459.946 38.647 463.01 38.6238 466.086C38.6454 469.175 38.5103 472.262 38.2191 475.337C37.5987 472.321 37.1317 469.276 36.8199 466.213C36.4729 463.172 36.2648 460.107 36.0798 457.055C35.8947 454.002 35.8254 450.937 35.8369 447.873C35.8485 444.808 35.9294 441.744 36.2417 438.622Z" fill="#439916"/>
<path d="M55.5762 455.967C52.5603 456.587 49.5151 457.054 46.4522 457.367C43.3993 457.713 40.3465 457.922 37.2936 458.118C34.2407 458.315 31.1762 458.373 28.1118 458.349C25.0231 458.377 21.9351 458.242 18.8606 457.945C21.8755 457.323 24.921 456.859 27.9846 456.557C31.0259 456.21 34.0788 455.99 37.1317 455.805C40.1846 455.62 43.249 455.551 46.3135 455.574C49.4057 455.548 52.4973 455.68 55.5762 455.967Z" fill="#439916"/>
<path d="M119.929 396.887C120.489 398.897 120.898 400.946 121.155 403.016C121.444 405.063 121.641 407.121 121.745 409.18C121.849 411.238 121.884 413.296 121.826 415.366C121.792 417.451 121.602 419.531 121.259 421.588C120.702 419.577 120.288 417.529 120.022 415.459C119.744 413.412 119.548 411.365 119.444 409.307C119.34 407.249 119.305 405.179 119.363 403.109C119.398 401.024 119.587 398.944 119.929 396.887Z" fill="#0850EC"/>
<path d="M132.986 408.578C130.981 409.139 128.936 409.548 126.869 409.804C124.811 410.082 122.764 410.29 120.706 410.394C118.647 410.498 116.589 410.533 114.519 410.475C112.434 410.441 110.354 410.251 108.297 409.908C110.302 409.339 112.347 408.925 114.415 408.671C116.473 408.393 118.52 408.185 120.578 408.081C122.637 407.977 124.695 407.954 126.765 408.012C128.85 408.046 130.93 408.235 132.986 408.578Z" fill="#0850EC"/>
<path d="M202.66 76.3223C203.296 79.352 203.712 82.3934 204.048 85.4462C204.383 88.4991 204.614 91.5405 204.799 94.6049C204.984 97.6694 205.054 100.722 205.042 103.787C205.06 106.875 204.921 109.963 204.626 113.038C203.99 110.008 203.574 106.967 203.238 103.914C202.903 100.861 202.672 97.8197 202.487 94.7552C202.302 91.6908 202.232 88.6379 202.255 85.5734C202.234 82.4849 202.369 79.3972 202.66 76.3223V76.3223Z" fill="#439916"/>
<path d="M222.028 93.6683C218.999 94.3043 215.957 94.7206 212.904 95.056C209.851 95.3913 206.81 95.6226 203.746 95.8076C200.681 95.9927 197.628 96.0621 194.564 96.0505C191.475 96.0682 188.387 95.9293 185.313 95.6342C188.343 94.9982 191.384 94.5819 194.437 94.2465C197.49 93.9112 200.531 93.6799 203.595 93.4948C206.66 93.3098 209.713 93.2404 212.777 93.2636C215.866 93.2361 218.954 93.3712 222.028 93.6683ZM226.862 98.8027C227.421 100.813 227.831 102.861 228.088 104.932C228.365 106.978 228.574 109.037 228.678 111.095C228.782 113.154 228.816 115.212 228.759 117.282C228.724 119.367 228.534 121.446 228.192 123.503C227.629 121.494 227.215 119.445 226.955 117.374C226.677 115.328 226.469 113.269 226.365 111.211C226.261 109.152 226.238 107.094 226.295 105.024C226.33 102.939 226.519 100.86 226.862 98.8027Z" fill="#439916"/>
<path d="M239.872 110.482C237.862 111.041 235.813 111.454 233.743 111.72C231.697 111.997 229.65 112.194 227.591 112.309C225.533 112.425 223.463 112.437 221.405 112.39C219.316 112.352 217.232 112.158 215.172 111.812C217.182 111.253 219.23 110.843 221.301 110.586C223.347 110.309 225.406 110.101 227.464 109.997C229.523 109.893 231.581 109.869 233.651 109.927C235.735 109.963 237.814 110.149 239.872 110.482ZM11.6804 422.328C12.239 424.335 12.6525 426.379 12.9178 428.445C13.1953 430.504 13.3919 432.55 13.5075 434.609C13.6232 436.667 13.6347 438.726 13.5885 440.796C13.5445 442.881 13.3513 444.96 13.0103 447.017C12.4499 445.011 12.0402 442.966 11.7845 440.9C11.507 438.841 11.2988 436.794 11.1947 434.736C11.0907 432.678 11.056 430.608 11.1138 428.549C11.1596 426.465 11.3489 424.386 11.6804 422.328Z" fill="#439916"/>
<path d="M24.7006 434.007C22.6907 434.567 20.6422 434.976 18.5717 435.233C16.5249 435.522 14.4665 435.719 12.4081 435.823C10.3498 435.927 8.29137 435.962 6.22142 435.904C4.13643 435.87 2.05688 435.68 0 435.337C2.011 434.78 4.05915 434.366 6.12891 434.1C8.17573 433.822 10.2226 433.626 12.2809 433.522C14.3393 433.418 16.4093 433.383 18.4792 433.441C20.5642 433.476 22.6436 433.665 24.7006 434.007ZM518.702 265.578C519.322 268.594 519.789 271.639 520.101 274.702C520.448 277.743 520.656 280.796 520.853 283.861C521.049 286.925 521.107 289.978 521.084 293.043C521.106 296.131 520.971 299.219 520.68 302.294C520.057 299.279 519.594 296.233 519.292 293.17C518.933 290.128 518.725 287.076 518.54 284.011C518.355 280.947 518.286 277.894 518.297 274.829C518.309 271.765 518.39 268.666 518.702 265.578Z" fill="#439916"/>
<path d="M538.036 282.936C535.006 283.572 531.954 283.988 528.912 284.323C525.871 284.659 522.806 284.89 519.754 285.075C516.701 285.26 513.636 285.329 510.572 285.318C507.483 285.336 504.395 285.197 501.321 284.901C504.35 284.265 507.392 283.849 510.445 283.514C513.497 283.178 516.539 282.947 519.592 282.762C522.645 282.577 525.709 282.508 528.785 282.531C531.874 282.503 534.962 282.639 538.036 282.936ZM505.958 244.381C506.516 246.388 506.93 248.433 507.195 250.499C507.473 252.546 507.669 254.604 507.785 256.662C507.9 258.721 507.912 260.779 507.854 262.849C507.82 264.934 507.631 267.014 507.288 269.07C506.728 267.064 506.319 265.02 506.062 262.953C505.784 260.895 505.576 258.848 505.472 256.789C505.368 254.731 505.333 252.661 505.391 250.603C505.437 248.518 505.626 246.44 505.958 244.381Z" fill="#439916"/>
<path d="M518.98 256.061C516.971 256.62 514.922 257.03 512.852 257.287C510.805 257.564 508.746 257.773 506.688 257.877C504.63 257.981 502.571 258.015 500.501 257.958C498.416 257.923 496.337 257.734 494.28 257.391C496.289 256.828 498.338 256.414 500.409 256.154C502.456 255.876 504.502 255.679 506.561 255.575C508.619 255.471 510.689 255.437 512.759 255.494C514.844 255.53 516.923 255.719 518.98 256.061Z" fill="#439916"/>
<path d="M284.115 311.268L120.589 373.031L256.176 440.449L433.244 373.031L284.115 311.268Z" fill="#15523A"/>
<path d="M284.115 311.268L256.177 440.449L433.244 373.031L284.115 311.268Z" fill="#2E7987"/>
<path d="M478.993 373.956L433.349 372.534L286.303 311.77L333.966 308.779L478.993 373.956Z" stroke="#2DAE7A"/>
<path d="M256.176 440.449L253.031 565.594L120.589 493.042V373.031L256.176 440.449Z" fill="#2DAE7A"/>
<path d="M432.703 373.772L425.546 507.062L253.548 564.892L256.667 440.797L432.703 373.772Z" fill="#2DAE7A" stroke="#2DAE7A"/>
<path d="M208.87 473.525L87.2501 399.646L120.648 373.619L255.207 440.525L208.87 473.525Z" stroke="#15523A"/>
<path d="M433.056 373.637L468.271 424.394L302.148 493.493L257.018 440.664L433.056 373.637Z" stroke="#15523A"/>
<path d="M120.588 437.118C122.41 435.296 124.383 433.633 126.486 432.146C128.552 430.609 130.75 429.259 133.054 428.11C131.236 429.935 129.263 431.598 127.157 433.082C125.085 434.61 122.888 435.961 120.588 437.118ZM120.588 446.982C123.659 444.26 126.871 441.701 130.21 439.315C133.518 436.89 136.953 434.643 140.502 432.585C137.44 435.313 134.232 437.873 130.892 440.252C127.58 442.678 124.141 444.924 120.588 446.982ZM120.577 458.014C122.809 456.233 125.11 454.545 127.434 452.926C129.759 451.307 132.06 449.677 134.465 448.092C136.871 446.508 139.218 444.97 141.646 443.467L145.289 441.247C146.526 440.53 147.741 439.801 148.99 439.119C147.833 440.009 146.677 440.842 145.601 441.709L142.132 444.207C139.819 445.861 137.507 447.456 135.101 449.029C132.696 450.602 130.348 452.151 127.92 453.655C125.492 455.158 123.075 456.638 120.577 458.014ZM120.588 473.209C123.838 470.688 127.168 468.26 130.51 465.843C133.852 463.426 137.217 461.079 140.594 458.731C143.971 456.384 147.394 454.106 150.84 451.793L156.02 448.428C157.767 447.341 159.49 446.219 161.259 445.155C159.64 446.439 157.975 447.653 156.344 448.89L151.349 452.533C148.018 454.95 144.642 457.297 141.253 459.645C137.865 461.992 134.454 464.27 131.008 466.583C127.562 468.896 124.115 471.082 120.588 473.209ZM120.577 488.115C124.798 484.924 129.088 481.848 133.39 478.772C137.692 475.696 142.051 472.724 146.388 469.694C150.724 466.664 155.118 463.75 159.524 460.836L166.151 456.488C168.382 455.065 170.603 453.62 172.846 452.232C170.741 453.84 168.602 455.378 166.474 456.95L160.033 461.576C155.731 464.652 151.372 467.636 147.035 470.665C142.699 473.695 138.304 476.609 133.887 479.523C129.47 482.437 125.064 485.317 120.577 488.115ZM130.545 498.188C134.87 494.938 139.276 491.781 143.682 488.636C148.088 485.49 152.563 482.449 156.992 479.385C161.421 476.32 165.942 473.302 170.452 470.318L177.24 465.855C179.553 464.398 181.785 462.917 184.086 461.495C181.935 463.137 179.738 464.71 177.553 466.317L170.961 471.047C166.544 474.181 162.08 477.245 157.651 480.298C153.222 483.351 148.7 486.392 144.179 489.376C139.657 492.359 135.148 495.331 130.545 498.188ZM143.867 505.75C148.192 502.489 152.586 499.332 157.003 496.199C161.421 493.065 165.873 490 170.314 486.947C174.754 483.894 179.253 480.853 183.774 477.87L190.551 473.406C192.863 471.96 195.107 470.469 197.408 469.046C195.245 470.688 193.048 472.273 190.874 473.88L184.271 478.61C179.865 481.744 175.402 484.796 170.961 487.861C166.521 490.925 162.011 493.955 157.501 496.939C152.991 499.922 148.458 502.883 143.867 505.75ZM157.269 512.874C161.594 509.613 166 506.456 170.406 503.322C174.812 500.188 179.287 497.124 183.716 494.071C188.145 491.018 192.667 487.977 197.177 484.993L203.965 480.529C206.278 479.072 208.509 477.592 210.811 476.17C208.66 477.812 206.463 479.385 204.289 480.992L197.743 485.687C193.326 488.821 188.862 491.885 184.433 494.938C180.004 497.991 175.483 501.032 170.961 504.016C166.44 506.999 161.895 509.971 157.269 512.874ZM170.637 519.65C177.576 514.597 184.572 509.659 191.58 504.733L212.707 490.07L233.985 475.626L244.681 468.491L255.436 461.449L245.028 468.954L234.528 476.366L213.401 491.018L192.123 505.461C185.023 510.237 177.842 514.99 170.637 519.65ZM255.263 476.436C249.296 480.818 243.259 485.097 237.211 489.364C231.163 493.631 225.046 497.817 218.975 502.085C212.904 506.352 206.74 510.434 200.588 514.551L191.337 520.691C188.238 522.715 185.15 524.762 182.028 526.751C185 524.542 188.03 522.403 191.025 520.228L200.079 513.81C206.139 509.543 212.245 505.357 218.316 501.09C224.387 496.823 230.55 492.741 236.702 488.636C242.854 484.53 249.03 480.425 255.263 476.436ZM254.869 492.394C249.989 496.037 245.04 499.564 240.091 503.079C235.141 506.595 230.111 510.018 225.127 513.487C220.143 516.956 215.089 520.379 210.024 523.709L202.369 528.74C199.802 530.37 197.269 532.047 194.69 533.654C197.119 531.827 199.594 530.069 202.045 528.265L209.469 522.981C214.43 519.512 219.437 516.042 224.433 512.573C229.429 509.104 234.47 505.727 239.535 502.374C244.601 499.02 249.781 495.643 254.869 492.394ZM254.407 509.601C250.706 512.434 246.936 515.152 243.167 517.858C239.397 520.564 235.546 523.2 231.741 525.872C227.937 528.543 224.051 531.099 220.177 533.654L214.395 537.459C212.418 538.696 210.475 539.968 208.486 541.171C210.325 539.748 212.21 538.384 214.072 536.996L219.726 532.914C223.508 530.208 227.336 527.583 231.152 524.912C234.968 522.241 238.83 519.685 242.716 517.129C246.601 514.574 250.463 512.041 254.407 509.601ZM254.025 526.161C251.458 528.208 248.81 530.162 246.162 532.093C243.514 534.024 240.831 535.898 238.136 537.759C235.442 539.621 232.713 541.448 229.949 543.218L225.809 545.82C224.398 546.664 223.022 547.543 221.588 548.364C222.872 547.334 224.19 546.363 225.485 545.357L229.452 542.443C232.088 540.5 234.783 538.627 237.477 536.765C240.172 534.903 242.901 533.076 245.664 531.307C248.428 529.537 251.18 527.768 254.025 526.161ZM253.609 542.466C247.731 547.439 241.365 551.806 234.609 555.499C237.53 552.994 240.592 550.658 243.779 548.502C246.94 546.308 250.222 544.292 253.609 542.466ZM253.25 555.938C252.186 557.165 250.961 558.243 249.608 559.141C248.284 560.076 246.841 560.831 245.317 561.385C247.487 558.959 250.207 557.091 253.25 555.938Z" fill="#F9F9FA"/>
<g clip-path="url(#clip0)">
<path d="M118.755 67.2807H106.985V61.3955H118.755V67.2807ZM118.755 70.6435H106.985V76.5287H118.755V70.6435ZM118.755 42.8995H106.985V48.7846H118.755V42.8997V42.8995ZM118.755 52.1475H106.985V58.0326H118.755V52.1475ZM118.755 79.8915H106.985V85.7767H118.755V79.8914V79.8915ZM126.885 91.4937C126.549 93.2424 124.447 93.2843 123.043 93.3433H96.8962V100.91H91.6752L53.1951 94.1839V35.3415L91.9023 28.6072H96.8962V35.3078H122.143C123.564 35.3666 125.128 35.2657 126.364 36.1148C127.23 37.3591 127.146 38.9397 127.204 40.3689L127.171 84.1372C127.129 86.5837 127.398 89.0808 126.885 91.4937ZM84.0245 78.3026C81.7042 73.5947 79.3418 68.9201 77.0297 64.2119C79.3165 59.63 81.5697 55.0313 83.8144 50.4324C81.906 50.525 79.9975 50.6426 78.0975 50.7772C76.6766 54.2325 75.0203 57.5955 73.9106 61.1686C72.8765 57.7972 71.5062 54.552 70.2535 51.2648C68.4039 51.3657 66.5542 51.4749 64.7047 51.5842C66.6551 55.8889 68.7318 60.1343 70.6234 64.4642C68.3955 68.6678 66.3105 72.9304 64.1498 77.1592C65.9909 77.2348 67.8322 77.3106 69.6733 77.3357C70.9849 73.9897 72.6159 70.7697 73.7593 67.3563C74.785 71.022 76.5252 74.4101 77.9545 77.9158C79.9807 78.0589 81.9985 78.185 84.0246 78.3026H84.0245ZM123.195 39.3007H96.8962V42.8995H103.622V48.7846H96.8962V52.1475H103.622V58.0326H96.8962V61.3955H103.622V67.2807H96.8962V70.6435H103.622V76.5287H96.8962V79.8915H103.622V85.7767H96.8962V89.6647H123.195V39.3007Z" fill="#2DAE7A"/>
</g>
<g clip-path="url(#clip1)">
<path d="M204.783 194.609H177.829V187.044H173.064L134.142 193.785V252.601L172.602 259.325H177.829V250.92H203.052C204.489 250.853 206.086 250.996 207.313 250.105C208.288 248.6 208.051 246.718 208.136 245.02V197.903C208.329 195.97 206.716 194.424 204.783 194.609ZM158.793 225.975C156.885 226.95 154.7 226.815 152.624 226.748L152.615 236.607L147.614 236.187L147.623 209.25C152.187 209.468 157.717 207.443 161.499 210.863C165.121 215.259 164.163 223.344 158.793 225.975ZM204.119 246.953H177.829V241.675H198V238.313H177.829V234.111H198V230.749H177.838C177.838 230.749 177.829 227.454 177.821 225.807C181.149 226.841 184.94 226.816 187.915 224.815C191.134 222.907 192.815 219.268 193.092 215.637H182.032V204.661L177.829 205.51V198.575H204.119V246.953V246.953ZM183.712 202.904C189.553 203.173 194.471 208.111 194.781 213.935H183.712V202.904ZM152.615 213.797C154.271 213.721 156.322 213.418 157.439 214.973C158.398 216.621 158.347 218.789 157.549 220.487C156.591 222.218 154.422 222.05 152.75 222.252C152.573 219.436 152.59 216.621 152.615 213.797Z" fill="#2DAE7A"/>
</g>
<g clip-path="url(#clip2)">
<path d="M480.032 90.8417H453.063V84.1162H448.035L409.365 90.8584V149.689L447.808 156.414H453.063V149.714H478.3C479.729 149.647 481.318 149.756 482.545 148.882C483.529 147.377 483.277 145.494 483.36 143.796V94.1034C483.537 92.1867 481.948 90.6483 480.032 90.8417ZM437.409 131.69C436.005 132.421 433.904 131.656 432.239 131.774C431.121 126.209 429.818 120.677 428.818 115.087C427.834 120.517 426.556 125.898 425.43 131.295C423.816 131.211 422.193 131.11 420.571 131.001C419.175 123.603 417.536 116.255 416.233 108.84C417.67 108.773 419.116 108.714 420.554 108.664C421.42 114.019 422.403 119.349 423.16 124.712C424.345 119.214 425.556 113.716 426.733 108.218C428.33 108.126 429.927 108.059 431.525 107.975C432.643 113.649 433.786 119.315 434.997 124.965C435.947 119.13 436.997 113.313 438.015 107.487C439.696 107.428 441.377 107.336 443.05 107.235C441.15 115.381 439.486 123.594 437.409 131.69ZM479.359 145.721H453.063V140.441H474.92V137.079H453.063V132.875H474.92V129.513H453.063V125.309H474.92V121.947H453.063V117.743H474.92V114.381H453.063V110.177H474.92V106.814H453.063V102.611H474.92V99.2484H453.063V94.8093H479.359V145.721V145.721Z" fill="#2DAE7A"/>
</g>
<g clip-path="url(#clip3)">
<path d="M246.322 298.35C246.322 295.897 247.296 293.544 249.031 291.809C250.766 290.074 253.119 289.099 255.573 289.099H311.08C313.534 289.099 315.887 290.074 317.622 291.809C319.357 293.544 320.331 295.897 320.331 298.35V344.606C320.331 347.06 319.357 349.413 317.622 351.148C315.887 352.883 313.534 353.857 311.08 353.857H255.573C253.119 353.857 250.766 352.883 249.031 351.148C247.296 349.413 246.322 347.06 246.322 344.606V298.35ZM250.947 339.981V344.606C250.947 345.833 251.435 347.01 252.302 347.877C253.17 348.744 254.346 349.232 255.573 349.232H311.08C312.307 349.232 313.483 348.744 314.351 347.877C315.218 347.01 315.706 345.833 315.706 344.606V328.417L298.235 319.411C297.801 319.193 297.31 319.118 296.831 319.195C296.352 319.272 295.909 319.498 295.566 319.841L278.405 337.002L266.101 328.805C265.657 328.509 265.124 328.376 264.593 328.429C264.061 328.481 263.565 328.715 263.187 329.092L250.947 339.981ZM274.075 309.914C274.075 308.074 273.344 306.309 272.043 305.008C270.742 303.707 268.977 302.976 267.137 302.976C265.297 302.976 263.532 303.707 262.231 305.008C260.93 306.309 260.199 308.074 260.199 309.914C260.199 311.754 260.93 313.519 262.231 314.82C263.532 316.122 265.297 316.853 267.137 316.853C268.977 316.853 270.742 316.122 272.043 314.82C273.344 313.519 274.075 311.754 274.075 309.914Z" fill="#2DAE7A"/>
</g>
<path d="M298.608 69.6922C290.59 69.6922 282.367 66.6085 277.022 60.441C275.172 61.8801 272.91 63.1136 270.649 64.1415C269.621 64.5527 268.387 64.1415 267.976 63.1136C267.565 62.0857 267.976 60.8522 269.004 60.441C271.06 59.6187 272.91 58.5908 274.555 57.3573C272.088 53.4513 270.649 48.5173 270.649 42.761C270.649 31.8652 275.788 26.1089 280.517 26.1089C283.6 26.1089 287.095 28.5759 287.095 35.7712C287.095 45.4336 284.834 52.6289 279.9 57.9741C284.423 63.3192 291.412 65.9917 298.402 65.9917C299.636 65.9917 300.458 66.8141 300.458 68.0476C300.458 69.281 299.841 69.6922 298.608 69.6922ZM280.517 30.0149C278.461 30.0149 274.76 33.7154 274.76 42.5554C274.76 47.0782 275.788 50.9843 277.639 54.068C281.339 49.7508 283.189 43.5833 283.189 35.3601C283.189 32.2763 282.161 30.0149 280.517 30.0149Z" fill="#2DAE7A"/>
<path d="M332.118 9.86794C330.473 6.9898 327.8 4.93398 324.717 4.11166C323.689 3.90607 322.455 4.52282 322.25 5.55073L320.399 12.5405L317.11 6.78422C316.905 6.37305 316.288 5.96189 315.671 5.75631C315.054 5.55073 314.438 5.75631 314.026 6.16747C311.765 7.81213 310.326 10.0735 309.504 12.7461L300.869 44.4057C300.047 47.4894 300.458 50.9843 302.103 53.8624C303.336 56.1238 305.392 57.7685 307.653 59.002L305.392 67.2253C305.186 68.2532 305.803 69.4866 306.831 69.6922H307.448C308.27 69.6922 309.092 69.0755 309.504 68.2532L311.765 60.2355H312.999C315.054 60.2355 317.11 59.6187 319.166 58.5908C322.044 56.9462 324.1 54.2736 324.922 51.1899L328.212 39.2661L331.501 27.3424C331.706 26.5201 331.501 25.6977 330.679 25.081C330.062 24.6698 329.034 24.4642 328.417 24.8754L320.194 29.6038L321.427 25.2866L333.146 18.708C333.762 18.2968 334.173 17.6801 334.173 17.0633C333.968 14.5963 333.351 12.1293 332.118 9.86794ZM313.41 13.9796C313.615 12.9517 314.026 12.1293 314.643 11.307L318.549 18.2968L315.671 28.7815L311.354 21.1749L313.41 13.9796ZM305.598 51.8066C304.57 49.9564 304.158 47.695 304.775 45.6392L309.915 26.7256L314.232 34.3322L311.354 45.228L308.681 54.8903C307.448 54.2736 306.42 53.2457 305.598 51.8066ZM320.605 49.9564C319.988 52.0122 318.755 53.8624 316.699 54.8903C315.465 55.7127 314.026 55.9183 312.587 55.9183L315.054 47.2838L322.661 42.9666L320.605 49.9564ZM325.95 31.0429L324.306 37.4159L316.699 41.7331L318.344 35.3601L325.95 31.0429ZM322.455 19.7359L322.661 18.9135C322.866 18.708 322.866 18.2968 322.866 18.0912L325.333 8.84004C326.567 9.45678 327.595 10.6903 328.417 11.9238C329.034 13.1573 329.445 14.3907 329.445 15.6242L322.455 19.7359Z" fill="#2DAE7A"/>
<path d="M399.343 201.599H362.338C358.946 201.599 356.171 204.374 356.171 207.766V244.771C356.171 248.163 358.946 250.938 362.338 250.938H399.343C402.735 250.938 405.51 248.163 405.51 244.771V207.766C405.51 204.374 402.735 201.599 399.343 201.599ZM399.343 244.771H362.338V207.766H399.343V244.771ZM350.003 213.934H343.836V257.106C343.836 260.498 346.611 263.273 350.003 263.273H393.176V257.106H350.003V213.934ZM387.008 232.436V223.185C387.008 221.489 385.62 220.101 383.924 220.101H377.757V235.52H383.924C385.62 235.52 387.008 234.132 387.008 232.436ZM380.841 223.185H383.924V232.436H380.841V223.185ZM393.176 229.352H396.259V226.268H393.176V223.185H396.259V220.101H390.092V235.52H393.176V229.352ZM368.506 229.352H371.589C373.286 229.352 374.673 227.964 374.673 226.268V223.185C374.673 221.489 373.286 220.101 371.589 220.101H365.422V235.52H368.506V229.352ZM368.506 223.185H371.589V226.268H368.506V223.185Z" fill="#2DAE7A"/>
<defs>
<clipPath id="clip0">
<rect width="74.0094" height="74.0094" fill="white" transform="translate(53.1951 27.7537)"/>
</clipPath>
<clipPath id="clip1">
<rect width="74.0094" height="74.0094" fill="white" transform="translate(134.142 186.18)"/>
</clipPath>
<clipPath id="clip2">
<rect width="74.0094" height="74.0094" fill="white" transform="translate(409.365 83.2605)"/>
</clipPath>
<clipPath id="clip3">
<rect width="74.0094" height="74.0094" fill="white" transform="translate(246.312 284.474)"/>
</clipPath>
</defs>
</svg>
