<svg width="40" height="40" viewBox="0 0 40 40" fill="none" xmlns="http://www.w3.org/2000/svg">
<circle cx="20" cy="20" r="20" fill="#2D9CDB"/>
<path d="M25.8333 18.334H14.1667C13.2462 18.334 12.5 19.0802 12.5 20.0007V26.6673C12.5 27.5878 13.2462 28.334 14.1667 28.334H25.8333C26.7538 28.334 27.5 27.5878 27.5 26.6673V20.0007C27.5 19.0802 26.7538 18.334 25.8333 18.334Z" stroke="white" stroke-width="2" stroke-linecap="round" stroke-linejoin="round"/>
<path d="M15 18.3337V14.167C15 13.504 15.2634 12.8681 15.7322 12.3992C16.2011 11.9304 16.837 11.667 17.5 11.667H22.5C23.163 11.667 23.7989 11.9304 24.2678 12.3992C24.7366 12.8681 25 13.504 25 14.167V15.0003" stroke="white" stroke-width="2" stroke-linecap="round" stroke-linejoin="round"/>
</svg>
