<svg width="40" height="40" viewBox="0 0 40 40" fill="none" xmlns="http://www.w3.org/2000/svg">
<circle cx="20" cy="20" r="20" fill="#2B5493"/>
<path d="M22.4963 19.295H23.36L22.3638 23.7125L21.0688 17.5012H18.9875L17.4813 23.7125L16.3525 17.5012H14.1763L16.385 27.4987H18.5113L20.0013 21.5862L21.3338 27.4987H23.2938L25.825 17.5012H22.4963V19.295Z" fill="#F9F9FA"/>
<path d="M27.9263 14.4738C27.4925 13.8825 26.8875 13.19 26.2238 12.5262C25.56 11.8625 24.8675 11.2575 24.2762 10.8237C23.2687 10.085 22.78 10 22.5 10H12.8125C11.9512 10 11.25 10.7012 11.25 11.5625V28.4375C11.25 29.2987 11.9512 30 12.8125 30H27.1875C28.0487 30 28.75 29.2987 28.75 28.4375V16.25C28.75 15.97 28.665 15.4812 27.9263 14.4738ZM25.3387 13.4113C25.9388 14.0113 26.4087 14.5512 26.7562 15H23.7487V11.9938C24.1975 12.3412 24.7388 12.8113 25.3375 13.4113H25.3387ZM27.5 28.4375C27.5 28.6075 27.3575 28.75 27.1875 28.75H12.8125C12.7299 28.749 12.651 28.7158 12.5926 28.6574C12.5342 28.599 12.501 28.5201 12.5 28.4375V11.5625C12.5 11.3937 12.6437 11.25 12.8125 11.25H22.5V15.625C22.5 15.7908 22.5658 15.9497 22.6831 16.0669C22.8003 16.1842 22.9592 16.25 23.125 16.25H27.5V28.4375Z" fill="#F9F9FA"/>
</svg>
