<svg width="90" height="23" viewBox="0 0 90 23" fill="none" xmlns="http://www.w3.org/2000/svg">
<path d="M3 7.07732C21.723 3.29332 40.7491 3 59.594 3C66.1313 3 72.5915 5.03866 79.1416 5.03866C80.3297 5.03866 85.4009 6.97586 85.9869 6.05799C86.1515 5.80019 84.7122 5.22981 84.5648 5.18967C81.5178 4.35966 78.1031 5.03866 75.02 5.03866C55.6148 5.03866 35.9293 11.8793 17.1244 18.9317C15.8244 19.4193 14.434 20.0952 13.0751 19.9888C11.5533 19.8696 16.0537 18.969 17.5583 18.592C26.3072 16.3994 34.7035 16.4971 43.5655 16.9308C55.0803 17.4944 66.5375 17.9502 78.057 17.9502" stroke="#2DAE7A" stroke-width="6" stroke-linecap="round" stroke-linejoin="round"/>
</svg>
