<svg width="310" height="23" viewBox="0 0 310 23" fill="none" xmlns="http://www.w3.org/2000/svg">
<path d="M3 7.07732C71.3501 3.29332 140.807 3 209.602 3C233.467 3 257.051 5.03866 280.963 5.03866C285.3 5.03866 303.813 6.97586 305.952 6.05799C306.553 5.80019 301.299 5.22981 300.761 5.18967C289.637 4.35966 277.171 5.03866 265.916 5.03866C195.076 5.03866 123.212 11.8793 54.5626 18.9317C49.8167 19.4193 44.7408 20.0952 39.7801 19.9888C34.2248 19.8696 50.654 18.969 56.1464 18.592C88.0855 16.3994 118.737 16.4971 151.088 16.9308C193.124 17.4944 234.95 17.9502 277.003 17.9502" stroke="#2DAE7A" stroke-width="6" stroke-linecap="round" stroke-linejoin="round"/>
</svg>
