<svg width="40" height="40" viewBox="0 0 40 40" fill="none" xmlns="http://www.w3.org/2000/svg">
<path d="M36.875 11.5625L30.375 5.125C28.5625 3.125 27 2.9375 25.25 4.4375L18.625 11.0625L30.25 22.6875L36.875 16C38.0625 14.8125 38.0625 12.8125 36.875 11.5625ZM27.9375 37.5C27.9375 37.125 27.625 36.875 27.3125 36.875H16L19.625 33.25L8 21.625L3.125 26.5C1.875 27.75 1.875 29.6875 3.125 30.9375L9.0625 36.875H6.625C6.25 36.875 6 37.125 6 37.5C6 37.875 6.25 38.125 6.625 38.125H27.3125C27.6875 38.125 27.9375 37.875 27.9375 37.5Z" fill="#15523A"/>
<path d="M29.3124 23.5625L17.7499 11.9375C17.4999 11.75 17.1874 11.75 16.9374 12L8.93743 19.9375C8.74993 20.1875 8.68743 20.5 8.87493 20.75L20.4999 32.375C20.6249 32.4375 20.7499 32.5 20.8749 32.5C21.0624 32.5 21.1874 32.4375 21.3124 32.3125L29.3124 24.375C29.4999 24.125 29.4999 23.75 29.3124 23.5625ZM22.1874 26.6875C21.9999 26.6875 21.8749 26.625 21.7499 26.5L18.2499 23C17.9999 22.75 17.9999 22.375 18.2499 22.125C18.4999 21.875 18.8749 21.875 19.1249 22.125L22.6249 25.625C22.8749 25.875 22.8749 26.25 22.6249 26.5C22.4999 26.625 22.3124 26.6875 22.1874 26.6875ZM24.3749 24.5C24.1874 24.5 24.0624 24.4375 23.9374 24.3125L16.9374 17.3125C16.6874 17.0625 16.6874 16.6875 16.9374 16.4375C17.1874 16.1875 17.5624 16.1875 17.8124 16.4375L24.7499 23.375C24.9999 23.625 24.9999 24 24.7499 24.25C24.6874 24.375 24.4999 24.5 24.3749 24.5ZM31.6874 36.875H29.8124C29.4374 36.875 29.1874 37.125 29.1874 37.5C29.1874 37.875 29.4374 38.125 29.8124 38.125H31.6874C32.0624 38.125 32.3124 37.875 32.3124 37.5C32.3124 37.125 31.9999 36.875 31.6874 36.875Z" fill="#15523A"/>
</svg>
