<svg width="24" height="24" viewBox="0 0 24 24" fill="none" xmlns="http://www.w3.org/2000/svg">
<path d="M19.3171 16.4035C18.7305 15.8164 18.045 15.3372 17.2921 14.9879C18.3538 14.1277 19.0312 12.8152 19.0312 11.3433C19.0312 8.74645 16.8656 6.61598 14.2687 6.65582C11.7117 6.69567 9.6515 8.77926 9.6515 11.3433C9.6515 12.8152 10.3312 14.1277 11.3906 14.9879C10.6375 15.3369 9.95202 15.8161 9.36556 16.4035C8.08587 17.6855 7.35931 19.3777 7.31244 21.1824C7.31181 21.2074 7.3162 21.2323 7.32534 21.2556C7.33448 21.2789 7.3482 21.3001 7.36567 21.318C7.38314 21.3359 7.40403 21.3502 7.42708 21.3599C7.45014 21.3696 7.47491 21.3746 7.49994 21.3746H8.81244C8.91322 21.3746 8.99759 21.2949 8.99994 21.1941C9.04447 19.8347 9.59525 18.5621 10.5632 17.5964C11.0585 17.0985 11.6477 16.7037 12.2966 16.435C12.9456 16.1662 13.6413 16.0289 14.3437 16.0308C15.771 16.0308 17.114 16.5863 18.1242 17.5964C19.0898 18.5621 19.6406 19.8347 19.6874 21.1941C19.6898 21.2949 19.7742 21.3746 19.8749 21.3746H21.1874C21.2125 21.3746 21.2372 21.3696 21.2603 21.3599C21.2833 21.3502 21.3042 21.3359 21.3217 21.318C21.3392 21.3001 21.3529 21.2789 21.362 21.2556C21.3712 21.2323 21.3756 21.2074 21.3749 21.1824C21.3281 19.3777 20.6015 17.6855 19.3171 16.4035ZM14.3437 14.3433C13.5421 14.3433 12.7874 14.0316 12.2226 13.4644C11.9391 13.1832 11.7152 12.8477 11.5642 12.4781C11.4132 12.1084 11.3382 11.7121 11.3437 11.3129C11.3507 10.5441 11.6577 9.80114 12.1945 9.25035C12.757 8.67379 13.5093 8.3527 14.3132 8.34332C15.1077 8.33629 15.8788 8.64567 16.446 9.20114C17.0273 9.77067 17.346 10.5324 17.346 11.3433C17.346 12.1449 17.0343 12.8972 16.4671 13.4644C16.1889 13.744 15.8579 13.9657 15.4934 14.1165C15.1289 14.2674 14.7382 14.3445 14.3437 14.3433ZM8.47259 11.9621C8.4515 11.7582 8.43978 11.5519 8.43978 11.3433C8.43978 10.9707 8.47494 10.6074 8.54056 10.2535C8.55697 10.1691 8.51244 10.0824 8.43509 10.0472C8.11634 9.90426 7.82337 9.70739 7.57025 9.45895C7.27198 9.16975 7.03728 8.82155 6.8811 8.43656C6.72493 8.05158 6.65073 7.63828 6.66322 7.22301C6.68431 6.47067 6.98666 5.75582 7.514 5.21676C8.09291 4.62379 8.87103 4.30035 9.69837 4.30973C10.446 4.31676 11.1679 4.60504 11.714 5.11598C11.8992 5.28942 12.0585 5.4816 12.1921 5.68785C12.239 5.76051 12.3304 5.79098 12.4101 5.76285C12.8226 5.61989 13.2585 5.5191 13.7062 5.47223C13.8374 5.45817 13.9124 5.31754 13.8538 5.20035C13.0921 3.69332 11.5359 2.6527 9.73587 2.62457C7.13666 2.58473 4.97103 4.7152 4.97103 7.30973C4.97103 8.7816 5.64837 10.0941 6.71009 10.9543C5.96478 11.2988 5.27806 11.7746 4.68275 12.3699C3.39837 13.6519 2.67181 15.3441 2.62494 17.1511C2.62431 17.1761 2.6287 17.201 2.63784 17.2243C2.64698 17.2476 2.6607 17.2688 2.67817 17.2868C2.69564 17.3047 2.71652 17.3189 2.73958 17.3286C2.76264 17.3383 2.78741 17.3433 2.81244 17.3433H4.12728C4.22806 17.3433 4.31244 17.2636 4.31478 17.1629C4.35931 15.8035 4.91009 14.5308 5.87806 13.5652C6.56712 12.8761 7.41087 12.398 8.33197 12.166C8.42337 12.1425 8.48431 12.0558 8.47259 11.9621Z" fill="#7B7C81"/>
</svg>
