<svg width="11" height="10" viewBox="0 0 11 10" fill="none" xmlns="http://www.w3.org/2000/svg">
<path d="M0 4.54903C0 4.2959 0.188103 4.0867 0.432153 4.05359L0.5 4.04903L9.28933 4.04943L6.11401 0.887077C5.91833 0.692236 5.91764 0.375654 6.11249 0.179973C6.28961 0.00207901 6.56736 -0.0146561 6.76341 0.130158L6.81959 0.17845L10.8529 4.19445C10.8787 4.22013 10.9011 4.24793 10.9201 4.27728C10.9255 4.28612 10.931 4.29516 10.9362 4.30438C10.9409 4.31228 10.9452 4.32049 10.9493 4.32879C10.9549 4.34086 10.9605 4.35333 10.9655 4.36606C10.9695 4.37587 10.9729 4.38542 10.976 4.39504C10.9797 4.40696 10.9833 4.41968 10.9864 4.43258C10.9887 4.44159 10.9905 4.45027 10.9921 4.45897C10.9943 4.47193 10.9962 4.48533 10.9975 4.4989C10.9987 4.50924 10.9994 4.51949 10.9998 4.52975C10.9999 4.53597 11 4.54249 11 4.54903L10.9998 4.5684C10.9994 4.57821 10.9987 4.58802 10.9977 4.5978L11 4.54903C11 4.58058 10.9971 4.61145 10.9915 4.64138C10.9902 4.64853 10.9886 4.65587 10.9869 4.66318C10.9834 4.67823 10.9793 4.69272 10.9746 4.70694C10.9722 4.71399 10.9695 4.72154 10.9666 4.72903C10.9608 4.74407 10.9545 4.75841 10.9475 4.77238C10.9442 4.77895 10.9406 4.78583 10.9368 4.79264C10.9305 4.80374 10.9241 4.81429 10.9173 4.82458C10.9125 4.83186 10.9072 4.83944 10.9016 4.8469L10.8973 4.85266C10.8838 4.87026 10.8692 4.88694 10.8536 4.90258L10.853 4.90305L6.81962 8.91971C6.62395 9.11457 6.30737 9.11392 6.11252 8.91825C5.93537 8.74037 5.91981 8.46256 6.06545 8.26712L6.11398 8.21115L9.288 5.04943L0.5 5.04903C0.223858 5.04903 0 4.82517 0 4.54903Z" fill="#2B2B2B"/>
</svg>
