<svg width="15" height="15" viewBox="0 0 15 15" fill="none" xmlns="http://www.w3.org/2000/svg">
<g clip-path="url(#clip0)">
<path d="M13.9 10.7998C13.9 11.0385 13.8052 11.2674 13.6364 11.4362C13.4676 11.605 13.2387 11.6998 13 11.6998H2.20002C1.96133 11.6998 1.73241 11.605 1.56363 11.4362C1.39485 11.2674 1.30002 11.0385 1.30002 10.7998V5.3998C1.30002 5.16111 1.39485 4.93219 1.56363 4.76341C1.73241 4.59463 1.96133 4.4998 2.20002 4.4998H3.25482C3.97054 4.49941 4.65681 4.21487 5.16282 3.7087L5.90982 2.9635C6.07813 2.79515 6.30627 2.70033 6.54432 2.6998H8.65392C8.8926 2.69986 9.12148 2.79471 9.29022 2.9635L10.0354 3.7087C10.2862 3.95955 10.5839 4.15852 10.9116 4.29426C11.2393 4.43 11.5905 4.49985 11.9452 4.4998H13C13.2387 4.4998 13.4676 4.59463 13.6364 4.76341C13.8052 4.93219 13.9 5.16111 13.9 5.3998V10.7998ZM2.20002 3.5998C1.72263 3.5998 1.2648 3.78945 0.927232 4.12701C0.589667 4.46458 0.400024 4.92241 0.400024 5.3998L0.400024 10.7998C0.400024 11.2772 0.589667 11.735 0.927232 12.0726C1.2648 12.4102 1.72263 12.5998 2.20002 12.5998H13C13.4774 12.5998 13.9353 12.4102 14.2728 12.0726C14.6104 11.735 14.8 11.2772 14.8 10.7998V5.3998C14.8 4.92241 14.6104 4.46458 14.2728 4.12701C13.9353 3.78945 13.4774 3.5998 13 3.5998H11.9452C11.4679 3.5997 11.0101 3.40999 10.6726 3.0724L9.92742 2.3272C9.58994 1.98962 9.13217 1.79991 8.65482 1.7998H6.54522C6.06787 1.79991 5.61011 1.98962 5.27262 2.3272L4.52742 3.0724C4.18994 3.40999 3.73217 3.5997 3.25482 3.5998H2.20002Z" fill="#7B7C81"/>
<path d="M7.60001 9.9C7.00327 9.9 6.43098 9.66295 6.00902 9.24099C5.58706 8.81903 5.35001 8.24674 5.35001 7.65C5.35001 7.05326 5.58706 6.48097 6.00902 6.05901C6.43098 5.63705 7.00327 5.4 7.60001 5.4C8.19675 5.4 8.76904 5.63705 9.191 6.05901C9.61296 6.48097 9.85001 7.05326 9.85001 7.65C9.85001 8.24674 9.61296 8.81903 9.191 9.24099C8.76904 9.66295 8.19675 9.9 7.60001 9.9ZM7.60001 10.8C8.43544 10.8 9.23666 10.4681 9.8274 9.87739C10.4181 9.28665 10.75 8.48543 10.75 7.65C10.75 6.81457 10.4181 6.01335 9.8274 5.42261C9.23666 4.83187 8.43544 4.5 7.60001 4.5C6.76458 4.5 5.96337 4.83187 5.37263 5.42261C4.78189 6.01335 4.45001 6.81457 4.45001 7.65C4.45001 8.48543 4.78189 9.28665 5.37263 9.87739C5.96337 10.4681 6.76458 10.8 7.60001 10.8ZM3.10001 5.85C3.10001 5.96935 3.0526 6.08381 2.96821 6.1682C2.88382 6.25259 2.76936 6.3 2.65001 6.3C2.53066 6.3 2.41621 6.25259 2.33181 6.1682C2.24742 6.08381 2.20001 5.96935 2.20001 5.85C2.20001 5.73065 2.24742 5.61619 2.33181 5.5318C2.41621 5.44741 2.53066 5.4 2.65001 5.4C2.76936 5.4 2.88382 5.44741 2.96821 5.5318C3.0526 5.61619 3.10001 5.73065 3.10001 5.85Z" fill="#7B7C81"/>
</g>
<defs>
<clipPath id="clip0">
<rect width="14.4" height="14.4" fill="white" transform="translate(0.400024)"/>
</clipPath>
</defs>
</svg>
