<svg width="88" height="63" viewBox="0 0 88 63" fill="none" xmlns="http://www.w3.org/2000/svg">
<path d="M80.9396 0.738838H6.41993C4.77295 0.738838 3.19341 1.3931 2.02882 2.5577C0.864224 3.72229 0.209961 5.30182 0.209961 6.94881V56.6286C0.209961 58.2756 0.864224 59.8551 2.02882 61.0197C3.19341 62.1843 4.77295 62.8386 6.41993 62.8386H80.9396C82.5866 62.8386 84.1661 62.1843 85.3307 61.0197C86.4953 59.8551 87.1496 58.2756 87.1496 56.6286V6.94881C87.1496 5.30182 86.4953 3.72229 85.3307 2.5577C84.1661 1.3931 82.5866 0.738838 80.9396 0.738838ZM74.1086 6.94881L43.6798 28.0006L13.2509 6.94881H74.1086ZM6.41993 56.6286V9.77435L41.9099 34.3348C42.4297 34.6954 43.0472 34.8886 43.6798 34.8886C44.3124 34.8886 44.9298 34.6954 45.4496 34.3348L80.9396 9.77435V56.6286H6.41993Z" fill="#2DAE7A"/>
</svg>
