<svg width="24" height="24" viewBox="0 0 24 24" fill="none" xmlns="http://www.w3.org/2000/svg">
<path d="M16.8 0.8L17.2432 0.1344L17.0416 0H16.8V0.8ZM21.6 4H22.4V3.5712L22.0432 3.3344L21.6 4ZM20 19.2H7.19998V20.8H20V19.2ZM6.39998 18.4V2.4H4.79998V18.4H6.39998ZM7.19998 1.6H16.8V0H7.19998V1.6ZM20.8 4V18.4H22.4V4H20.8ZM16.3568 1.4656L21.1568 4.6656L22.0432 3.3344L17.2432 0.1344L16.3568 1.4656ZM7.19998 19.2C6.9878 19.2 6.78432 19.1157 6.63429 18.9657C6.48426 18.8157 6.39998 18.6122 6.39998 18.4H4.79998C4.79998 19.0365 5.05283 19.647 5.50292 20.0971C5.95301 20.5471 6.56346 20.8 7.19998 20.8V19.2ZM20 20.8C20.6365 20.8 21.2469 20.5471 21.697 20.0971C22.1471 19.647 22.4 19.0365 22.4 18.4H20.8C20.8 18.6122 20.7157 18.8157 20.5657 18.9657C20.4156 19.1157 20.2121 19.2 20 19.2V20.8ZM6.39998 2.4C6.39998 2.18783 6.48426 1.98434 6.63429 1.83431C6.78432 1.68429 6.9878 1.6 7.19998 1.6V0C6.56346 0 5.95301 0.252856 5.50292 0.702944C5.05283 1.15303 4.79998 1.76348 4.79998 2.4H6.39998ZM1.59998 5.6V21.6H3.19998V5.6H1.59998ZM3.99998 24H16.8V22.4H3.99998V24ZM3.99998 4.8H5.59998V3.2H3.99998V4.8ZM19.2 21.6V20H17.6V21.6H19.2ZM16.8 24C17.4365 24 18.0469 23.7471 18.497 23.2971C18.9471 22.847 19.2 22.2365 19.2 21.6H17.6C17.6 21.8122 17.5157 22.0157 17.3657 22.1657C17.2156 22.3157 17.0121 22.4 16.8 22.4V24ZM1.59998 21.6C1.59998 22.2365 1.85283 22.847 2.30292 23.2971C2.75301 23.7471 3.36346 24 3.99998 24V22.4C3.7878 22.4 3.58432 22.3157 3.43429 22.1657C3.28426 22.0157 3.19998 21.8122 3.19998 21.6H1.59998ZM3.19998 5.6C3.19998 5.38783 3.28426 5.18434 3.43429 5.03431C3.58432 4.88429 3.7878 4.8 3.99998 4.8V3.2C3.36346 3.2 2.75301 3.45286 2.30292 3.90294C1.85283 4.35303 1.59998 4.96348 1.59998 5.6H3.19998Z" fill="#7B7C81"/>
</svg>
