<svg width="24" height="24" viewBox="0 0 24 24" fill="none" xmlns="http://www.w3.org/2000/svg">
<path d="M22.41 11.64L17.91 3.39C17.8452 3.27164 17.7497 3.17294 17.6336 3.1043C17.5174 3.03567 17.3849 2.99963 17.25 3H6.74998C6.61506 2.99963 6.48254 3.03567 6.36639 3.1043C6.25023 3.17294 6.15474 3.27164 6.08998 3.39L1.58998 11.64C1.52416 11.754 1.4895 11.8834 1.4895 12.015C1.4895 12.1467 1.52416 12.276 1.58998 12.39L6.08998 20.64C6.15858 20.7528 6.25573 20.8455 6.37162 20.9087C6.4875 20.9719 6.61802 21.0034 6.74998 21H17.25C17.3849 21.0004 17.5174 20.9643 17.6336 20.8957C17.7497 20.8271 17.8452 20.7284 17.91 20.61L22.41 12.36C22.4704 12.2496 22.502 12.1258 22.502 12C22.502 11.8742 22.4704 11.7504 22.41 11.64ZM17.1975 5.25L20.49 11.25H13.365L17.1975 5.25ZM12 10.605L8.11498 4.5H15.885L12 10.605ZM6.80248 5.25L10.635 11.25H3.50998L6.80248 5.25ZM3.50998 12.75H10.635L6.80248 18.75L3.50998 12.75ZM12 13.395L15.885 19.5H8.11498L12 13.395ZM17.1975 18.75L13.365 12.75H20.49L17.1975 18.75Z" fill="#7B7C81"/>
</svg>
