<svg width="42" height="39" viewBox="0 0 42 39" fill="none" xmlns="http://www.w3.org/2000/svg">
<g clip-path="url(#clip0)">
<path d="M41.0194 7.4104L28.9521 0L20.5098 6.62822L32.6771 13.6918L41.0194 7.4104Z" fill="#15523A"/>
<path d="M12.0674 0L0 7.40801L8.34487 13.6918L20.5097 6.62822L12.0674 0Z" fill="#15523A"/>
<path d="M20.5097 20.7577L12.0674 27.386L0 19.9755L8.3423 13.6918L20.5097 20.7577L32.6744 13.6918L41.0193 19.9755L28.9519 27.386L20.5097 20.7577Z" fill="#15523A"/>
<path d="M29.5624 29.8736C29.3325 30.0164 29.0591 30.0854 28.7834 30.0703C28.5077 30.0552 28.2448 29.9568 28.0344 29.7899L20.5099 23.8817L12.9855 29.7899C12.7737 29.9552 12.5106 30.0525 12.235 30.0676C11.9594 30.0827 11.6859 30.0147 11.4549 29.8736L7.69141 27.563V31.0959L20.5356 38.2719L33.3285 31.0959V27.5606L29.5624 29.8736Z" fill="#15523A"/>
</g>
<defs>
<clipPath id="clip0">
<rect width="41.0193" height="38.2719" fill="white"/>
</clipPath>
</defs>
</svg>
